<?xml version="1.0" encoding="UTF-8" standalone="no"?>
<!-- Created with Inkscape (http://www.inkscape.org/) -->

<svg
   xmlns:dc="http://purl.org/dc/elements/1.1/"
   xmlns:cc="http://creativecommons.org/ns#"
   xmlns:rdf="http://www.w3.org/1999/02/22-rdf-syntax-ns#"
   xmlns:svg="http://www.w3.org/2000/svg"
   xmlns="http://www.w3.org/2000/svg"
   xmlns:sodipodi="http://sodipodi.sourceforge.net/DTD/sodipodi-0.dtd"
   xmlns:inkscape="http://www.inkscape.org/namespaces/inkscape"
   width="143.83076mm"
   height="81.386833mm"
   viewBox="0 0 143.83076 81.386833"
   version="1.1"
   id="svg6220"
   inkscape:version="0.92.3 (2405546, 2018-03-11)"
   sodipodi:docname="drawing-1.svg">
  <defs
     id="defs6214" />
  <sodipodi:namedview
     id="base"
     pagecolor="#ffffff"
     bordercolor="#666666"
     borderopacity="1.0"
     inkscape:pageopacity="0.0"
     inkscape:pageshadow="2"
     inkscape:zoom="1.5"
     inkscape:cx="275.0996"
     inkscape:cy="55.762392"
     inkscape:document-units="mm"
     inkscape:current-layer="layer1"
     showgrid="false"
     inkscape:window-width="1781"
     inkscape:window-height="1124"
     inkscape:window-x="721"
     inkscape:window-y="179"
     inkscape:window-maximized="0"
     inkscape:snap-global="false"
     fit-margin-top="1"
     fit-margin-left="1"
     fit-margin-right="1"
     fit-margin-bottom="1" />
  <metadata
     id="metadata6217">
    <rdf:RDF>
      <cc:Work
         rdf:about="">
        <dc:format>image/svg+xml</dc:format>
        <dc:type
           rdf:resource="http://purl.org/dc/dcmitype/StillImage" />
        <dc:title></dc:title>
      </cc:Work>
    </rdf:RDF>
  </metadata>
  <g
     inkscape:label="Layer 1"
     inkscape:groupmode="layer"
     id="layer1"
     transform="translate(-26.472787,-89.255853)">
    <path
       style="fill:#acd3f4;fill-opacity:1;fill-rule:evenodd;stroke:none;stroke-width:0.26458332px;stroke-linecap:butt;stroke-linejoin:miter;stroke-opacity:1"
       d="m 55.033333,94.858333 c -4.233334,0.705554 -6.702777,4.056944 -6.702777,7.584717 0,3.52778 3.704166,8.81945 7.055554,8.99584 3.351389,0.17639 8.113889,-4.7625 8.466666,-7.05556 0.35278,-2.29305 -2.116667,-9.348609 -8.819443,-9.524997 z"
       id="path6946"
       inkscape:connector-curvature="0" />
    <path
       style="fill:#acd3f4;fill-opacity:1;fill-rule:evenodd;stroke:none;stroke-width:0.26458332px;stroke-linecap:butt;stroke-linejoin:miter;stroke-opacity:1"
       d="m 94.89722,91.683333 c -4.7625,-1.411111 -7.584721,0.529167 -9.172221,1.940277 -1.5875,1.411111 -4.938889,5.291667 -7.055555,6.87917 -2.116667,1.5875 -8.290278,3.35139 -7.584722,8.99583 0.705554,5.64444 4.056943,8.11389 4.938889,10.05417 1.587499,3.175 2.998611,8.81944 6.173611,10.05416 3.175,1.23473 9.877777,1.5875 11.994443,-5.11527 2.116667,-6.70278 -0.881945,-9.87778 0.352779,-13.58195 1.234723,-3.70417 3.715894,-7.33307 4.233333,-10.75972 0.529165,-3.504294 -1.058334,-6.48287 -3.880557,-8.466667 z"
       id="path6936"
       inkscape:connector-curvature="0"
       sodipodi:nodetypes="csssccsssc" />
    <path
       style="fill:#acd3f4;fill-opacity:1;fill-rule:evenodd;stroke:none;stroke-width:0.26458332px;stroke-linecap:butt;stroke-linejoin:miter;stroke-opacity:1"
       d="m 37.747223,115.14305 c -7.408334,5.29167 -3.880557,16.05139 -2.998613,19.57917 0.881946,3.52778 4.056946,7.40833 1.5875,10.75972 -2.469444,3.35139 -10.759721,10.40695 -8.466667,14.99306 2.293057,4.58611 8.643057,4.40972 13.405556,5.64444 4.7625,1.23473 12.7,3.175 15.698611,1.41111 2.998612,-1.76388 5.644446,-5.29166 7.584723,-5.99722 1.940276,-0.70555 10.054166,-2.99861 11.112499,-5.46805 1.058334,-2.46945 0,-6.87917 -1.234723,-8.81945 -1.23472,-1.94028 -4.912779,-5.5313 -5.468056,-7.9375 -1.058333,-4.58611 1.114818,-8.31604 10e-7,-11.28889 -1.5875,-4.23333 -11.641666,-4.58611 -14.463887,-5.46805 -2.822223,-0.88195 -9.348611,-11.1125 -16.756944,-7.40834 z"
       id="path6913"
       inkscape:connector-curvature="0"
       sodipodi:nodetypes="cssscccccsscc" />
    <path
       style="fill:#acd3f4;fill-opacity:1;fill-rule:evenodd;stroke:none;stroke-width:0.26499999;stroke-linecap:butt;stroke-linejoin:miter;stroke-miterlimit:4;stroke-dasharray:none;stroke-opacity:1"
       d="m 101.95278,132.42916 c -5.468058,3.175 -3.527781,10.23056 -5.291671,13.75834 -1.763887,3.52777 -7.055553,10.75972 -3.527776,14.46388 3.527776,3.70417 7.761117,3.175 10.583337,2.11667 2.82222,-1.05833 4.7625,-4.40972 7.23194,-5.99722 2.46945,-1.5875 9.525,0 12.7,-4.93889 3.175,-4.93889 1.41111,-9.70139 -2.82222,-11.99444 -4.23333,-2.29306 -9.34861,-11.28889 -18.87361,-7.40834 z"
       id="path6911"
       inkscape:connector-curvature="0" />
    <path
       style="fill:#26b432;fill-opacity:0.23921569;fill-rule:evenodd;stroke:none;stroke-width:0.26458332px;stroke-linecap:butt;stroke-linejoin:miter;stroke-opacity:1"
       d="m 31.92639,159.76945 c 0.705554,5.29167 17.4625,10.93611 22.930554,9.70139 C 60.325,168.23612 77.258333,160.47501 76.376389,154.3014 75.494443,148.12779 54.680556,139.83751 47.272223,141.77779 39.86389,143.71806 29.633334,152.7139 31.92639,159.76945 Z"
       id="path6984"
       inkscape:connector-curvature="0" />
    <circle
       style="fill:#ffffff;fill-opacity:1;stroke:#707070;stroke-width:0.64600003;stroke-miterlimit:4;stroke-dasharray:none;stroke-dashoffset:0;stroke-opacity:1"
       id="path6780"
       cx="48.330551"
       cy="147.5986"
       r="4.4097219" />
    <circle
       style="fill:#ffffff;fill-opacity:1;stroke:#707070;stroke-width:0.64600009;stroke-miterlimit:4;stroke-dasharray:none;stroke-dashoffset:0;stroke-opacity:1"
       id="path6780-9"
       cx="53.269444"
       cy="160.2986"
       r="4.4097219" />
    <path
       style="fill:#26b432;fill-opacity:0.23921569;fill-rule:evenodd;stroke:none;stroke-width:0.26458332px;stroke-linecap:butt;stroke-linejoin:miter;stroke-opacity:1"
       d="m 56.444443,93.094444 c -5.820831,-0.529166 -13.229167,7.937496 -14.993054,11.818056 -1.76389,3.88055 -9.701389,16.58056 -7.937502,21.69584 1.76389,3.52777 10.406946,6.52638 14.111112,7.58471 3.704167,1.05834 10.054167,6.35 14.11111,5.29167 4.056947,-1.05833 7.231947,-6.52639 7.055557,-9.70139 -0.17639,-3.175 -6.120671,-11.25327 -6.350001,-14.46388 -0.352778,-4.93889 0.381944,-11.52787 0.176391,-14.81667 -0.176391,-2.822225 -2.998613,-7.231947 -6.173613,-7.408336 z"
       id="path6950"
       inkscape:connector-curvature="0"
       sodipodi:nodetypes="ccccssssc" />
    <circle
       style="fill:#ffffff;fill-opacity:1;stroke:#707070;stroke-width:0.64600009;stroke-miterlimit:4;stroke-dasharray:none;stroke-dashoffset:0;stroke-opacity:1"
       id="path6780-2"
       cx="59.972221"
       cy="132.42917"
       r="4.4097219" />
    <circle
       style="fill:#ffffff;fill-opacity:1;stroke:#707070;stroke-width:0.64600009;stroke-miterlimit:4;stroke-dasharray:none;stroke-dashoffset:0;stroke-opacity:1"
       id="path6780-23"
       cx="41.627777"
       cy="123.96249"
       r="4.4097219" />
    <circle
       style="fill:#ffffff;fill-opacity:1;stroke:#707070;stroke-width:0.64600009;stroke-miterlimit:4;stroke-dasharray:none;stroke-dashoffset:0;stroke-opacity:1"
       id="path6780-1"
       cx="68.086113"
       cy="153.06667"
       r="4.4097219" />
    <circle
       style="fill:#ffffff;fill-opacity:1;stroke:#707070;stroke-width:0.64600009;stroke-miterlimit:4;stroke-dasharray:none;stroke-dashoffset:0;stroke-opacity:1"
       id="path6780-8"
       cx="37.747223"
       cy="156.94722"
       r="4.4097219"
       inkscape:transform-center-x="-29.456944"
       inkscape:transform-center-y="-11.641667" />
    <path
       style="fill:#28b733;fill-opacity:0.23853209;fill-rule:evenodd;stroke:none;stroke-width:0.26458332px;stroke-linecap:butt;stroke-linejoin:miter;stroke-opacity:1"
       d="m 75.141666,102.97222 c -3.704167,2.64583 -3.880557,7.58472 -2.822223,10.75972 1.058333,3.175 4.586112,11.28889 6.702779,13.93473 2.116667,2.64583 9.17222,6.35 10.406944,9.17222 1.234723,2.82222 0.529166,18.69722 3.527776,22.225 2.998613,3.52778 10.406948,4.93889 13.052778,3.175 1.76389,-1.05834 5.93242,-5.94882 7.23195,-6.52639 3.17499,-1.41112 9.60634,-2.365 10.23056,-6.52639 0.98751,-6.58332 -7.40834,-8.99583 -10.93612,-10.93611 -3.52778,-1.94028 -13.229168,-9.34861 -15.522221,-14.2875 -2.293057,-4.93889 -6.350001,-13.75834 -8.995834,-17.28611 -1.411111,-2.46945 -8.995833,-5.46806 -12.876389,-3.70417 z"
       id="path6948"
       inkscape:connector-curvature="0"
       sodipodi:nodetypes="cscsscsssscc" />
    <circle
       style="fill:#ffffff;fill-opacity:1;stroke:#707070;stroke-width:0.64600009;stroke-miterlimit:4;stroke-dasharray:none;stroke-dashoffset:0;stroke-opacity:1"
       id="path6780-3"
       cx="79.727783"
       cy="109.85139"
       r="4.4097219"
       inkscape:transform-center-x="40.216667"
       inkscape:transform-center-y="29.104167" />
    <circle
       style="fill:#ffffff;fill-opacity:1;stroke:#707070;stroke-width:0.64600009;stroke-miterlimit:4;stroke-dasharray:none;stroke-dashoffset:0;stroke-opacity:1"
       id="path6780-3-4"
       cx="86.077774"
       cy="123.08056"
       r="4.4097219"
       inkscape:transform-center-x="40.216667"
       inkscape:transform-center-y="29.104167" />
    <path
       style="fill:#26b432;fill-opacity:0.23921569;fill-rule:evenodd;stroke:none;stroke-width:0.26458332px;stroke-linecap:butt;stroke-linejoin:miter;stroke-opacity:1"
       d="m 83.782419,99.108026 c 0.70556,4.233324 4.05695,6.702774 7.58472,6.702774 3.527784,0 8.819451,-3.70417 8.995841,-7.055551 0.1764,-3.351382 -4.762497,-8.113882 -7.055557,-8.466659 -2.293054,-0.35278 -9.348614,2.116667 -9.525004,8.819436 z"
       id="path6946-2"
       inkscape:connector-curvature="0" />
    <circle
       style="fill:#ffffff;fill-opacity:1;stroke:#707070;stroke-width:0.64600009;stroke-miterlimit:4;stroke-dasharray:none;stroke-dashoffset:0;stroke-opacity:1"
       id="path6780-3-2"
       cx="90.487503"
       cy="98.915276"
       r="4.4097219"
       inkscape:transform-center-x="40.216667"
       inkscape:transform-center-y="29.104167" />
    <circle
       style="fill:#ffffff;fill-opacity:1;stroke:#707070;stroke-width:0.64600009;stroke-miterlimit:4;stroke-dasharray:none;stroke-dashoffset:0;stroke-opacity:1"
       id="path6780-3-24"
       cx="55.738892"
       cy="102.61944"
       r="4.4097219"
       inkscape:transform-center-x="40.216667"
       inkscape:transform-center-y="29.104167" />
    <circle
       style="fill:#ffffff;fill-opacity:1;stroke:#707070;stroke-width:0.64600009;stroke-miterlimit:4;stroke-dasharray:none;stroke-dashoffset:0;stroke-opacity:1"
       id="path6780-3-5"
       cx="103.89305"
       cy="141.07222"
       r="4.4097219"
       inkscape:transform-center-x="40.216667"
       inkscape:transform-center-y="29.104167" />
    <circle
       style="fill:#ffffff;fill-opacity:1;stroke:#707070;stroke-width:0.64600009;stroke-miterlimit:4;stroke-dasharray:none;stroke-dashoffset:0;stroke-opacity:1"
       id="path6780-3-5-1"
       cx="99.483337"
       cy="155.71249"
       r="4.4097219"
       inkscape:transform-center-x="40.216667"
       inkscape:transform-center-y="29.104167" />
    <circle
       style="fill:#ffffff;fill-opacity:1;stroke:#707070;stroke-width:0.64600009;stroke-miterlimit:4;stroke-dasharray:none;stroke-dashoffset:0;stroke-opacity:1"
       id="path6780-3-5-7"
       cx="116.76945"
       cy="147.24583"
       r="4.4097219"
       inkscape:transform-center-x="40.216667"
       inkscape:transform-center-y="29.104167" />
    <circle
       style="fill:#ffffff;fill-opacity:1;stroke:#707070;stroke-width:0.64600009;stroke-miterlimit:4;stroke-dasharray:none;stroke-dashoffset:0;stroke-opacity:1"
       id="path6780-3-5-5"
       cx="150.28334"
       cy="112.14442"
       r="4.4097219"
       inkscape:transform-center-x="40.216667"
       inkscape:transform-center-y="29.104167" />
    <circle
       style="fill:#ffffff;fill-opacity:1;stroke:#707070;stroke-width:0.64600009;stroke-miterlimit:4;stroke-dasharray:none;stroke-dashoffset:0;stroke-opacity:1"
       id="path6780-3-5-71"
       cx="164.57083"
       cy="127.49026"
       r="4.4097219"
       inkscape:transform-center-x="40.216667"
       inkscape:transform-center-y="29.104167" />
    <circle
       style="fill:#ffffff;fill-opacity:1;stroke:#707070;stroke-width:0.64600009;stroke-miterlimit:4;stroke-dasharray:none;stroke-dashoffset:0;stroke-opacity:1"
       id="path6780-3-5-6"
       cx="156.63333"
       cy="146.1875"
       r="4.4097219"
       inkscape:transform-center-x="40.216667"
       inkscape:transform-center-y="29.104167" />
    <path
       style="fill:none;fill-rule:evenodd;stroke:#000000;stroke-width:0.465;stroke-linecap:butt;stroke-linejoin:miter;stroke-miterlimit:4;stroke-dasharray:1.86, 1.86;stroke-dashoffset:0;stroke-opacity:1"
       d="M 138.11253,91.683334 V 166.29584"
       id="path6899"
       inkscape:connector-curvature="0" />
    <rect
       style="fill:#ffffff;fill-opacity:0.97706419;stroke:none;stroke-width:0.26499999;stroke-miterlimit:4;stroke-dasharray:none;stroke-dashoffset:0;stroke-opacity:1"
       id="rect7003"
       width="21.872221"
       height="3.3513889"
       x="127.17638"
       y="148.65697" />
    <text
       xml:space="preserve"
       style="font-style:normal;font-variant:normal;font-weight:normal;font-stretch:normal;font-size:10.58333302px;line-height:125%;font-family:'Liberation Sans';-inkscape-font-specification:'Liberation Sans, Normal';font-variant-ligatures:normal;font-variant-caps:normal;font-variant-numeric:normal;font-feature-settings:normal;text-align:start;letter-spacing:0px;word-spacing:0px;writing-mode:lr-tb;text-anchor:start;fill:#000000;fill-opacity:1;stroke:none;stroke-width:0.26458332px;stroke-linecap:butt;stroke-linejoin:miter;stroke-opacity:1"
       x="143.93333"
       y="98.386116"
       id="text6903"><tspan
         sodipodi:role="line"
         id="tspan6901"
         x="143.93333"
         y="98.386116"
         style="font-style:normal;font-variant:normal;font-weight:normal;font-stretch:normal;font-size:4.93888903px;font-family:'Liberation Sans';-inkscape-font-specification:'Liberation Sans, Normal';font-variant-ligatures:normal;font-variant-caps:normal;font-variant-numeric:normal;font-feature-settings:normal;text-align:start;writing-mode:lr-tb;text-anchor:start;stroke-width:0.26458332px">New cases</tspan></text>
    <path
       style="fill:none;fill-rule:evenodd;stroke:#7d7d7d;stroke-width:0.565;stroke-linecap:butt;stroke-linejoin:miter;stroke-miterlimit:4;stroke-dasharray:none;stroke-opacity:1"
       d="m 152.22361,146.01111 -27.34027,1.23472"
       id="path6915"
       inkscape:connector-curvature="0" />
    <text
       xml:space="preserve"
       style="font-style:normal;font-variant:normal;font-weight:normal;font-stretch:normal;font-size:10.58333302px;line-height:125%;font-family:'Liberation Sans';-inkscape-font-specification:'Liberation Sans, Normal';font-variant-ligatures:normal;font-variant-caps:normal;font-variant-numeric:normal;font-feature-settings:normal;text-align:start;letter-spacing:0px;word-spacing:0px;writing-mode:lr-tb;text-anchor:start;fill:#000000;fill-opacity:1;stroke:none;stroke-width:0.26458332px;stroke-linecap:butt;stroke-linejoin:miter;stroke-opacity:1"
       x="110.90987"
       y="105.12995"
       id="text6903-7"
       transform="rotate(4)"><tspan
         sodipodi:role="line"
         x="110.90987"
         y="105.12995"
         style="font-style:normal;font-variant:normal;font-weight:normal;font-stretch:normal;font-size:3.17499995px;font-family:'Liberation Sans';-inkscape-font-specification:'Liberation Sans, Normal';font-variant-ligatures:normal;font-variant-caps:normal;font-variant-numeric:normal;font-feature-settings:normal;text-align:start;writing-mode:lr-tb;text-anchor:start;fill:#000000;fill-opacity:1;stroke-width:0.26458332px"
         id="tspan6978">Genetic similarity</tspan></text>
    <path
       style="fill:none;fill-rule:evenodd;stroke:#7d7d7d;stroke-width:0.565;stroke-linecap:butt;stroke-linejoin:miter;stroke-miterlimit:4;stroke-dasharray:none;stroke-opacity:1"
       d="m 145.69722,111.43889 -50.270832,-3.3514"
       id="path7020"
       inkscape:connector-curvature="0"
       sodipodi:nodetypes="cc" />
    <text
       xml:space="preserve"
       style="font-style:normal;font-variant:normal;font-weight:normal;font-stretch:normal;font-size:10.58333302px;line-height:125%;font-family:'Liberation Sans';-inkscape-font-specification:'Liberation Sans, Normal';font-variant-ligatures:normal;font-variant-caps:normal;font-variant-numeric:normal;font-feature-settings:normal;text-align:start;letter-spacing:0px;word-spacing:0px;writing-mode:lr-tb;text-anchor:start;fill:#000000;fill-opacity:1;stroke:none;stroke-width:0.26458332px;stroke-linecap:butt;stroke-linejoin:miter;stroke-opacity:1"
       x="103.51582"
       y="98.120674"
       id="text6903-2"><tspan
         sodipodi:role="line"
         id="tspan6901-6"
         x="103.51582"
         y="98.120674"
         style="font-style:normal;font-variant:normal;font-weight:normal;font-stretch:normal;font-size:4.93888903px;font-family:'Liberation Sans';-inkscape-font-specification:'Liberation Sans, Normal';font-variant-ligatures:normal;font-variant-caps:normal;font-variant-numeric:normal;font-feature-settings:normal;text-align:start;writing-mode:lr-tb;text-anchor:start;stroke-width:0.26458332px">Known cases</tspan></text>
  </g>
</svg>
