<?xml version="1.0" encoding="UTF-8"?>
<svg xmlns="http://www.w3.org/2000/svg" xmlns:xlink="http://www.w3.org/1999/xlink" width="547" height="259" viewBox="0 0 547 259">
<rect x="-54.7" y="-25.9" width="656.4" height="310.8" fill="rgb(100%, 100%, 100%)" fill-opacity="1"/>
<rect x="-54.7" y="-25.9" width="656.4" height="310.8" fill="rgb(100%, 100%, 100%)" fill-opacity="1"/>
<path fill="none" stroke-width="3" stroke-linecap="round" stroke-linejoin="round" stroke="rgb(39.99939%, 39.99939%, 39.99939%)" stroke-opacity="1" stroke-miterlimit="10" d="M 220.285156 295.441406 L 246.5 252 " transform="matrix(1, 0, 0, 1, -105, -218)"/>
<path fill="none" stroke-width="3" stroke-linecap="round" stroke-linejoin="round" stroke="rgb(39.99939%, 39.99939%, 39.99939%)" stroke-opacity="1" stroke-miterlimit="10" d="M 176 243.5 L 203.492188 295 " transform="matrix(1, 0, 0, 1, -105, -218)"/>
<path fill-rule="nonzero" fill="rgb(100%, 100%, 100%)" fill-opacity="1" stroke-width="2" stroke-linecap="round" stroke-linejoin="round" stroke="rgb(0%, 0%, 0%)" stroke-opacity="1" stroke-miterlimit="10" d="M 187.726562 229.773438 C 194.757812 236.800781 194.757812 248.199219 187.726562 255.226562 C 180.699219 262.257812 169.300781 262.257812 162.273438 255.226562 C 155.242188 248.199219 155.242188 236.800781 162.273438 229.773438 C 169.300781 222.742188 180.699219 222.742188 187.726562 229.773438 " transform="matrix(1, 0, 0, 1, -105, -218)"/>
<path fill-rule="nonzero" fill="rgb(100%, 100%, 100%)" fill-opacity="1" stroke-width="2" stroke-linecap="round" stroke-linejoin="round" stroke="rgb(0%, 0%, 0%)" stroke-opacity="1" stroke-miterlimit="10" d="M 136.726562 272.773438 C 143.757812 279.800781 143.757812 291.199219 136.726562 298.226562 C 129.699219 305.257812 118.300781 305.257812 111.273438 298.226562 C 104.242188 291.199219 104.242188 279.800781 111.273438 272.773438 C 118.300781 265.742188 129.699219 265.742188 136.726562 272.773438 " transform="matrix(1, 0, 0, 1, -105, -218)"/>
<path fill-rule="nonzero" fill="rgb(100%, 100%, 100%)" fill-opacity="1" stroke-width="2" stroke-linecap="round" stroke-linejoin="round" stroke="rgb(0%, 0%, 0%)" stroke-opacity="1" stroke-miterlimit="10" d="M 163.367188 318.628906 C 170.398438 325.65625 170.398438 337.054688 163.367188 344.085938 C 156.339844 351.113281 144.941406 351.113281 137.910156 344.085938 C 130.882812 337.054688 130.882812 325.65625 137.910156 318.628906 C 144.941406 311.597656 156.339844 311.597656 163.367188 318.628906 " transform="matrix(1, 0, 0, 1, -105, -218)"/>
<path fill-rule="nonzero" fill="rgb(100%, 100%, 100%)" fill-opacity="1" stroke-width="2" stroke-linecap="round" stroke-linejoin="round" stroke="rgb(0%, 0%, 0%)" stroke-opacity="1" stroke-miterlimit="10" d="M 224.226562 297.273438 C 231.257812 304.300781 231.257812 315.699219 224.226562 322.726562 C 217.199219 329.757812 205.800781 329.757812 198.773438 322.726562 C 191.742188 315.699219 191.742188 304.300781 198.773438 297.273438 C 205.800781 290.242188 217.199219 290.242188 224.226562 297.273438 " transform="matrix(1, 0, 0, 1, -105, -218)"/>
<path fill-rule="nonzero" fill="rgb(100%, 100%, 100%)" fill-opacity="1" stroke-width="2" stroke-linecap="round" stroke-linejoin="round" stroke="rgb(0%, 0%, 0%)" stroke-opacity="1" stroke-miterlimit="10" d="M 257.226562 237.273438 C 264.257812 244.300781 264.257812 255.699219 257.226562 262.726562 C 250.199219 269.757812 238.800781 269.757812 231.773438 262.726562 C 224.742188 255.699219 224.742188 244.300781 231.773438 237.273438 C 238.800781 230.242188 250.199219 230.242188 257.226562 237.273438 " transform="matrix(1, 0, 0, 1, -105, -218)"/>
<path fill-rule="nonzero" fill="rgb(100%, 100%, 100%)" fill-opacity="1" stroke-width="2" stroke-linecap="round" stroke-linejoin="round" stroke="rgb(0%, 0%, 0%)" stroke-opacity="1" stroke-miterlimit="10" d="M 224.226562 373.773438 C 231.257812 380.800781 231.257812 392.199219 224.226562 399.226562 C 217.199219 406.257812 205.800781 406.257812 198.773438 399.226562 C 191.742188 392.199219 191.742188 380.800781 198.773438 373.773438 C 205.800781 366.742188 217.199219 366.742188 224.226562 373.773438 " transform="matrix(1, 0, 0, 1, -105, -218)"/>
<path fill-rule="nonzero" fill="rgb(100%, 100%, 100%)" fill-opacity="1" stroke-width="2" stroke-linecap="round" stroke-linejoin="round" stroke="rgb(0%, 0%, 0%)" stroke-opacity="1" stroke-miterlimit="10" d="M 289.726562 321.273438 C 296.757812 328.300781 296.757812 339.699219 289.726562 346.726562 C 282.699219 353.757812 271.300781 353.757812 264.273438 346.726562 C 257.242188 339.699219 257.242188 328.300781 264.273438 321.273438 C 271.300781 314.242188 282.699219 314.242188 289.726562 321.273438 " transform="matrix(1, 0, 0, 1, -105, -218)"/>
<path fill-rule="nonzero" fill="rgb(100%, 100%, 100%)" fill-opacity="1" stroke-width="2" stroke-linecap="round" stroke-linejoin="round" stroke="rgb(0%, 0%, 0%)" stroke-opacity="1" stroke-miterlimit="10" d="M 295.808594 395.191406 C 302.957031 388.285156 314.355469 388.484375 321.257812 395.636719 C 328.164062 402.789062 327.964844 414.183594 320.816406 421.089844 C 313.664062 427.996094 302.269531 427.796875 295.363281 420.644531 C 288.457031 413.492188 288.65625 402.097656 295.808594 395.191406 " transform="matrix(1, 0, 0, 1, -105, -218)"/>
<path fill-rule="nonzero" fill="rgb(100%, 100%, 100%)" fill-opacity="1" stroke-width="2" stroke-linecap="round" stroke-linejoin="round" stroke="rgb(0%, 0%, 0%)" stroke-opacity="1" stroke-miterlimit="10" d="M 242.808594 414.035156 C 249.957031 407.128906 261.355469 407.328125 268.257812 414.480469 C 275.164062 421.632812 274.964844 433.027344 267.816406 439.933594 C 260.664062 446.839844 249.269531 446.640625 242.363281 439.488281 C 235.457031 432.335938 235.65625 420.941406 242.808594 414.035156 " transform="matrix(1, 0, 0, 1, -105, -218)"/>
<path fill-rule="nonzero" fill="rgb(100%, 100%, 100%)" fill-opacity="1" stroke-width="2" stroke-linecap="round" stroke-linejoin="round" stroke="rgb(0%, 0%, 0%)" stroke-opacity="1" stroke-miterlimit="10" d="M 138.859375 395.191406 C 146.007812 388.285156 157.40625 388.484375 164.308594 395.636719 C 171.214844 402.789062 171.015625 414.183594 163.867188 421.089844 C 156.714844 427.996094 145.320312 427.796875 138.414062 420.644531 C 131.507812 413.492188 131.707031 402.097656 138.859375 395.191406 " transform="matrix(1, 0, 0, 1, -105, -218)"/>
<path fill-rule="nonzero" fill="rgb(100%, 100%, 100%)" fill-opacity="1" stroke-width="2" stroke-linecap="round" stroke-linejoin="round" stroke="rgb(0%, 0%, 0%)" stroke-opacity="1" stroke-miterlimit="10" d="M 183.808594 434.363281 C 190.957031 427.457031 202.355469 427.65625 209.257812 434.808594 C 216.164062 441.957031 215.964844 453.355469 208.816406 460.257812 C 201.664062 467.164062 190.269531 466.964844 183.363281 459.816406 C 176.457031 452.664062 176.65625 441.269531 183.808594 434.363281 " transform="matrix(1, 0, 0, 1, -105, -218)"/>
<path fill="none" stroke-width="3" stroke-linecap="round" stroke-linejoin="round" stroke="rgb(39.99939%, 39.99939%, 39.99939%)" stroke-opacity="1" stroke-miterlimit="10" d="M 138.527344 273.253906 L 160.472656 254.746094 " transform="matrix(1, 0, 0, 1, -105, -218)"/>
<path fill="none" stroke-width="3" stroke-linecap="round" stroke-linejoin="round" stroke="rgb(39.99939%, 39.99939%, 39.99939%)" stroke-opacity="1" stroke-miterlimit="10" d="M 193.890625 244.539062 L 225.609375 247.960938 " transform="matrix(1, 0, 0, 1, -105, -218)"/>
<path fill="none" stroke-width="3" stroke-linecap="round" stroke-linejoin="round" stroke="rgb(39.99939%, 39.99939%, 39.99939%)" stroke-opacity="1" stroke-miterlimit="10" d="M 142.300781 290.625 L 193.199219 304.875 " transform="matrix(1, 0, 0, 1, -105, -218)"/>
<path fill="none" stroke-width="3" stroke-linecap="round" stroke-linejoin="round" stroke="rgb(39.99939%, 39.99939%, 39.99939%)" stroke-opacity="1" stroke-miterlimit="10" d="M 229.34375 316.539062 L 259.15625 327.460938 " transform="matrix(1, 0, 0, 1, -105, -218)"/>
<path fill="none" stroke-width="3" stroke-linecap="round" stroke-linejoin="round" stroke="rgb(39.99939%, 39.99939%, 39.99939%)" stroke-opacity="1" stroke-miterlimit="10" d="M 211.5 329 L 211.5 367.5 " transform="matrix(1, 0, 0, 1, -105, -218)"/>
<path fill="none" stroke-width="3" stroke-linecap="round" stroke-linejoin="round" stroke="rgb(39.99939%, 39.99939%, 39.99939%)" stroke-opacity="1" stroke-miterlimit="10" d="M 226.328125 374.617188 L 262.171875 345.882812 " transform="matrix(1, 0, 0, 1, -105, -218)"/>
<path fill="none" stroke-width="3" stroke-linecap="round" stroke-linejoin="round" stroke="rgb(39.99939%, 39.99939%, 39.99939%)" stroke-opacity="1" stroke-miterlimit="10" d="M 155.664062 313.03125 L 169.976562 260.828125 " transform="matrix(1, 0, 0, 1, -105, -218)"/>
<path fill="none" stroke-width="3" stroke-linecap="round" stroke-linejoin="round" stroke="rgb(39.99939%, 39.99939%, 39.99939%)" stroke-opacity="1" stroke-miterlimit="10" d="M 168.570312 325.0625 L 193.566406 316.292969 " transform="matrix(1, 0, 0, 1, -105, -218)"/>
<path fill="none" stroke-width="3" stroke-linecap="round" stroke-linejoin="round" stroke="rgb(39.99939%, 39.99939%, 39.99939%)" stroke-opacity="1" stroke-miterlimit="10" d="M 290.40625 414.507812 L 273.21875 420.617188 " transform="matrix(1, 0, 0, 1, -105, -218)"/>
<path fill="none" stroke-width="3" stroke-linecap="round" stroke-linejoin="round" stroke="rgb(39.99939%, 39.99939%, 39.99939%)" stroke-opacity="1" stroke-miterlimit="10" d="M 206.894531 404.9375 L 200.917969 428.875 " transform="matrix(1, 0, 0, 1, -105, -218)"/>
<path fill="none" stroke-width="3" stroke-linecap="round" stroke-linejoin="round" stroke="rgb(39.99939%, 39.99939%, 39.99939%)" stroke-opacity="1" stroke-miterlimit="10" d="M 236.613281 423.59375 L 170.058594 411.53125 " transform="matrix(1, 0, 0, 1, -105, -218)"/>
<path fill="none" stroke-width="3" stroke-linecap="round" stroke-linejoin="round" stroke="rgb(39.99939%, 39.99939%, 39.99939%)" stroke-opacity="1" stroke-miterlimit="10" d="M 193.617188 392.933594 L 169.246094 401.707031 " transform="matrix(1, 0, 0, 1, -105, -218)"/>
<path fill="none" stroke-width="3" stroke-linecap="round" stroke-linejoin="round" stroke="rgb(39.99939%, 39.99939%, 39.99939%)" stroke-opacity="1" stroke-miterlimit="10" d="M 272.683594 352.503906 L 259.628906 408.480469 " transform="matrix(1, 0, 0, 1, -105, -218)"/>
<path fill="none" stroke-width="3" stroke-linecap="round" stroke-linejoin="round" stroke="rgb(39.99939%, 39.99939%, 39.99939%)" stroke-opacity="1" stroke-miterlimit="10" d="M 164.71875 344.113281 L 197.417969 373.742188 " transform="matrix(1, 0, 0, 1, -105, -218)"/>
<path fill="none" stroke-width="3" stroke-linecap="round" stroke-linejoin="round" stroke="rgb(39.99939%, 39.99939%, 39.99939%)" stroke-opacity="1" stroke-miterlimit="10" d="M 157.605469 349.039062 L 189.347656 429.628906 " transform="matrix(1, 0, 0, 1, -105, -218)"/>
<path fill="none" stroke-width="3" stroke-linecap="round" stroke-linejoin="round" stroke="rgb(39.99939%, 39.99939%, 39.99939%)" stroke-opacity="1" stroke-miterlimit="10" d="M 150.820312 350.355469 L 151.183594 389.140625 " transform="matrix(1, 0, 0, 1, -105, -218)"/>
<path fill="none" stroke-width="3" stroke-linecap="round" stroke-linejoin="round" stroke="rgb(39.99939%, 39.99939%, 39.99939%)" stroke-opacity="1" stroke-miterlimit="10" d="M 284.394531 351.507812 L 300.917969 390.632812 " transform="matrix(1, 0, 0, 1, -105, -218)"/>
<path fill="none" stroke-width="3" stroke-linecap="round" stroke-linejoin="round" stroke="rgb(39.99939%, 39.99939%, 39.99939%)" stroke-opacity="1" stroke-miterlimit="10" d="M 230.042969 390.644531 L 289.765625 403.996094 " transform="matrix(1, 0, 0, 1, -105, -218)"/>
<path fill="none" stroke-width="3" stroke-linecap="round" stroke-linejoin="round" stroke="rgb(39.99939%, 39.99939%, 39.99939%)" stroke-opacity="1" stroke-miterlimit="10" d="M 165.6875 420.625 L 181.988281 434.828125 " transform="matrix(1, 0, 0, 1, -105, -218)"/>
<path fill="none" stroke-width="3" stroke-linecap="round" stroke-linejoin="round" stroke="rgb(39.99939%, 39.99939%, 39.99939%)" stroke-opacity="1" stroke-miterlimit="10" d="M 527.414062 390.785156 L 510.132812 417.382812 " transform="matrix(1, 0, 0, 1, -105, -218)"/>
<path fill="none" stroke-width="3" stroke-linecap="round" stroke-linejoin="round" stroke="rgb(39.99939%, 39.99939%, 39.99939%)" stroke-opacity="1" stroke-miterlimit="10" d="M 583.3125 443.664062 L 547.148438 389.03125 " transform="matrix(1, 0, 0, 1, -105, -218)"/>
<path fill-rule="nonzero" fill="rgb(100%, 100%, 100%)" fill-opacity="1" stroke-width="2" stroke-linecap="round" stroke-linejoin="round" stroke="rgb(0%, 0%, 0%)" stroke-opacity="1" stroke-miterlimit="10" d="M 577.789062 469.765625 C 570.0625 463.511719 568.871094 452.175781 575.128906 444.449219 C 581.382812 436.722656 592.71875 435.53125 600.445312 441.789062 C 608.171875 448.046875 609.363281 459.378906 603.105469 467.105469 C 596.847656 474.832031 585.515625 476.023438 577.789062 469.765625 " transform="matrix(1, 0, 0, 1, -105, -218)"/>
<path fill-rule="nonzero" fill="rgb(100%, 100%, 100%)" fill-opacity="1" stroke-width="2" stroke-linecap="round" stroke-linejoin="round" stroke="rgb(0%, 0%, 0%)" stroke-opacity="1" stroke-miterlimit="10" d="M 619.457031 423.808594 C 611.730469 417.550781 610.539062 406.214844 616.792969 398.492188 C 623.050781 390.765625 634.386719 389.574219 642.109375 395.828125 C 649.835938 402.085938 651.027344 413.421875 644.773438 421.144531 C 638.515625 428.871094 627.179688 430.0625 619.457031 423.808594 " transform="matrix(1, 0, 0, 1, -105, -218)"/>
<path fill-rule="nonzero" fill="rgb(100%, 100%, 100%)" fill-opacity="1" stroke-width="2" stroke-linecap="round" stroke-linejoin="round" stroke="rgb(0%, 0%, 0%)" stroke-opacity="1" stroke-miterlimit="10" d="M 594.460938 376.011719 C 586.738281 369.753906 585.546875 358.417969 591.800781 350.695312 C 598.058594 342.96875 609.390625 341.777344 617.117188 348.03125 C 624.84375 354.289062 626.035156 365.625 619.777344 373.347656 C 613.523438 381.074219 602.1875 382.265625 594.460938 376.011719 " transform="matrix(1, 0, 0, 1, -105, -218)"/>
<path fill-rule="nonzero" fill="rgb(100%, 100%, 100%)" fill-opacity="1" stroke-width="2" stroke-linecap="round" stroke-linejoin="round" stroke="rgb(0%, 0%, 0%)" stroke-opacity="1" stroke-miterlimit="10" d="M 526.4375 388.839844 C 518.710938 382.582031 517.519531 371.246094 523.777344 363.523438 C 530.03125 355.796875 541.367188 354.605469 549.09375 360.863281 C 556.820312 367.117188 558.007812 378.453125 551.753906 386.179688 C 545.496094 393.902344 534.164062 395.09375 526.4375 388.839844 " transform="matrix(1, 0, 0, 1, -105, -218)"/>
<path fill-rule="nonzero" fill="rgb(100%, 100%, 100%)" fill-opacity="1" stroke-width="2" stroke-linecap="round" stroke-linejoin="round" stroke="rgb(0%, 0%, 0%)" stroke-opacity="1" stroke-miterlimit="10" d="M 488.457031 447.308594 C 480.730469 441.050781 479.539062 429.714844 485.792969 421.992188 C 492.050781 414.265625 503.386719 413.074219 511.109375 419.328125 C 518.835938 425.585938 520.027344 436.921875 513.773438 444.644531 C 507.515625 452.371094 496.179688 453.5625 488.457031 447.308594 " transform="matrix(1, 0, 0, 1, -105, -218)"/>
<path fill-rule="nonzero" fill="rgb(100%, 100%, 100%)" fill-opacity="1" stroke-width="2" stroke-linecap="round" stroke-linejoin="round" stroke="rgb(0%, 0%, 0%)" stroke-opacity="1" stroke-miterlimit="10" d="M 526.4375 330.371094 C 518.710938 324.113281 517.519531 312.78125 523.777344 305.054688 C 530.03125 297.328125 541.367188 296.136719 549.09375 302.394531 C 556.820312 308.648438 558.007812 319.984375 551.753906 327.710938 C 545.496094 335.433594 534.164062 336.625 526.4375 330.371094 " transform="matrix(1, 0, 0, 1, -105, -218)"/>
<path fill-rule="nonzero" fill="rgb(100%, 100%, 100%)" fill-opacity="1" stroke-width="2" stroke-linecap="round" stroke-linejoin="round" stroke="rgb(0%, 0%, 0%)" stroke-opacity="1" stroke-miterlimit="10" d="M 466.785156 389.429688 C 459.058594 383.171875 457.867188 371.839844 464.121094 364.113281 C 470.378906 356.386719 481.714844 355.195312 489.4375 361.453125 C 497.164062 367.707031 498.355469 379.042969 492.101562 386.769531 C 485.84375 394.496094 474.507812 395.6875 466.785156 389.429688 " transform="matrix(1, 0, 0, 1, -105, -218)"/>
<path fill-rule="nonzero" fill="rgb(100%, 100%, 100%)" fill-opacity="1" stroke-width="2" stroke-linecap="round" stroke-linejoin="round" stroke="rgb(0%, 0%, 0%)" stroke-opacity="1" stroke-miterlimit="10" d="M 473.289062 315.605469 C 466.898438 323.21875 455.546875 324.214844 447.929688 317.824219 C 440.316406 311.433594 439.320312 300.078125 445.710938 292.464844 C 452.101562 284.847656 463.457031 283.855469 471.070312 290.246094 C 478.6875 296.636719 479.679688 307.988281 473.289062 315.605469 " transform="matrix(1, 0, 0, 1, -105, -218)"/>
<path fill-rule="nonzero" fill="rgb(100%, 100%, 100%)" fill-opacity="1" stroke-width="2" stroke-linecap="round" stroke-linejoin="round" stroke="rgb(0%, 0%, 0%)" stroke-opacity="1" stroke-miterlimit="10" d="M 520.289062 275.105469 C 513.898438 282.722656 502.546875 283.714844 494.929688 277.324219 C 487.316406 270.933594 486.320312 259.582031 492.710938 251.964844 C 499.101562 244.351562 510.457031 243.355469 518.070312 249.746094 C 525.6875 256.136719 526.679688 267.492188 520.289062 275.105469 " transform="matrix(1, 0, 0, 1, -105, -218)"/>
<path fill-rule="nonzero" fill="rgb(100%, 100%, 100%)" fill-opacity="1" stroke-width="2" stroke-linecap="round" stroke-linejoin="round" stroke="rgb(0%, 0%, 0%)" stroke-opacity="1" stroke-miterlimit="10" d="M 619.863281 302.632812 C 613.472656 310.25 602.117188 311.242188 594.503906 304.851562 C 586.886719 298.460938 585.894531 287.109375 592.285156 279.492188 C 598.675781 271.878906 610.027344 270.886719 617.644531 277.273438 C 625.257812 283.664062 626.25 295.019531 619.863281 302.632812 " transform="matrix(1, 0, 0, 1, -105, -218)"/>
<path fill-rule="nonzero" fill="rgb(100%, 100%, 100%)" fill-opacity="1" stroke-width="2" stroke-linecap="round" stroke-linejoin="round" stroke="rgb(0%, 0%, 0%)" stroke-opacity="1" stroke-miterlimit="10" d="M 569.050781 250.570312 C 562.660156 258.1875 551.308594 259.179688 543.691406 252.789062 C 536.074219 246.398438 535.082031 235.046875 541.472656 227.429688 C 547.863281 219.816406 559.214844 218.820312 566.832031 225.210938 C 574.445312 231.601562 575.441406 242.957031 569.050781 250.570312 " transform="matrix(1, 0, 0, 1, -105, -218)"/>
<path fill="none" stroke-width="3" stroke-linecap="round" stroke-linejoin="round" stroke="rgb(39.99939%, 39.99939%, 39.99939%)" stroke-opacity="1" stroke-miterlimit="10" d="M 618.019531 423.894531 L 601.878906 441.699219 " transform="matrix(1, 0, 0, 1, -105, -218)"/>
<path fill="none" stroke-width="3" stroke-linecap="round" stroke-linejoin="round" stroke="rgb(39.99939%, 39.99939%, 39.99939%)" stroke-opacity="1" stroke-miterlimit="10" d="M 570.6875 451.144531 L 518.214844 437.953125 " transform="matrix(1, 0, 0, 1, -105, -218)"/>
<path fill="none" stroke-width="3" stroke-linecap="round" stroke-linejoin="round" stroke="rgb(39.99939%, 39.99939%, 39.99939%)" stroke-opacity="1" stroke-miterlimit="10" d="M 612.992188 403.128906 L 555.554688 381.539062 " transform="matrix(1, 0, 0, 1, -105, -218)"/>
<path fill="none" stroke-width="3" stroke-linecap="round" stroke-linejoin="round" stroke="rgb(39.99939%, 39.99939%, 39.99939%)" stroke-opacity="1" stroke-miterlimit="10" d="M 518.765625 375.039062 L 497.109375 375.253906 " transform="matrix(1, 0, 0, 1, -105, -218)"/>
<path fill="none" stroke-width="3" stroke-linecap="round" stroke-linejoin="round" stroke="rgb(39.99939%, 39.99939%, 39.99939%)" stroke-opacity="1" stroke-miterlimit="10" d="M 537.765625 355.847656 L 537.765625 335.382812 " transform="matrix(1, 0, 0, 1, -105, -218)"/>
<path fill="none" stroke-width="3" stroke-linecap="round" stroke-linejoin="round" stroke="rgb(39.99939%, 39.99939%, 39.99939%)" stroke-opacity="1" stroke-miterlimit="10" d="M 524.261719 329.75 L 491.613281 362.074219 " transform="matrix(1, 0, 0, 1, -105, -218)"/>
<path fill="none" stroke-width="3" stroke-linecap="round" stroke-linejoin="round" stroke="rgb(39.99939%, 39.99939%, 39.99939%)" stroke-opacity="1" stroke-miterlimit="10" d="M 602.464844 380.730469 L 592.445312 437.066406 " transform="matrix(1, 0, 0, 1, -105, -218)"/>
<path fill="none" stroke-width="3" stroke-linecap="round" stroke-linejoin="round" stroke="rgb(39.99939%, 39.99939%, 39.99939%)" stroke-opacity="1" stroke-miterlimit="10" d="M 587.117188 365.542969 L 556.4375 371.328125 " transform="matrix(1, 0, 0, 1, -105, -218)"/>
<path fill="none" stroke-width="3" stroke-linecap="round" stroke-linejoin="round" stroke="rgb(39.99939%, 39.99939%, 39.99939%)" stroke-opacity="1" stroke-miterlimit="10" d="M 473.894531 291.628906 L 492.105469 275.941406 " transform="matrix(1, 0, 0, 1, -105, -218)"/>
<path fill="none" stroke-width="3" stroke-linecap="round" stroke-linejoin="round" stroke="rgb(39.99939%, 39.99939%, 39.99939%)" stroke-opacity="1" stroke-miterlimit="10" d="M 541.957031 297.84375 L 551.070312 257.535156 " transform="matrix(1, 0, 0, 1, -105, -218)"/>
<path fill="none" stroke-width="3" stroke-linecap="round" stroke-linejoin="round" stroke="rgb(39.99939%, 39.99939%, 39.99939%)" stroke-opacity="1" stroke-miterlimit="10" d="M 524.816406 268.597656 L 587.753906 286 " transform="matrix(1, 0, 0, 1, -105, -218)"/>
<path fill="none" stroke-width="3" stroke-linecap="round" stroke-linejoin="round" stroke="rgb(39.99939%, 39.99939%, 39.99939%)" stroke-opacity="1" stroke-miterlimit="10" d="M 555.582031 309.777344 L 588.253906 297.667969 " transform="matrix(1, 0, 0, 1, -105, -218)"/>
<path fill="none" stroke-width="3" stroke-linecap="round" stroke-linejoin="round" stroke="rgb(39.99939%, 39.99939%, 39.99939%)" stroke-opacity="1" stroke-miterlimit="10" d="M 482.785156 357.019531 L 501.828125 281.957031 " transform="matrix(1, 0, 0, 1, -105, -218)"/>
<path fill="none" stroke-width="3" stroke-linecap="round" stroke-linejoin="round" stroke="rgb(39.99939%, 39.99939%, 39.99939%)" stroke-opacity="1" stroke-miterlimit="10" d="M 590.011719 351.433594 L 553.542969 326.96875 " transform="matrix(1, 0, 0, 1, -105, -218)"/>
<path fill="none" stroke-width="3" stroke-linecap="round" stroke-linejoin="round" stroke="rgb(39.99939%, 39.99939%, 39.99939%)" stroke-opacity="1" stroke-miterlimit="10" d="M 598.570312 344.441406 L 562.480469 256.578125 " transform="matrix(1, 0, 0, 1, -105, -218)"/>
<path fill="none" stroke-width="3" stroke-linecap="round" stroke-linejoin="round" stroke="rgb(39.99939%, 39.99939%, 39.99939%)" stroke-opacity="1" stroke-miterlimit="10" d="M 605.867188 343.019531 L 605.996094 310.0625 " transform="matrix(1, 0, 0, 1, -105, -218)"/>
<path fill="none" stroke-width="3" stroke-linecap="round" stroke-linejoin="round" stroke="rgb(39.99939%, 39.99939%, 39.99939%)" stroke-opacity="1" stroke-miterlimit="10" d="M 473.320312 357.054688 L 464.292969 322.421875 " transform="matrix(1, 0, 0, 1, -105, -218)"/>
<path fill="none" stroke-width="3" stroke-linecap="round" stroke-linejoin="round" stroke="rgb(39.99939%, 39.99939%, 39.99939%)" stroke-opacity="1" stroke-miterlimit="10" d="M 518.992188 313.421875 L 478.269531 306.996094 " transform="matrix(1, 0, 0, 1, -105, -218)"/>
<path fill="none" stroke-width="3" stroke-linecap="round" stroke-linejoin="round" stroke="rgb(39.99939%, 39.99939%, 39.99939%)" stroke-opacity="1" stroke-miterlimit="10" d="M 592.800781 277.464844 L 568.53125 252.597656 " transform="matrix(1, 0, 0, 1, -105, -218)"/>
<path fill-rule="nonzero" fill="rgb(100%, 100%, 100%)" fill-opacity="1" stroke-width="3" stroke-linecap="round" stroke-linejoin="round" stroke="rgb(66.275024%, 66.275024%, 66.275024%)" stroke-opacity="1" stroke-miterlimit="10" d="M 396.726562 343.773438 C 403.757812 350.800781 403.757812 362.199219 396.726562 369.226562 C 389.699219 376.257812 378.300781 376.257812 371.273438 369.226562 C 364.242188 362.199219 364.242188 350.800781 371.273438 343.773438 C 378.300781 336.742188 389.699219 336.742188 396.726562 343.773438 " transform="matrix(1, 0, 0, 1, -105, -218)"/>
<path fill="none" stroke-width="3" stroke-linecap="round" stroke-linejoin="round" stroke="rgb(66.275024%, 66.275024%, 66.275024%)" stroke-opacity="1" stroke-dasharray="6 6" stroke-miterlimit="10" d="M 443.894531 314.878906 L 400.015625 345.371094 " transform="matrix(1, 0, 0, 1, -105, -218)"/>
<path fill="none" stroke-width="3" stroke-linecap="round" stroke-linejoin="round" stroke="rgb(66.275024%, 66.275024%, 66.275024%)" stroke-opacity="1" stroke-dasharray="6 6" stroke-miterlimit="10" d="M 324.007812 397.429688 L 367.890625 367.492188 " transform="matrix(1, 0, 0, 1, -105, -218)"/>
<path fill="none" stroke-width="3" stroke-linecap="round" stroke-linejoin="round" stroke="rgb(39.99939%, 39.99939%, 39.99939%)" stroke-opacity="1" stroke-miterlimit="10" d="M 484.773438 393.238281 L 493.121094 415.523438 " transform="matrix(1, 0, 0, 1, -105, -218)"/>
</svg>
