<?xml version="1.0" encoding="UTF-8"?>
<svg xmlns="http://www.w3.org/2000/svg" xmlns:xlink="http://www.w3.org/1999/xlink" width="829" height="243" viewBox="0 0 829 243">
<rect x="-82.9" y="-24.3" width="994.8" height="291.6" fill="rgb(100%, 100%, 100%)" fill-opacity="1"/>
<rect x="-82.9" y="-24.3" width="994.8" height="291.6" fill="rgb(100%, 100%, 100%)" fill-opacity="1"/>
<path fill="none" stroke-width="5" stroke-linecap="round" stroke-linejoin="round" stroke="rgb(39.99939%, 39.99939%, 39.99939%)" stroke-opacity="1" stroke-miterlimit="10" d="M 79.5 328 L 902.828125 328 " transform="matrix(1, 0, 0, 1, -77, -309)"/>
<path fill="none" stroke-width="3" stroke-linecap="round" stroke-linejoin="round" stroke="rgb(0%, 58.824158%, 100%)" stroke-opacity="1" stroke-miterlimit="10" d="M 123.5 318.5 L 173.199219 318.5 L 164.140625 311.039062 " transform="matrix(1, 0, 0, 1, -77, -309)"/>
<path fill="none" stroke-width="3" stroke-linecap="round" stroke-linejoin="round" stroke="rgb(0%, 58.824158%, 100%)" stroke-opacity="1" stroke-miterlimit="10" d="M 300.300781 338.5 L 250.597656 338.5 L 259.660156 345.960938 " transform="matrix(1, 0, 0, 1, -77, -309)"/>
<path fill="none" stroke-width="5" stroke-linecap="round" stroke-linejoin="round" stroke="rgb(47.842407%, 50.588989%, 100%)" stroke-opacity="1" stroke-miterlimit="10" d="M 176 339 L 244.597656 339 " transform="matrix(1, 0, 0, 1, -77, -309)"/>
<path fill="none" stroke-width="5" stroke-linecap="round" stroke-linejoin="round" stroke="rgb(47.842407%, 50.588989%, 100%)" stroke-opacity="1" stroke-miterlimit="10" d="M 177 350 L 245.597656 350 " transform="matrix(1, 0, 0, 1, -77, -309)"/>
<path fill="none" stroke-width="5" stroke-linecap="round" stroke-linejoin="round" stroke="rgb(47.842407%, 50.588989%, 100%)" stroke-opacity="1" stroke-miterlimit="10" d="M 177 361 L 245.597656 361 " transform="matrix(1, 0, 0, 1, -77, -309)"/>
<path fill="none" stroke-width="5" stroke-linecap="round" stroke-linejoin="round" stroke="rgb(47.842407%, 50.588989%, 100%)" stroke-opacity="1" stroke-miterlimit="10" d="M 178 372 L 246.597656 372 " transform="matrix(1, 0, 0, 1, -77, -309)"/>
<path fill="none" stroke-width="5" stroke-linecap="round" stroke-linejoin="round" stroke="rgb(47.842407%, 50.588989%, 100%)" stroke-opacity="1" stroke-miterlimit="10" d="M 175 383 L 243.597656 383 " transform="matrix(1, 0, 0, 1, -77, -309)"/>
<path fill="none" stroke-width="5" stroke-linecap="round" stroke-linejoin="round" stroke="rgb(47.842407%, 50.588989%, 100%)" stroke-opacity="1" stroke-miterlimit="10" d="M 176 394 L 244.597656 394 " transform="matrix(1, 0, 0, 1, -77, -309)"/>
<path fill="none" stroke-width="5" stroke-linecap="round" stroke-linejoin="round" stroke="rgb(47.842407%, 50.588989%, 100%)" stroke-opacity="1" stroke-miterlimit="10" d="M 176 405 L 244.597656 405 " transform="matrix(1, 0, 0, 1, -77, -309)"/>
<path fill="none" stroke-width="5" stroke-linecap="round" stroke-linejoin="round" stroke="rgb(47.842407%, 50.588989%, 100%)" stroke-opacity="1" stroke-miterlimit="10" d="M 177 416 L 245.597656 416 " transform="matrix(1, 0, 0, 1, -77, -309)"/>
<path fill="none" stroke-width="5" stroke-linecap="round" stroke-linejoin="round" stroke="rgb(47.842407%, 50.588989%, 100%)" stroke-opacity="1" stroke-miterlimit="10" d="M 174 427 L 242.597656 427 " transform="matrix(1, 0, 0, 1, -77, -309)"/>
<path fill="none" stroke-width="5" stroke-linecap="round" stroke-linejoin="round" stroke="rgb(47.842407%, 50.588989%, 100%)" stroke-opacity="1" stroke-miterlimit="10" d="M 175 438 L 243.597656 438 " transform="matrix(1, 0, 0, 1, -77, -309)"/>
<path fill="none" stroke-width="5" stroke-linecap="round" stroke-linejoin="round" stroke="rgb(47.842407%, 50.588989%, 100%)" stroke-opacity="1" stroke-miterlimit="10" d="M 175 449 L 243.597656 449 " transform="matrix(1, 0, 0, 1, -77, -309)"/>
<path fill="none" stroke-width="5" stroke-linecap="round" stroke-linejoin="round" stroke="rgb(47.842407%, 50.588989%, 100%)" stroke-opacity="1" stroke-miterlimit="10" d="M 176 460 L 244.597656 460 " transform="matrix(1, 0, 0, 1, -77, -309)"/>
<path fill="none" stroke-width="5" stroke-linecap="round" stroke-linejoin="round" stroke="rgb(47.842407%, 50.588989%, 100%)" stroke-opacity="1" stroke-miterlimit="10" d="M 173 471 L 241.597656 471 " transform="matrix(1, 0, 0, 1, -77, -309)"/>
<path fill="none" stroke-width="5" stroke-linecap="round" stroke-linejoin="round" stroke="rgb(47.842407%, 50.588989%, 100%)" stroke-opacity="1" stroke-miterlimit="10" d="M 174 482 L 242.597656 482 " transform="matrix(1, 0, 0, 1, -77, -309)"/>
<path fill="none" stroke-width="5" stroke-linecap="round" stroke-linejoin="round" stroke="rgb(47.842407%, 50.588989%, 100%)" stroke-opacity="1" stroke-miterlimit="10" d="M 174 493 L 242.597656 493 " transform="matrix(1, 0, 0, 1, -77, -309)"/>
<path fill="none" stroke-width="5" stroke-linecap="round" stroke-linejoin="round" stroke="rgb(47.842407%, 50.588989%, 100%)" stroke-opacity="1" stroke-miterlimit="10" d="M 175 504 L 243.597656 504 " transform="matrix(1, 0, 0, 1, -77, -309)"/>
<path fill="none" stroke-width="5" stroke-linecap="round" stroke-linejoin="round" stroke="rgb(47.842407%, 50.588989%, 100%)" stroke-opacity="1" stroke-miterlimit="10" d="M 176 515 L 244.597656 515 " transform="matrix(1, 0, 0, 1, -77, -309)"/>
<path fill="none" stroke-width="5" stroke-linecap="round" stroke-linejoin="round" stroke="rgb(47.842407%, 50.588989%, 100%)" stroke-opacity="1" stroke-miterlimit="10" d="M 177 526 L 245.597656 526 " transform="matrix(1, 0, 0, 1, -77, -309)"/>
<path fill="none" stroke-width="5" stroke-linecap="round" stroke-linejoin="round" stroke="rgb(47.842407%, 50.588989%, 100%)" stroke-opacity="1" stroke-miterlimit="10" d="M 177 537 L 245.597656 537 " transform="matrix(1, 0, 0, 1, -77, -309)"/>
<path fill="none" stroke-width="5" stroke-linecap="round" stroke-linejoin="round" stroke="rgb(47.842407%, 50.588989%, 100%)" stroke-opacity="1" stroke-miterlimit="10" d="M 178 548 L 246.597656 548 " transform="matrix(1, 0, 0, 1, -77, -309)"/>
<path fill-rule="nonzero" fill="rgb(100%, 0%, 0%)" fill-opacity="1" d="M 135.726562 44.730469 L 141.523438 44.730469 L 141.523438 37.269531 L 135.726562 37.269531 Z M 135.726562 44.730469 "/>
<path fill-rule="nonzero" fill="rgb(100%, 0%, 0%)" fill-opacity="1" d="M 136.414062 121.730469 L 142.214844 121.730469 L 142.214844 114.269531 L 136.414062 114.269531 Z M 136.414062 121.730469 "/>
<path fill-rule="nonzero" fill="rgb(100%, 0%, 0%)" fill-opacity="1" d="M 136.617188 143.730469 L 142.417969 143.730469 L 142.417969 136.269531 L 136.617188 136.269531 Z M 136.617188 143.730469 "/>
<path fill="none" stroke-width="5" stroke-linecap="round" stroke-linejoin="round" stroke="rgb(47.842407%, 50.588989%, 100%)" stroke-opacity="1" stroke-miterlimit="10" d="M 398.445312 338.5 L 467.046875 338.5 " transform="matrix(1, 0, 0, 1, -77, -309)"/>
<path fill="none" stroke-width="5" stroke-linecap="round" stroke-linejoin="round" stroke="rgb(47.842407%, 50.588989%, 100%)" stroke-opacity="1" stroke-miterlimit="10" d="M 407.945312 349.5 L 476.546875 349.5 " transform="matrix(1, 0, 0, 1, -77, -309)"/>
<path fill="none" stroke-width="5" stroke-linecap="round" stroke-linejoin="round" stroke="rgb(47.842407%, 50.588989%, 100%)" stroke-opacity="1" stroke-miterlimit="10" d="M 407.945312 360.5 L 476.546875 360.5 " transform="matrix(1, 0, 0, 1, -77, -309)"/>
<path fill="none" stroke-width="5" stroke-linecap="round" stroke-linejoin="round" stroke="rgb(47.842407%, 50.588989%, 100%)" stroke-opacity="1" stroke-miterlimit="10" d="M 419.945312 371.5 L 488.546875 371.5 " transform="matrix(1, 0, 0, 1, -77, -309)"/>
<path fill="none" stroke-width="5" stroke-linecap="round" stroke-linejoin="round" stroke="rgb(47.842407%, 50.588989%, 100%)" stroke-opacity="1" stroke-miterlimit="10" d="M 423.445312 382.5 L 492.046875 382.5 " transform="matrix(1, 0, 0, 1, -77, -309)"/>
<path fill="none" stroke-width="5" stroke-linecap="round" stroke-linejoin="round" stroke="rgb(47.842407%, 50.588989%, 100%)" stroke-opacity="1" stroke-miterlimit="10" d="M 424.445312 393.5 L 493.046875 393.5 " transform="matrix(1, 0, 0, 1, -77, -309)"/>
<path fill="none" stroke-width="5" stroke-linecap="round" stroke-linejoin="round" stroke="rgb(47.842407%, 50.588989%, 100%)" stroke-opacity="1" stroke-miterlimit="10" d="M 424.445312 404.5 L 493.046875 404.5 " transform="matrix(1, 0, 0, 1, -77, -309)"/>
<path fill="none" stroke-width="5" stroke-linecap="round" stroke-linejoin="round" stroke="rgb(47.842407%, 50.588989%, 100%)" stroke-opacity="1" stroke-miterlimit="10" d="M 478.949219 338.5 L 547.550781 338.5 " transform="matrix(1, 0, 0, 1, -77, -309)"/>
<path fill="none" stroke-width="5" stroke-linecap="round" stroke-linejoin="round" stroke="rgb(47.842407%, 50.588989%, 100%)" stroke-opacity="1" stroke-miterlimit="10" d="M 484.449219 349.5 L 553.050781 349.5 " transform="matrix(1, 0, 0, 1, -77, -309)"/>
<path fill="none" stroke-width="5" stroke-linecap="round" stroke-linejoin="round" stroke="rgb(47.842407%, 50.588989%, 100%)" stroke-opacity="1" stroke-miterlimit="10" d="M 485.449219 360.5 L 554.050781 360.5 " transform="matrix(1, 0, 0, 1, -77, -309)"/>
<path fill="none" stroke-width="5" stroke-linecap="round" stroke-linejoin="round" stroke="rgb(47.842407%, 50.588989%, 100%)" stroke-opacity="1" stroke-miterlimit="10" d="M 496.449219 371.5 L 565.050781 371.5 " transform="matrix(1, 0, 0, 1, -77, -309)"/>
<path fill="none" stroke-width="5" stroke-linecap="round" stroke-linejoin="round" stroke="rgb(47.842407%, 50.588989%, 100%)" stroke-opacity="1" stroke-miterlimit="10" d="M 503.949219 382.5 L 572.550781 382.5 " transform="matrix(1, 0, 0, 1, -77, -309)"/>
<path fill="none" stroke-width="5" stroke-linecap="round" stroke-linejoin="round" stroke="rgb(47.842407%, 50.588989%, 100%)" stroke-opacity="1" stroke-miterlimit="10" d="M 500.949219 393.5 L 569.550781 393.5 " transform="matrix(1, 0, 0, 1, -77, -309)"/>
<path fill="none" stroke-width="5" stroke-linecap="round" stroke-linejoin="round" stroke="rgb(47.842407%, 50.588989%, 100%)" stroke-opacity="1" stroke-miterlimit="10" d="M 501.949219 404.5 L 570.550781 404.5 " transform="matrix(1, 0, 0, 1, -77, -309)"/>
<path fill="none" stroke-width="5" stroke-linecap="round" stroke-linejoin="round" stroke="rgb(47.842407%, 50.588989%, 100%)" stroke-opacity="1" stroke-miterlimit="10" d="M 501.949219 415.5 L 570.550781 415.5 " transform="matrix(1, 0, 0, 1, -77, -309)"/>
<path fill="none" stroke-width="5" stroke-linecap="round" stroke-linejoin="round" stroke="rgb(47.842407%, 50.588989%, 100%)" stroke-opacity="1" stroke-miterlimit="10" d="M 502.949219 426.5 L 571.550781 426.5 " transform="matrix(1, 0, 0, 1, -77, -309)"/>
<path fill="none" stroke-width="5" stroke-linecap="round" stroke-linejoin="round" stroke="rgb(47.842407%, 50.588989%, 100%)" stroke-opacity="1" stroke-miterlimit="10" d="M 507.949219 437.5 L 576.550781 437.5 " transform="matrix(1, 0, 0, 1, -77, -309)"/>
<path fill="none" stroke-width="5" stroke-linecap="round" stroke-linejoin="round" stroke="rgb(47.842407%, 50.588989%, 100%)" stroke-opacity="1" stroke-miterlimit="10" d="M 559.453125 338.5 L 628.054688 338.5 " transform="matrix(1, 0, 0, 1, -77, -309)"/>
<path fill="none" stroke-width="5" stroke-linecap="round" stroke-linejoin="round" stroke="rgb(47.842407%, 50.588989%, 100%)" stroke-opacity="1" stroke-miterlimit="10" d="M 564.953125 349.5 L 633.554688 349.5 " transform="matrix(1, 0, 0, 1, -77, -309)"/>
<path fill="none" stroke-width="5" stroke-linecap="round" stroke-linejoin="round" stroke="rgb(47.842407%, 50.588989%, 100%)" stroke-opacity="1" stroke-miterlimit="10" d="M 572.953125 360.5 L 641.554688 360.5 " transform="matrix(1, 0, 0, 1, -77, -309)"/>
<path fill-rule="nonzero" fill="rgb(100%, 0%, 0%)" fill-opacity="1" d="M 446.863281 44.230469 L 452.664062 44.230469 L 452.664062 36.769531 L 446.863281 36.769531 Z M 446.863281 44.230469 "/>
<path fill-rule="nonzero" fill="rgb(100%, 0%, 0%)" fill-opacity="1" d="M 447.300781 66.230469 L 453.097656 66.230469 L 453.097656 58.769531 L 447.300781 58.769531 Z M 447.300781 66.230469 "/>
<path fill="none" stroke-width="5" stroke-linecap="round" stroke-linejoin="round" stroke="rgb(47.842407%, 50.588989%, 100%)" stroke-opacity="1" stroke-miterlimit="10" d="M 640.214844 338.230469 L 708.8125 338.230469 " transform="matrix(1, 0, 0, 1, -77, -309)"/>
<path fill="none" stroke-width="5" stroke-linecap="round" stroke-linejoin="round" stroke="rgb(47.842407%, 50.588989%, 100%)" stroke-opacity="1" stroke-miterlimit="10" d="M 648.214844 349.230469 L 716.8125 349.230469 " transform="matrix(1, 0, 0, 1, -77, -309)"/>
<path fill="none" stroke-width="5" stroke-linecap="round" stroke-linejoin="round" stroke="rgb(47.842407%, 50.588989%, 100%)" stroke-opacity="1" stroke-miterlimit="10" d="M 514.761719 447.5 L 583.359375 447.5 " transform="matrix(1, 0, 0, 1, -77, -309)"/>
<path fill="none" stroke-width="5" stroke-linecap="round" stroke-linejoin="round" stroke="rgb(47.842407%, 50.588989%, 100%)" stroke-opacity="1" stroke-miterlimit="10" d="M 514.761719 458.5 L 583.359375 458.5 " transform="matrix(1, 0, 0, 1, -77, -309)"/>
<path fill="none" stroke-width="5" stroke-linecap="round" stroke-linejoin="round" stroke="rgb(47.842407%, 50.588989%, 100%)" stroke-opacity="1" stroke-miterlimit="10" d="M 515.761719 469.5 L 584.359375 469.5 " transform="matrix(1, 0, 0, 1, -77, -309)"/>
<path fill="none" stroke-width="5" stroke-linecap="round" stroke-linejoin="round" stroke="rgb(47.842407%, 50.588989%, 100%)" stroke-opacity="1" stroke-miterlimit="10" d="M 520.761719 480.5 L 589.359375 480.5 " transform="matrix(1, 0, 0, 1, -77, -309)"/>
<path fill-rule="nonzero" fill="rgb(100%, 0%, 0%)" fill-opacity="1" d="M 447.300781 175 L 453.097656 175 L 453.097656 167.539062 L 447.300781 167.539062 Z M 447.300781 175 "/>
</svg>
