<?xml version="1.0" encoding="UTF-8"?>
<svg xmlns="http://www.w3.org/2000/svg" xmlns:xlink="http://www.w3.org/1999/xlink" width="135.2789pt" height="131.749pt" viewBox="0 0 135.2789 131.749" version="1.1">
<g id="surface1">
<path style=" stroke:none;fill-rule:evenodd;fill:rgb(10.430908%,9.358215%,8.999634%);fill-opacity:1;" d="M 65.566406 6.445312 C 32.21875 6.445312 5.179688 33.480469 5.179688 66.832031 C 5.179688 93.515625 22.480469 116.148438 46.476562 124.136719 C 49.492188 124.695312 50.601562 122.824219 50.601562 121.230469 C 50.601562 119.789062 50.546875 115.03125 50.519531 109.988281 C 33.71875 113.640625 30.175781 102.863281 30.175781 102.863281 C 27.425781 95.882812 23.46875 94.027344 23.46875 94.027344 C 17.992188 90.277344 23.882812 90.355469 23.882812 90.355469 C 29.945312 90.78125 33.140625 96.578125 33.140625 96.578125 C 38.523438 105.808594 47.265625 103.140625 50.710938 101.597656 C 51.253906 97.695312 52.820312 95.03125 54.546875 93.523438 C 41.132812 91.996094 27.035156 86.816406 27.035156 63.679688 C 27.035156 57.085938 29.390625 51.699219 33.253906 47.46875 C 32.628906 45.949219 30.5625 39.808594 33.839844 31.488281 C 33.839844 31.488281 38.910156 29.867188 50.453125 37.679688 C 55.269531 36.339844 60.433594 35.671875 65.566406 35.648438 C 70.699219 35.671875 75.867188 36.339844 80.695312 37.679688 C 92.21875 29.867188 97.285156 31.488281 97.285156 31.488281 C 100.570312 39.808594 98.503906 45.949219 97.875 47.46875 C 101.75 51.699219 104.089844 57.085938 104.089844 63.679688 C 104.089844 86.871094 89.964844 91.980469 76.515625 93.476562 C 78.683594 95.347656 80.613281 99.023438 80.613281 104.65625 C 80.613281 112.738281 80.542969 119.242188 80.542969 121.230469 C 80.542969 122.835938 81.628906 124.71875 84.691406 124.128906 C 108.671875 116.132812 125.953125 93.503906 125.953125 66.832031 C 125.953125 33.480469 98.917969 6.445312 65.566406 6.445312 "/>
<path style=" stroke:none;fill-rule:nonzero;fill:rgb(10.430908%,9.358215%,8.999634%);fill-opacity:1;" d="M 28.050781 93.148438 C 27.917969 93.449219 27.445312 93.539062 27.015625 93.332031 C 26.578125 93.136719 26.332031 92.726562 26.472656 92.425781 C 26.601562 92.117188 27.078125 92.03125 27.511719 92.238281 C 27.953125 92.433594 28.203125 92.847656 28.050781 93.148438 "/>
<path style=" stroke:none;fill-rule:nonzero;fill:rgb(10.430908%,9.358215%,8.999634%);fill-opacity:1;" d="M 30.496094 95.878906 C 30.207031 96.144531 29.644531 96.019531 29.261719 95.597656 C 28.867188 95.175781 28.792969 94.613281 29.085938 94.34375 C 29.382812 94.074219 29.929688 94.199219 30.324219 94.621094 C 30.71875 95.046875 30.796875 95.605469 30.496094 95.878906 "/>
<path style=" stroke:none;fill-rule:nonzero;fill:rgb(10.430908%,9.358215%,8.999634%);fill-opacity:1;" d="M 32.878906 99.355469 C 32.507812 99.613281 31.902344 99.371094 31.527344 98.835938 C 31.160156 98.296875 31.160156 97.652344 31.535156 97.394531 C 31.910156 97.136719 32.507812 97.367188 32.886719 97.902344 C 33.253906 98.449219 33.253906 99.09375 32.878906 99.355469 "/>
<path style=" stroke:none;fill-rule:nonzero;fill:rgb(10.430908%,9.358215%,8.999634%);fill-opacity:1;" d="M 36.140625 102.714844 C 35.808594 103.078125 35.101562 102.980469 34.585938 102.484375 C 34.058594 101.996094 33.914062 101.304688 34.246094 100.941406 C 34.578125 100.574219 35.289062 100.679688 35.808594 101.171875 C 36.332031 101.65625 36.492188 102.355469 36.140625 102.714844 "/>
<path style=" stroke:none;fill-rule:nonzero;fill:rgb(10.430908%,9.358215%,8.999634%);fill-opacity:1;" d="M 40.640625 104.664062 C 40.492188 105.140625 39.8125 105.355469 39.128906 105.152344 C 38.449219 104.945312 38 104.390625 38.136719 103.914062 C 38.28125 103.4375 38.960938 103.214844 39.652344 103.429688 C 40.332031 103.636719 40.78125 104.183594 40.640625 104.664062 "/>
<path style=" stroke:none;fill-rule:nonzero;fill:rgb(10.430908%,9.358215%,8.999634%);fill-opacity:1;" d="M 45.582031 105.027344 C 45.597656 105.527344 45.019531 105.9375 44.300781 105.949219 C 43.578125 105.964844 42.996094 105.5625 42.984375 105.070312 C 42.984375 104.566406 43.554688 104.160156 44.273438 104.148438 C 44.992188 104.132812 45.582031 104.53125 45.582031 105.027344 "/>
<path style=" stroke:none;fill-rule:nonzero;fill:rgb(10.430908%,9.358215%,8.999634%);fill-opacity:1;" d="M 50.179688 104.246094 C 50.265625 104.730469 49.765625 105.230469 49.054688 105.363281 C 48.351562 105.492188 47.703125 105.191406 47.617188 104.710938 C 47.527344 104.210938 48.035156 103.710938 48.734375 103.582031 C 49.449219 103.460938 50.089844 103.75 50.179688 104.246094 "/>
</g>
</svg>
