<?xml version="1.0" encoding="UTF-8"?>
<svg xmlns="http://www.w3.org/2000/svg" xmlns:xlink="http://www.w3.org/1999/xlink" width="963" height="220" viewBox="0 0 963 220">
<path fill-rule="nonzero" fill="rgb(0%, 0%, 100%)" fill-opacity="1" d="M 799.953125 187.347656 C 804.582031 191.976562 804.582031 199.480469 799.953125 204.109375 C 795.324219 208.738281 787.820312 208.738281 783.195312 204.109375 C 778.566406 199.480469 778.566406 191.976562 783.195312 187.347656 C 787.820312 182.722656 795.324219 182.722656 799.953125 187.347656 "/>
<path fill="none" stroke-width="5" stroke-linecap="round" stroke-linejoin="round" stroke="rgb(39.99939%, 39.99939%, 39.99939%)" stroke-opacity="1" stroke-miterlimit="10" d="M 39 462 L 956.03125 462 " transform="matrix(1, 0, 0, 1, -18, -252)"/>
<path fill-rule="nonzero" fill="rgb(39.99939%, 39.99939%, 39.99939%)" fill-opacity="1" stroke-width="5" stroke-linecap="butt" stroke-linejoin="miter" stroke="rgb(39.99939%, 39.99939%, 39.99939%)" stroke-opacity="1" stroke-miterlimit="10" d="M 970.429688 462 L 956.03125 456.601562 L 956.03125 467.398438 Z M 970.429688 462 " transform="matrix(1, 0, 0, 1, -18, -252)"/>
<path fill-rule="nonzero" fill="rgb(100%, 100%, 100%)" fill-opacity="1" stroke-width="2" stroke-linecap="round" stroke-linejoin="round" stroke="rgb(0%, 0%, 0%)" stroke-opacity="1" stroke-miterlimit="10" d="M 764.53125 323.859375 L 881.6875 323.859375 C 895.546875 323.859375 906.792969 347.941406 906.792969 377.609375 C 906.792969 407.28125 895.546875 431.359375 881.6875 431.359375 L 764.53125 431.359375 C 750.671875 431.359375 739.425781 407.28125 739.425781 377.609375 C 739.425781 347.941406 750.671875 323.859375 764.53125 323.859375 Z M 764.53125 323.859375 " transform="matrix(1, 0, 0, 1, -18, -252)"/>
<path fill-rule="nonzero" fill="rgb(50.196838%, 50.196838%, 100%)" fill-opacity="1" stroke-width="2" stroke-linecap="round" stroke-linejoin="round" stroke="rgb(0%, 0%, 0%)" stroke-opacity="1" stroke-miterlimit="10" d="M 729.851562 287.527344 L 777.765625 287.527344 C 783.429688 287.527344 788.03125 302.25 788.03125 320.390625 C 788.03125 338.53125 783.429688 353.253906 777.765625 353.253906 L 729.851562 353.253906 C 724.183594 353.253906 719.585938 338.53125 719.585938 320.390625 C 719.585938 302.25 724.183594 287.527344 729.851562 287.527344 Z M 729.851562 287.527344 " transform="matrix(1, 0, 0, 1, -18, -252)"/>
<path fill-rule="nonzero" fill="rgb(100%, 50.196838%, 50.196838%)" fill-opacity="1" stroke-width="2" stroke-linecap="round" stroke-linejoin="round" stroke="rgb(0%, 0%, 0%)" stroke-opacity="1" stroke-miterlimit="10" d="M 871.136719 287.527344 L 919.046875 287.527344 C 924.714844 287.527344 929.3125 302.25 929.3125 320.390625 C 929.3125 338.53125 924.714844 353.253906 919.046875 353.253906 L 871.136719 353.253906 C 865.46875 353.253906 860.871094 338.53125 860.871094 320.390625 C 860.871094 302.25 865.46875 287.527344 871.136719 287.527344 Z M 871.136719 287.527344 " transform="matrix(1, 0, 0, 1, -18, -252)"/>
<path fill-rule="nonzero" fill="rgb(100%, 100%, 100%)" fill-opacity="1" stroke-width="7" stroke-linecap="round" stroke-linejoin="round" stroke="rgb(0%, 0%, 0%)" stroke-opacity="1" stroke-miterlimit="10" d="M 770.601562 415.035156 C 779.875 424.308594 779.875 439.347656 770.601562 448.625 C 761.328125 457.898438 746.289062 457.898438 737.015625 448.625 C 727.738281 439.347656 727.738281 424.308594 737.015625 415.035156 C 746.289062 405.761719 761.328125 405.761719 770.601562 415.035156 " transform="matrix(1, 0, 0, 1, -18, -252)"/>
<path fill="none" stroke-width="3.5" stroke-linecap="round" stroke-linejoin="round" stroke="rgb(100%, 100%, 100%)" stroke-opacity="1" stroke-miterlimit="10" d="M 770.601562 415.035156 C 779.875 424.308594 779.875 439.347656 770.601562 448.625 C 761.328125 457.898438 746.289062 457.898438 737.015625 448.625 C 727.738281 439.347656 727.738281 424.308594 737.015625 415.035156 C 746.289062 405.761719 761.328125 405.761719 770.601562 415.035156 " transform="matrix(1, 0, 0, 1, -18, -252)"/>
<path fill-rule="nonzero" fill="rgb(100%, 100%, 100%)" fill-opacity="1" stroke-width="7" stroke-linecap="round" stroke-linejoin="round" stroke="rgb(0%, 0%, 0%)" stroke-opacity="1" stroke-miterlimit="10" d="M 911.886719 415.035156 C 921.160156 424.308594 921.160156 439.347656 911.886719 448.625 C 902.609375 457.898438 887.574219 457.898438 878.296875 448.625 C 869.023438 439.347656 869.023438 424.308594 878.296875 415.035156 C 887.574219 405.761719 902.609375 405.761719 911.886719 415.035156 " transform="matrix(1, 0, 0, 1, -18, -252)"/>
<path fill="none" stroke-width="3.5" stroke-linecap="round" stroke-linejoin="round" stroke="rgb(100%, 100%, 100%)" stroke-opacity="1" stroke-miterlimit="10" d="M 911.886719 415.035156 C 921.160156 424.308594 921.160156 439.347656 911.886719 448.625 C 902.609375 457.898438 887.574219 457.898438 878.296875 448.625 C 869.023438 439.347656 869.023438 424.308594 878.296875 415.035156 C 887.574219 405.761719 902.609375 405.761719 911.886719 415.035156 " transform="matrix(1, 0, 0, 1, -18, -252)"/>
<path fill-rule="nonzero" fill="rgb(0%, 0%, 100%)" fill-opacity="1" d="M 756.085938 106.726562 C 760.714844 111.355469 760.714844 118.859375 756.085938 123.484375 C 751.460938 128.113281 743.957031 128.113281 739.328125 123.484375 C 734.699219 118.859375 734.699219 111.355469 739.328125 106.726562 C 743.957031 102.097656 751.460938 102.097656 756.085938 106.726562 "/>
<path fill-rule="nonzero" fill="rgb(100%, 0%, 0%)" fill-opacity="1" d="M 863.101562 107.726562 C 867.726562 112.355469 867.726562 119.859375 863.101562 124.484375 C 858.472656 129.113281 850.96875 129.113281 846.339844 124.484375 C 841.710938 119.859375 841.710938 112.355469 846.339844 107.726562 C 850.96875 103.097656 858.472656 103.097656 863.101562 107.726562 "/>
<path fill="none" stroke-width="3" stroke-linecap="round" stroke-linejoin="round" stroke="rgb(39.99939%, 39.99939%, 39.99939%)" stroke-opacity="1" stroke-miterlimit="10" d="M 740.425781 368.359375 L 796.925781 399.921875 " transform="matrix(1, 0, 0, 1, -18, -252)"/>
<path fill="none" stroke-width="3" stroke-linecap="round" stroke-linejoin="round" stroke="rgb(39.99939%, 39.99939%, 39.99939%)" stroke-opacity="1" stroke-miterlimit="10" d="M 905.792969 367.886719 L 849.292969 399.449219 " transform="matrix(1, 0, 0, 1, -18, -252)"/>
<path fill-rule="nonzero" fill="rgb(100%, 100%, 100%)" fill-opacity="1" stroke-width="2" stroke-linecap="round" stroke-linejoin="round" stroke="rgb(0%, 0%, 0%)" stroke-opacity="1" stroke-miterlimit="10" d="M 825.9375 420.136719 L 823.617188 422.152344 C 821.535156 423.964844 818.375 423.746094 816.566406 421.660156 C 816.46875 421.550781 816.375 421.433594 816.289062 421.3125 L 803.367188 403.480469 C 801.972656 401.554688 802.277344 398.882812 804.070312 397.324219 C 805.867188 395.765625 808.554688 395.835938 810.265625 397.484375 L 826.125 412.761719 C 828.117188 414.679688 828.175781 417.84375 826.257812 419.832031 C 826.15625 419.9375 826.050781 420.039062 825.9375 420.136719 Z M 825.9375 420.136719 " transform="matrix(1, 0, 0, 1, -18, -252)"/>
<path fill-rule="nonzero" fill="rgb(100%, 100%, 100%)" fill-opacity="1" stroke-width="2" stroke-linecap="round" stroke-linejoin="round" stroke="rgb(0%, 0%, 0%)" stroke-opacity="1" stroke-miterlimit="10" d="M 805.84375 349.015625 L 805.84375 353.753906 C 807.527344 365.605469 812.570312 366.792969 822.660156 372.714844 C 832.75 366.792969 837.796875 365.605469 839.476562 353.753906 L 839.476562 349.015625 C 832.75 350.199219 831.910156 350.792969 822.660156 351.386719 C 813.414062 350.792969 812.570312 350.199219 805.84375 349.015625 " transform="matrix(1, 0, 0, 1, -18, -252)"/>
<path fill-rule="nonzero" fill="rgb(0%, 0%, 100%)" fill-opacity="1" d="M 759.253906 187.347656 C 763.878906 191.976562 763.878906 199.480469 759.253906 204.109375 C 754.625 208.738281 747.121094 208.738281 742.492188 204.109375 C 737.863281 199.480469 737.863281 191.976562 742.492188 187.347656 C 747.121094 182.722656 754.625 182.722656 759.253906 187.347656 "/>
<path fill-rule="nonzero" fill="rgb(100%, 0%, 0%)" fill-opacity="1" d="M 718.253906 187.347656 C 722.878906 191.976562 722.878906 199.480469 718.253906 204.109375 C 713.625 208.738281 706.121094 208.738281 701.492188 204.109375 C 696.863281 199.480469 696.863281 191.976562 701.492188 187.347656 C 706.121094 182.722656 713.625 182.722656 718.253906 187.347656 "/>
<path fill-rule="nonzero" fill="rgb(100%, 0%, 0%)" fill-opacity="1" d="M 677.253906 187.347656 C 681.878906 191.976562 681.878906 199.480469 677.253906 204.109375 C 672.625 208.738281 665.121094 208.738281 660.492188 204.109375 C 655.863281 199.480469 655.863281 191.976562 660.492188 187.347656 C 665.121094 182.722656 672.625 182.722656 677.253906 187.347656 "/>
<path fill-rule="nonzero" fill="rgb(100%, 0%, 0%)" fill-opacity="1" d="M 636.253906 187.347656 C 640.878906 191.976562 640.878906 199.480469 636.253906 204.109375 C 631.625 208.738281 624.121094 208.738281 619.492188 204.109375 C 614.863281 199.480469 614.863281 191.976562 619.492188 187.347656 C 624.121094 182.722656 631.625 182.722656 636.253906 187.347656 "/>
<path fill-rule="nonzero" fill="rgb(0%, 0%, 100%)" fill-opacity="1" d="M 595.253906 187.347656 C 599.878906 191.976562 599.878906 199.480469 595.253906 204.109375 C 590.625 208.738281 583.121094 208.738281 578.492188 204.109375 C 573.863281 199.480469 573.863281 191.976562 578.492188 187.347656 C 583.121094 182.722656 590.625 182.722656 595.253906 187.347656 "/>
<path fill-rule="nonzero" fill="rgb(100%, 0%, 0%)" fill-opacity="1" d="M 554.253906 187.347656 C 558.878906 191.976562 558.878906 199.480469 554.253906 204.109375 C 549.625 208.738281 542.121094 208.738281 537.492188 204.109375 C 532.863281 199.480469 532.863281 191.976562 537.492188 187.347656 C 542.121094 182.722656 549.625 182.722656 554.253906 187.347656 "/>
<path fill-rule="nonzero" fill="rgb(100%, 0%, 0%)" fill-opacity="1" d="M 513.253906 187.347656 C 517.878906 191.976562 517.878906 199.480469 513.253906 204.109375 C 508.625 208.738281 501.121094 208.738281 496.492188 204.109375 C 491.863281 199.480469 491.863281 191.976562 496.492188 187.347656 C 501.121094 182.722656 508.625 182.722656 513.253906 187.347656 "/>
<path fill-rule="nonzero" fill="rgb(100%, 0%, 0%)" fill-opacity="1" d="M 472.253906 187.347656 C 476.878906 191.976562 476.878906 199.480469 472.253906 204.109375 C 467.625 208.738281 460.121094 208.738281 455.492188 204.109375 C 450.863281 199.480469 450.863281 191.976562 455.492188 187.347656 C 460.121094 182.722656 467.625 182.722656 472.253906 187.347656 "/>
<path fill-rule="nonzero" fill="rgb(100%, 0%, 0%)" fill-opacity="1" d="M 431.253906 187.347656 C 435.878906 191.976562 435.878906 199.480469 431.253906 204.109375 C 426.625 208.738281 419.121094 208.738281 414.492188 204.109375 C 409.863281 199.480469 409.863281 191.976562 414.492188 187.347656 C 419.121094 182.722656 426.625 182.722656 431.253906 187.347656 "/>
<path fill-rule="nonzero" fill="rgb(100%, 0%, 0%)" fill-opacity="1" d="M 390.253906 187.347656 C 394.878906 191.976562 394.878906 199.480469 390.253906 204.109375 C 385.625 208.738281 378.121094 208.738281 373.492188 204.109375 C 368.863281 199.480469 368.863281 191.976562 373.492188 187.347656 C 378.121094 182.722656 385.625 182.722656 390.253906 187.347656 "/>
<path fill-rule="nonzero" fill="rgb(100%, 0%, 0%)" fill-opacity="1" d="M 349.253906 187.347656 C 353.878906 191.976562 353.878906 199.480469 349.253906 204.109375 C 344.625 208.738281 337.121094 208.738281 332.492188 204.109375 C 327.863281 199.480469 327.863281 191.976562 332.492188 187.347656 C 337.121094 182.722656 344.625 182.722656 349.253906 187.347656 "/>
<path fill-rule="nonzero" fill="rgb(100%, 0%, 0%)" fill-opacity="1" d="M 308.253906 187.347656 C 312.878906 191.976562 312.878906 199.480469 308.253906 204.109375 C 303.625 208.738281 296.121094 208.738281 291.492188 204.109375 C 286.863281 199.480469 286.863281 191.976562 291.492188 187.347656 C 296.121094 182.722656 303.625 182.722656 308.253906 187.347656 "/>
<path fill-rule="nonzero" fill="rgb(0%, 0%, 100%)" fill-opacity="1" d="M 267.253906 187.347656 C 271.878906 191.976562 271.878906 199.480469 267.253906 204.109375 C 262.625 208.738281 255.121094 208.738281 250.492188 204.109375 C 245.863281 199.480469 245.863281 191.976562 250.492188 187.347656 C 255.121094 182.722656 262.625 182.722656 267.253906 187.347656 "/>
<path fill-rule="nonzero" fill="rgb(100%, 0%, 0%)" fill-opacity="1" d="M 226.253906 187.347656 C 230.878906 191.976562 230.878906 199.480469 226.253906 204.109375 C 221.625 208.738281 214.121094 208.738281 209.492188 204.109375 C 204.863281 199.480469 204.863281 191.976562 209.492188 187.347656 C 214.121094 182.722656 221.625 182.722656 226.253906 187.347656 "/>
<path fill-rule="nonzero" fill="rgb(100%, 0%, 0%)" fill-opacity="1" d="M 185.253906 187.347656 C 189.878906 191.976562 189.878906 199.480469 185.253906 204.109375 C 180.625 208.738281 173.121094 208.738281 168.492188 204.109375 C 163.863281 199.480469 163.863281 191.976562 168.492188 187.347656 C 173.121094 182.722656 180.625 182.722656 185.253906 187.347656 "/>
<path fill-rule="nonzero" fill="rgb(100%, 0%, 0%)" fill-opacity="1" d="M 144.253906 187.347656 C 148.878906 191.976562 148.878906 199.480469 144.253906 204.109375 C 139.625 208.738281 132.121094 208.738281 127.492188 204.109375 C 122.863281 199.480469 122.863281 191.976562 127.492188 187.347656 C 132.121094 182.722656 139.625 182.722656 144.253906 187.347656 "/>
<path fill-rule="nonzero" fill="rgb(0%, 0%, 100%)" fill-opacity="1" d="M 103.253906 187.347656 C 107.878906 191.976562 107.878906 199.480469 103.253906 204.109375 C 98.625 208.738281 91.121094 208.738281 86.492188 204.109375 C 81.863281 199.480469 81.863281 191.976562 86.492188 187.347656 C 91.121094 182.722656 98.625 182.722656 103.253906 187.347656 "/>
<path fill-rule="nonzero" fill="rgb(0%, 0%, 100%)" fill-opacity="1" d="M 62.253906 187.347656 C 66.878906 191.976562 66.878906 199.480469 62.253906 204.109375 C 57.625 208.738281 50.121094 208.738281 45.492188 204.109375 C 40.863281 199.480469 40.863281 191.976562 45.492188 187.347656 C 50.121094 182.722656 57.625 182.722656 62.253906 187.347656 "/>
<path fill-rule="nonzero" fill="rgb(100%, 0%, 0%)" fill-opacity="1" d="M 21.253906 187.347656 C 25.878906 191.976562 25.878906 199.480469 21.253906 204.109375 C 16.625 208.738281 9.121094 208.738281 4.492188 204.109375 C -0.136719 199.480469 -0.136719 191.976562 4.492188 187.347656 C 9.121094 182.722656 16.625 182.722656 21.253906 187.347656 "/>
<path fill-rule="nonzero" fill="rgb(100%, 100%, 100%)" fill-opacity="1" d="M 1.023438 25.195312 L 24.023438 25.195312 L 24.023438 2.195312 L 1.023438 2.195312 Z M 1.023438 25.195312 "/>
<path fill="none" stroke-width="2" stroke-linecap="round" stroke-linejoin="round" stroke="rgb(64.706421%, 64.706421%, 64.706421%)" stroke-opacity="1" stroke-miterlimit="10" d="M 19.023438 254.195312 L 42.023438 254.195312 L 42.023438 277.195312 L 19.023438 277.195312 Z M 19.023438 254.195312 " transform="matrix(1, 0, 0, 1, -18, -252)"/>
<path fill-rule="nonzero" fill="rgb(100%, 100%, 100%)" fill-opacity="1" d="M 42.023438 25.195312 L 65.023438 25.195312 L 65.023438 2.195312 L 42.023438 2.195312 Z M 42.023438 25.195312 "/>
<path fill="none" stroke-width="2" stroke-linecap="round" stroke-linejoin="round" stroke="rgb(64.706421%, 64.706421%, 64.706421%)" stroke-opacity="1" stroke-miterlimit="10" d="M 60.023438 254.195312 L 83.023438 254.195312 L 83.023438 277.195312 L 60.023438 277.195312 Z M 60.023438 254.195312 " transform="matrix(1, 0, 0, 1, -18, -252)"/>
<path fill-rule="nonzero" fill="rgb(100%, 100%, 100%)" fill-opacity="1" d="M 83.023438 25.195312 L 106.023438 25.195312 L 106.023438 2.195312 L 83.023438 2.195312 Z M 83.023438 25.195312 "/>
<path fill="none" stroke-width="2" stroke-linecap="round" stroke-linejoin="round" stroke="rgb(64.706421%, 64.706421%, 64.706421%)" stroke-opacity="1" stroke-miterlimit="10" d="M 101.023438 254.195312 L 124.023438 254.195312 L 124.023438 277.195312 L 101.023438 277.195312 Z M 101.023438 254.195312 " transform="matrix(1, 0, 0, 1, -18, -252)"/>
<path fill-rule="nonzero" fill="rgb(100%, 100%, 100%)" fill-opacity="1" d="M 124.023438 25.195312 L 147.023438 25.195312 L 147.023438 2.195312 L 124.023438 2.195312 Z M 124.023438 25.195312 "/>
<path fill="none" stroke-width="2" stroke-linecap="round" stroke-linejoin="round" stroke="rgb(64.706421%, 64.706421%, 64.706421%)" stroke-opacity="1" stroke-miterlimit="10" d="M 142.023438 254.195312 L 165.023438 254.195312 L 165.023438 277.195312 L 142.023438 277.195312 Z M 142.023438 254.195312 " transform="matrix(1, 0, 0, 1, -18, -252)"/>
<path fill-rule="nonzero" fill="rgb(100%, 100%, 100%)" fill-opacity="1" d="M 165.023438 25.195312 L 188.023438 25.195312 L 188.023438 2.195312 L 165.023438 2.195312 Z M 165.023438 25.195312 "/>
<path fill="none" stroke-width="2" stroke-linecap="round" stroke-linejoin="round" stroke="rgb(64.706421%, 64.706421%, 64.706421%)" stroke-opacity="1" stroke-miterlimit="10" d="M 183.023438 254.195312 L 206.023438 254.195312 L 206.023438 277.195312 L 183.023438 277.195312 Z M 183.023438 254.195312 " transform="matrix(1, 0, 0, 1, -18, -252)"/>
<path fill-rule="nonzero" fill="rgb(100%, 100%, 100%)" fill-opacity="1" d="M 206.023438 25.195312 L 229.023438 25.195312 L 229.023438 2.195312 L 206.023438 2.195312 Z M 206.023438 25.195312 "/>
<path fill="none" stroke-width="2" stroke-linecap="round" stroke-linejoin="round" stroke="rgb(64.706421%, 64.706421%, 64.706421%)" stroke-opacity="1" stroke-miterlimit="10" d="M 224.023438 254.195312 L 247.023438 254.195312 L 247.023438 277.195312 L 224.023438 277.195312 Z M 224.023438 254.195312 " transform="matrix(1, 0, 0, 1, -18, -252)"/>
<path fill-rule="nonzero" fill="rgb(100%, 100%, 100%)" fill-opacity="1" d="M 247.023438 25.195312 L 270.023438 25.195312 L 270.023438 2.195312 L 247.023438 2.195312 Z M 247.023438 25.195312 "/>
<path fill="none" stroke-width="2" stroke-linecap="round" stroke-linejoin="round" stroke="rgb(64.706421%, 64.706421%, 64.706421%)" stroke-opacity="1" stroke-miterlimit="10" d="M 265.023438 254.195312 L 288.023438 254.195312 L 288.023438 277.195312 L 265.023438 277.195312 Z M 265.023438 254.195312 " transform="matrix(1, 0, 0, 1, -18, -252)"/>
<path fill-rule="nonzero" fill="rgb(100%, 100%, 100%)" fill-opacity="1" d="M 575.023438 25.195312 L 598.023438 25.195312 L 598.023438 2.195312 L 575.023438 2.195312 Z M 575.023438 25.195312 "/>
<path fill="none" stroke-width="2" stroke-linecap="round" stroke-linejoin="round" stroke="rgb(64.706421%, 64.706421%, 64.706421%)" stroke-opacity="1" stroke-miterlimit="10" d="M 593.023438 254.195312 L 616.023438 254.195312 L 616.023438 277.195312 L 593.023438 277.195312 Z M 593.023438 254.195312 " transform="matrix(1, 0, 0, 1, -18, -252)"/>
<path fill-rule="nonzero" fill="rgb(100%, 100%, 100%)" fill-opacity="1" d="M 738.023438 25.195312 L 761.023438 25.195312 L 761.023438 2.195312 L 738.023438 2.195312 Z M 738.023438 25.195312 "/>
<path fill="none" stroke-width="2" stroke-linecap="round" stroke-linejoin="round" stroke="rgb(64.706421%, 64.706421%, 64.706421%)" stroke-opacity="1" stroke-miterlimit="10" d="M 756.023438 254.195312 L 779.023438 254.195312 L 779.023438 277.195312 L 756.023438 277.195312 Z M 756.023438 254.195312 " transform="matrix(1, 0, 0, 1, -18, -252)"/>
<path fill-rule="nonzero" fill="rgb(100%, 100%, 100%)" fill-opacity="1" d="M 780.023438 25.195312 L 803.023438 25.195312 L 803.023438 2.195312 L 780.023438 2.195312 Z M 780.023438 25.195312 "/>
<path fill="none" stroke-width="2" stroke-linecap="round" stroke-linejoin="round" stroke="rgb(64.706421%, 64.706421%, 64.706421%)" stroke-opacity="1" stroke-miterlimit="10" d="M 798.023438 254.195312 L 821.023438 254.195312 L 821.023438 277.195312 L 798.023438 277.195312 Z M 798.023438 254.195312 " transform="matrix(1, 0, 0, 1, -18, -252)"/>
<path fill-rule="nonzero" fill="rgb(100%, 100%, 100%)" fill-opacity="1" d="M 288.023438 25.195312 L 311.023438 25.195312 L 311.023438 2.195312 L 288.023438 2.195312 Z M 288.023438 25.195312 "/>
<path fill="none" stroke-width="2" stroke-linecap="round" stroke-linejoin="round" stroke="rgb(64.706421%, 64.706421%, 64.706421%)" stroke-opacity="1" stroke-miterlimit="10" d="M 306.023438 254.195312 L 329.023438 254.195312 L 329.023438 277.195312 L 306.023438 277.195312 Z M 306.023438 254.195312 " transform="matrix(1, 0, 0, 1, -18, -252)"/>
<path fill="none" stroke-width="2" stroke-linecap="round" stroke-linejoin="round" stroke="rgb(64.706421%, 64.706421%, 64.706421%)" stroke-opacity="1" stroke-miterlimit="10" d="M 306.023438 254.195312 L 329.023438 277.195312 " transform="matrix(1, 0, 0, 1, -18, -252)"/>
<path fill="none" stroke-width="2" stroke-linecap="round" stroke-linejoin="round" stroke="rgb(64.706421%, 64.706421%, 64.706421%)" stroke-opacity="1" stroke-miterlimit="10" d="M 329.023438 254.445312 L 306.023438 277.445312 " transform="matrix(1, 0, 0, 1, -18, -252)"/>
<path fill-rule="nonzero" fill="rgb(100%, 100%, 100%)" fill-opacity="1" d="M 329.023438 24.945312 L 352.023438 24.945312 L 352.023438 1.945312 L 329.023438 1.945312 Z M 329.023438 24.945312 "/>
<path fill="none" stroke-width="2" stroke-linecap="round" stroke-linejoin="round" stroke="rgb(64.706421%, 64.706421%, 64.706421%)" stroke-opacity="1" stroke-miterlimit="10" d="M 347.023438 253.945312 L 370.023438 253.945312 L 370.023438 276.945312 L 347.023438 276.945312 Z M 347.023438 253.945312 " transform="matrix(1, 0, 0, 1, -18, -252)"/>
<path fill="none" stroke-width="2" stroke-linecap="round" stroke-linejoin="round" stroke="rgb(64.706421%, 64.706421%, 64.706421%)" stroke-opacity="1" stroke-miterlimit="10" d="M 347.023438 253.945312 L 370.023438 276.945312 " transform="matrix(1, 0, 0, 1, -18, -252)"/>
<path fill="none" stroke-width="2" stroke-linecap="round" stroke-linejoin="round" stroke="rgb(64.706421%, 64.706421%, 64.706421%)" stroke-opacity="1" stroke-miterlimit="10" d="M 370.023438 254.195312 L 347.023438 277.195312 " transform="matrix(1, 0, 0, 1, -18, -252)"/>
<path fill-rule="nonzero" fill="rgb(100%, 100%, 100%)" fill-opacity="1" d="M 370.722656 24.945312 L 393.722656 24.945312 L 393.722656 1.945312 L 370.722656 1.945312 Z M 370.722656 24.945312 "/>
<path fill="none" stroke-width="2" stroke-linecap="round" stroke-linejoin="round" stroke="rgb(64.706421%, 64.706421%, 64.706421%)" stroke-opacity="1" stroke-miterlimit="10" d="M 388.722656 253.945312 L 411.722656 253.945312 L 411.722656 276.945312 L 388.722656 276.945312 Z M 388.722656 253.945312 " transform="matrix(1, 0, 0, 1, -18, -252)"/>
<path fill="none" stroke-width="2" stroke-linecap="round" stroke-linejoin="round" stroke="rgb(64.706421%, 64.706421%, 64.706421%)" stroke-opacity="1" stroke-miterlimit="10" d="M 388.722656 253.945312 L 411.722656 276.945312 " transform="matrix(1, 0, 0, 1, -18, -252)"/>
<path fill="none" stroke-width="2" stroke-linecap="round" stroke-linejoin="round" stroke="rgb(64.706421%, 64.706421%, 64.706421%)" stroke-opacity="1" stroke-miterlimit="10" d="M 411.722656 254.195312 L 388.722656 277.195312 " transform="matrix(1, 0, 0, 1, -18, -252)"/>
<path fill-rule="nonzero" fill="rgb(100%, 100%, 100%)" fill-opacity="1" d="M 412.023438 25.195312 L 435.023438 25.195312 L 435.023438 2.195312 L 412.023438 2.195312 Z M 412.023438 25.195312 "/>
<path fill="none" stroke-width="2" stroke-linecap="round" stroke-linejoin="round" stroke="rgb(64.706421%, 64.706421%, 64.706421%)" stroke-opacity="1" stroke-miterlimit="10" d="M 430.023438 254.195312 L 453.023438 254.195312 L 453.023438 277.195312 L 430.023438 277.195312 Z M 430.023438 254.195312 " transform="matrix(1, 0, 0, 1, -18, -252)"/>
<path fill="none" stroke-width="2" stroke-linecap="round" stroke-linejoin="round" stroke="rgb(64.706421%, 64.706421%, 64.706421%)" stroke-opacity="1" stroke-miterlimit="10" d="M 430.023438 254.195312 L 453.023438 277.195312 " transform="matrix(1, 0, 0, 1, -18, -252)"/>
<path fill="none" stroke-width="2" stroke-linecap="round" stroke-linejoin="round" stroke="rgb(64.706421%, 64.706421%, 64.706421%)" stroke-opacity="1" stroke-miterlimit="10" d="M 453.023438 254.445312 L 430.023438 277.445312 " transform="matrix(1, 0, 0, 1, -18, -252)"/>
<path fill-rule="nonzero" fill="rgb(100%, 100%, 100%)" fill-opacity="1" d="M 452.371094 25.070312 L 475.371094 25.070312 L 475.371094 2.070312 L 452.371094 2.070312 Z M 452.371094 25.070312 "/>
<path fill="none" stroke-width="2" stroke-linecap="round" stroke-linejoin="round" stroke="rgb(64.706421%, 64.706421%, 64.706421%)" stroke-opacity="1" stroke-miterlimit="10" d="M 470.371094 254.070312 L 493.371094 254.070312 L 493.371094 277.070312 L 470.371094 277.070312 Z M 470.371094 254.070312 " transform="matrix(1, 0, 0, 1, -18, -252)"/>
<path fill="none" stroke-width="2" stroke-linecap="round" stroke-linejoin="round" stroke="rgb(64.706421%, 64.706421%, 64.706421%)" stroke-opacity="1" stroke-miterlimit="10" d="M 470.371094 254.070312 L 493.371094 277.070312 " transform="matrix(1, 0, 0, 1, -18, -252)"/>
<path fill="none" stroke-width="2" stroke-linecap="round" stroke-linejoin="round" stroke="rgb(64.706421%, 64.706421%, 64.706421%)" stroke-opacity="1" stroke-miterlimit="10" d="M 493.371094 254.320312 L 470.371094 277.320312 " transform="matrix(1, 0, 0, 1, -18, -252)"/>
<path fill-rule="nonzero" fill="rgb(100%, 100%, 100%)" fill-opacity="1" d="M 493.523438 25.195312 L 516.523438 25.195312 L 516.523438 2.195312 L 493.523438 2.195312 Z M 493.523438 25.195312 "/>
<path fill="none" stroke-width="2" stroke-linecap="round" stroke-linejoin="round" stroke="rgb(64.706421%, 64.706421%, 64.706421%)" stroke-opacity="1" stroke-miterlimit="10" d="M 511.523438 254.195312 L 534.523438 254.195312 L 534.523438 277.195312 L 511.523438 277.195312 Z M 511.523438 254.195312 " transform="matrix(1, 0, 0, 1, -18, -252)"/>
<path fill="none" stroke-width="2" stroke-linecap="round" stroke-linejoin="round" stroke="rgb(64.706421%, 64.706421%, 64.706421%)" stroke-opacity="1" stroke-miterlimit="10" d="M 511.523438 254.195312 L 534.523438 277.195312 " transform="matrix(1, 0, 0, 1, -18, -252)"/>
<path fill="none" stroke-width="2" stroke-linecap="round" stroke-linejoin="round" stroke="rgb(64.706421%, 64.706421%, 64.706421%)" stroke-opacity="1" stroke-miterlimit="10" d="M 534.523438 254.445312 L 511.523438 277.445312 " transform="matrix(1, 0, 0, 1, -18, -252)"/>
<path fill-rule="nonzero" fill="rgb(100%, 100%, 100%)" fill-opacity="1" d="M 535.023438 25.195312 L 558.023438 25.195312 L 558.023438 2.195312 L 535.023438 2.195312 Z M 535.023438 25.195312 "/>
<path fill="none" stroke-width="2" stroke-linecap="round" stroke-linejoin="round" stroke="rgb(64.706421%, 64.706421%, 64.706421%)" stroke-opacity="1" stroke-miterlimit="10" d="M 553.023438 254.195312 L 576.023438 254.195312 L 576.023438 277.195312 L 553.023438 277.195312 Z M 553.023438 254.195312 " transform="matrix(1, 0, 0, 1, -18, -252)"/>
<path fill="none" stroke-width="2" stroke-linecap="round" stroke-linejoin="round" stroke="rgb(64.706421%, 64.706421%, 64.706421%)" stroke-opacity="1" stroke-miterlimit="10" d="M 553.023438 254.195312 L 576.023438 277.195312 " transform="matrix(1, 0, 0, 1, -18, -252)"/>
<path fill="none" stroke-width="2" stroke-linecap="round" stroke-linejoin="round" stroke="rgb(64.706421%, 64.706421%, 64.706421%)" stroke-opacity="1" stroke-miterlimit="10" d="M 576.023438 254.445312 L 553.023438 277.445312 " transform="matrix(1, 0, 0, 1, -18, -252)"/>
<path fill-rule="nonzero" fill="rgb(100%, 100%, 100%)" fill-opacity="1" d="M 617.671875 25.132812 L 640.671875 25.132812 L 640.671875 2.132812 L 617.671875 2.132812 Z M 617.671875 25.132812 "/>
<path fill="none" stroke-width="2" stroke-linecap="round" stroke-linejoin="round" stroke="rgb(64.706421%, 64.706421%, 64.706421%)" stroke-opacity="1" stroke-miterlimit="10" d="M 635.671875 254.132812 L 658.671875 254.132812 L 658.671875 277.132812 L 635.671875 277.132812 Z M 635.671875 254.132812 " transform="matrix(1, 0, 0, 1, -18, -252)"/>
<path fill="none" stroke-width="2" stroke-linecap="round" stroke-linejoin="round" stroke="rgb(64.706421%, 64.706421%, 64.706421%)" stroke-opacity="1" stroke-miterlimit="10" d="M 635.671875 254.132812 L 658.671875 277.132812 " transform="matrix(1, 0, 0, 1, -18, -252)"/>
<path fill="none" stroke-width="2" stroke-linecap="round" stroke-linejoin="round" stroke="rgb(64.706421%, 64.706421%, 64.706421%)" stroke-opacity="1" stroke-miterlimit="10" d="M 658.671875 254.382812 L 635.671875 277.382812 " transform="matrix(1, 0, 0, 1, -18, -252)"/>
<path fill-rule="nonzero" fill="rgb(100%, 100%, 100%)" fill-opacity="1" d="M 658.820312 25.257812 L 681.820312 25.257812 L 681.820312 2.257812 L 658.820312 2.257812 Z M 658.820312 25.257812 "/>
<path fill="none" stroke-width="2" stroke-linecap="round" stroke-linejoin="round" stroke="rgb(64.706421%, 64.706421%, 64.706421%)" stroke-opacity="1" stroke-miterlimit="10" d="M 676.820312 254.257812 L 699.820312 254.257812 L 699.820312 277.257812 L 676.820312 277.257812 Z M 676.820312 254.257812 " transform="matrix(1, 0, 0, 1, -18, -252)"/>
<path fill="none" stroke-width="2" stroke-linecap="round" stroke-linejoin="round" stroke="rgb(64.706421%, 64.706421%, 64.706421%)" stroke-opacity="1" stroke-miterlimit="10" d="M 676.820312 254.257812 L 699.820312 277.257812 " transform="matrix(1, 0, 0, 1, -18, -252)"/>
<path fill="none" stroke-width="2" stroke-linecap="round" stroke-linejoin="round" stroke="rgb(64.706421%, 64.706421%, 64.706421%)" stroke-opacity="1" stroke-miterlimit="10" d="M 699.820312 254.507812 L 676.820312 277.507812 " transform="matrix(1, 0, 0, 1, -18, -252)"/>
<path fill-rule="nonzero" fill="rgb(100%, 100%, 100%)" fill-opacity="1" d="M 698.320312 25.257812 L 721.320312 25.257812 L 721.320312 2.257812 L 698.320312 2.257812 Z M 698.320312 25.257812 "/>
<path fill="none" stroke-width="2" stroke-linecap="round" stroke-linejoin="round" stroke="rgb(64.706421%, 64.706421%, 64.706421%)" stroke-opacity="1" stroke-miterlimit="10" d="M 716.320312 254.257812 L 739.320312 254.257812 L 739.320312 277.257812 L 716.320312 277.257812 Z M 716.320312 254.257812 " transform="matrix(1, 0, 0, 1, -18, -252)"/>
<path fill="none" stroke-width="2" stroke-linecap="round" stroke-linejoin="round" stroke="rgb(64.706421%, 64.706421%, 64.706421%)" stroke-opacity="1" stroke-miterlimit="10" d="M 716.320312 254.257812 L 739.320312 277.257812 " transform="matrix(1, 0, 0, 1, -18, -252)"/>
<path fill="none" stroke-width="2" stroke-linecap="round" stroke-linejoin="round" stroke="rgb(64.706421%, 64.706421%, 64.706421%)" stroke-opacity="1" stroke-miterlimit="10" d="M 739.320312 254.507812 L 716.320312 277.507812 " transform="matrix(1, 0, 0, 1, -18, -252)"/>
</svg>
