<?xml version="1.0" encoding="UTF-8"?>
<svg xmlns="http://www.w3.org/2000/svg" xmlns:xlink="http://www.w3.org/1999/xlink" width="829" height="263" viewBox="0 0 829 263">
<rect x="-82.9" y="-26.3" width="994.8" height="315.6" fill="rgb(100%, 100%, 100%)" fill-opacity="1"/>
<rect x="-82.9" y="-26.3" width="994.8" height="315.6" fill="rgb(100%, 100%, 100%)" fill-opacity="1"/>
<path fill="none" stroke-width="5" stroke-linecap="round" stroke-linejoin="round" stroke="rgb(0%, 56.079102%, 0%)" stroke-opacity="1" stroke-miterlimit="10" d="M 79.5 328 L 902.828125 328 " transform="matrix(1, 0, 0, 1, -77, -248)"/>
<path fill="none" stroke-width="5" stroke-linecap="round" stroke-linejoin="round" stroke="rgb(47.842407%, 50.588989%, 100%)" stroke-opacity="1" stroke-miterlimit="10" d="M 327.707031 261.5 L 396.304688 261.5 " transform="matrix(1, 0, 0, 1, -77, -248)"/>
<path fill="none" stroke-width="5" stroke-linecap="round" stroke-linejoin="round" stroke="rgb(47.842407%, 50.588989%, 100%)" stroke-opacity="1" stroke-miterlimit="10" d="M 339.554688 271.5 L 408.152344 271.5 " transform="matrix(1, 0, 0, 1, -77, -248)"/>
<path fill="none" stroke-width="5" stroke-linecap="round" stroke-linejoin="round" stroke="rgb(47.842407%, 50.588989%, 100%)" stroke-opacity="1" stroke-miterlimit="10" d="M 339.554688 282.5 L 408.152344 282.5 " transform="matrix(1, 0, 0, 1, -77, -248)"/>
<path fill="none" stroke-width="5" stroke-linecap="round" stroke-linejoin="round" stroke="rgb(47.842407%, 50.588989%, 100%)" stroke-opacity="1" stroke-miterlimit="10" d="M 411.375 261 L 479.972656 261 " transform="matrix(1, 0, 0, 1, -77, -248)"/>
<path fill="none" stroke-width="5" stroke-linecap="round" stroke-linejoin="round" stroke="rgb(47.842407%, 50.588989%, 100%)" stroke-opacity="1" stroke-miterlimit="10" d="M 419.375 272 L 487.972656 272 " transform="matrix(1, 0, 0, 1, -77, -248)"/>
<path fill="none" stroke-width="5" stroke-linecap="round" stroke-linejoin="round" stroke="rgb(47.842407%, 50.588989%, 100%)" stroke-opacity="1" stroke-miterlimit="10" d="M 358.84375 293.5 L 427.441406 293.5 " transform="matrix(1, 0, 0, 1, -77, -248)"/>
<path fill="none" stroke-width="5" stroke-linecap="round" stroke-linejoin="round" stroke="rgb(47.842407%, 50.588989%, 100%)" stroke-opacity="1" stroke-miterlimit="10" d="M 589.644531 260 L 658.242188 260 " transform="matrix(1, 0, 0, 1, -77, -248)"/>
<path fill="none" stroke-width="5" stroke-linecap="round" stroke-linejoin="round" stroke="rgb(47.842407%, 50.588989%, 100%)" stroke-opacity="1" stroke-miterlimit="10" d="M 598.644531 271 L 667.242188 271 " transform="matrix(1, 0, 0, 1, -77, -248)"/>
<path fill="none" stroke-width="5" stroke-linecap="round" stroke-linejoin="round" stroke="rgb(47.842407%, 50.588989%, 100%)" stroke-opacity="1" stroke-miterlimit="10" d="M 627.644531 282 L 696.242188 282 " transform="matrix(1, 0, 0, 1, -77, -248)"/>
<path fill="none" stroke-width="5" stroke-linecap="round" stroke-linejoin="round" stroke="rgb(47.842407%, 50.588989%, 100%)" stroke-opacity="1" stroke-miterlimit="10" d="M 685.601562 259 L 754.199219 259 " transform="matrix(1, 0, 0, 1, -77, -248)"/>
<path fill="none" stroke-width="5" stroke-linecap="round" stroke-linejoin="round" stroke="rgb(47.842407%, 50.588989%, 100%)" stroke-opacity="1" stroke-miterlimit="10" d="M 770.40625 259 L 839.003906 259 " transform="matrix(1, 0, 0, 1, -77, -248)"/>
<path fill="none" stroke-width="5" stroke-linecap="round" stroke-linejoin="round" stroke="rgb(47.842407%, 50.588989%, 100%)" stroke-opacity="1" stroke-miterlimit="10" d="M 791.046875 267.5 L 859.648438 267.5 " transform="matrix(1, 0, 0, 1, -77, -248)"/>
<path fill="none" stroke-width="5" stroke-linecap="round" stroke-linejoin="round" stroke="rgb(100%, 14.901733%, 0%)" stroke-opacity="1" stroke-miterlimit="10" d="M 256.882812 452.460938 L 325.484375 452.460938 " transform="matrix(1, 0, 0, 1, -77, -248)"/>
<path fill="none" stroke-width="5" stroke-linecap="round" stroke-linejoin="round" stroke="rgb(100%, 14.901733%, 0%)" stroke-opacity="1" stroke-miterlimit="10" d="M 262.882812 463.460938 L 331.484375 463.460938 " transform="matrix(1, 0, 0, 1, -77, -248)"/>
<path fill="none" stroke-width="5" stroke-linecap="round" stroke-linejoin="round" stroke="rgb(100%, 14.901733%, 0%)" stroke-opacity="1" stroke-miterlimit="10" d="M 269.953125 474.460938 L 338.554688 474.460938 " transform="matrix(1, 0, 0, 1, -77, -248)"/>
<path fill="none" stroke-width="5" stroke-linecap="round" stroke-linejoin="round" stroke="rgb(100%, 14.901733%, 0%)" stroke-opacity="1" stroke-miterlimit="10" d="M 272.953125 485.460938 L 341.554688 485.460938 " transform="matrix(1, 0, 0, 1, -77, -248)"/>
<path fill="none" stroke-width="5" stroke-linecap="round" stroke-linejoin="round" stroke="rgb(100%, 14.901733%, 0%)" stroke-opacity="1" stroke-miterlimit="10" d="M 284.953125 496.460938 L 353.554688 496.460938 " transform="matrix(1, 0, 0, 1, -77, -248)"/>
<path fill="none" stroke-width="5" stroke-linecap="round" stroke-linejoin="round" stroke="rgb(100%, 14.901733%, 0%)" stroke-opacity="1" stroke-miterlimit="10" d="M 288.953125 507.460938 L 357.554688 507.460938 " transform="matrix(1, 0, 0, 1, -77, -248)"/>
<path fill="none" stroke-width="5" stroke-linecap="round" stroke-linejoin="round" stroke="rgb(100%, 14.901733%, 0%)" stroke-opacity="1" stroke-miterlimit="10" d="M 528.734375 452.460938 L 597.332031 452.460938 " transform="matrix(1, 0, 0, 1, -77, -248)"/>
<path fill="none" stroke-width="5" stroke-linecap="round" stroke-linejoin="round" stroke="rgb(100%, 14.901733%, 0%)" stroke-opacity="1" stroke-miterlimit="10" d="M 532.734375 463.460938 L 601.332031 463.460938 " transform="matrix(1, 0, 0, 1, -77, -248)"/>
<path fill="none" stroke-width="5" stroke-linecap="round" stroke-linejoin="round" stroke="rgb(30.979919%, 56.079102%, 0%)" stroke-opacity="1" stroke-miterlimit="10" d="M 398.445312 338.5 L 467.046875 338.5 " transform="matrix(1, 0, 0, 1, -77, -248)"/>
<path fill="none" stroke-width="5" stroke-linecap="round" stroke-linejoin="round" stroke="rgb(30.979919%, 56.079102%, 0%)" stroke-opacity="1" stroke-miterlimit="10" d="M 407.945312 349.5 L 476.546875 349.5 " transform="matrix(1, 0, 0, 1, -77, -248)"/>
<path fill="none" stroke-width="5" stroke-linecap="round" stroke-linejoin="round" stroke="rgb(30.979919%, 56.079102%, 0%)" stroke-opacity="1" stroke-miterlimit="10" d="M 407.945312 360.5 L 476.546875 360.5 " transform="matrix(1, 0, 0, 1, -77, -248)"/>
<path fill="none" stroke-width="5" stroke-linecap="round" stroke-linejoin="round" stroke="rgb(30.979919%, 56.079102%, 0%)" stroke-opacity="1" stroke-miterlimit="10" d="M 419.945312 371.5 L 488.546875 371.5 " transform="matrix(1, 0, 0, 1, -77, -248)"/>
<path fill="none" stroke-width="5" stroke-linecap="round" stroke-linejoin="round" stroke="rgb(30.979919%, 56.079102%, 0%)" stroke-opacity="1" stroke-miterlimit="10" d="M 423.445312 382.5 L 492.046875 382.5 " transform="matrix(1, 0, 0, 1, -77, -248)"/>
<path fill="none" stroke-width="5" stroke-linecap="round" stroke-linejoin="round" stroke="rgb(30.979919%, 56.079102%, 0%)" stroke-opacity="1" stroke-miterlimit="10" d="M 424.445312 393.5 L 493.046875 393.5 " transform="matrix(1, 0, 0, 1, -77, -248)"/>
<path fill="none" stroke-width="5" stroke-linecap="round" stroke-linejoin="round" stroke="rgb(30.979919%, 56.079102%, 0%)" stroke-opacity="1" stroke-miterlimit="10" d="M 424.445312 404.5 L 493.046875 404.5 " transform="matrix(1, 0, 0, 1, -77, -248)"/>
<path fill="none" stroke-width="5" stroke-linecap="round" stroke-linejoin="round" stroke="rgb(30.979919%, 56.079102%, 0%)" stroke-opacity="1" stroke-miterlimit="10" d="M 478.949219 338.5 L 547.550781 338.5 " transform="matrix(1, 0, 0, 1, -77, -248)"/>
<path fill="none" stroke-width="5" stroke-linecap="round" stroke-linejoin="round" stroke="rgb(30.979919%, 56.079102%, 0%)" stroke-opacity="1" stroke-miterlimit="10" d="M 484.449219 349.5 L 553.050781 349.5 " transform="matrix(1, 0, 0, 1, -77, -248)"/>
<path fill="none" stroke-width="5" stroke-linecap="round" stroke-linejoin="round" stroke="rgb(30.979919%, 56.079102%, 0%)" stroke-opacity="1" stroke-miterlimit="10" d="M 485.449219 360.5 L 554.050781 360.5 " transform="matrix(1, 0, 0, 1, -77, -248)"/>
<path fill="none" stroke-width="5" stroke-linecap="round" stroke-linejoin="round" stroke="rgb(30.979919%, 56.079102%, 0%)" stroke-opacity="1" stroke-miterlimit="10" d="M 496.449219 371.5 L 565.050781 371.5 " transform="matrix(1, 0, 0, 1, -77, -248)"/>
<path fill="none" stroke-width="5" stroke-linecap="round" stroke-linejoin="round" stroke="rgb(30.979919%, 56.079102%, 0%)" stroke-opacity="1" stroke-miterlimit="10" d="M 503.949219 382.5 L 572.550781 382.5 " transform="matrix(1, 0, 0, 1, -77, -248)"/>
<path fill="none" stroke-width="5" stroke-linecap="round" stroke-linejoin="round" stroke="rgb(30.979919%, 56.079102%, 0%)" stroke-opacity="1" stroke-miterlimit="10" d="M 500.949219 393.5 L 569.550781 393.5 " transform="matrix(1, 0, 0, 1, -77, -248)"/>
<path fill="none" stroke-width="5" stroke-linecap="round" stroke-linejoin="round" stroke="rgb(30.979919%, 56.079102%, 0%)" stroke-opacity="1" stroke-miterlimit="10" d="M 501.949219 404.5 L 570.550781 404.5 " transform="matrix(1, 0, 0, 1, -77, -248)"/>
<path fill="none" stroke-width="5" stroke-linecap="round" stroke-linejoin="round" stroke="rgb(30.979919%, 56.079102%, 0%)" stroke-opacity="1" stroke-miterlimit="10" d="M 501.949219 415.5 L 570.550781 415.5 " transform="matrix(1, 0, 0, 1, -77, -248)"/>
<path fill="none" stroke-width="5" stroke-linecap="round" stroke-linejoin="round" stroke="rgb(30.979919%, 56.079102%, 0%)" stroke-opacity="1" stroke-miterlimit="10" d="M 765.617188 337.5 L 834.214844 337.5 " transform="matrix(1, 0, 0, 1, -77, -248)"/>
<path fill="none" stroke-width="5" stroke-linecap="round" stroke-linejoin="round" stroke="rgb(30.979919%, 56.079102%, 0%)" stroke-opacity="1" stroke-miterlimit="10" d="M 770.617188 348.5 L 839.214844 348.5 " transform="matrix(1, 0, 0, 1, -77, -248)"/>
<path fill="none" stroke-width="5" stroke-linecap="round" stroke-linejoin="round" stroke="rgb(30.979919%, 56.079102%, 0%)" stroke-opacity="1" stroke-miterlimit="10" d="M 559.453125 338.5 L 628.054688 338.5 " transform="matrix(1, 0, 0, 1, -77, -248)"/>
<path fill="none" stroke-width="5" stroke-linecap="round" stroke-linejoin="round" stroke="rgb(30.979919%, 56.079102%, 0%)" stroke-opacity="1" stroke-miterlimit="10" d="M 564.953125 349.5 L 633.554688 349.5 " transform="matrix(1, 0, 0, 1, -77, -248)"/>
<path fill="none" stroke-width="5" stroke-linecap="round" stroke-linejoin="round" stroke="rgb(30.979919%, 56.079102%, 0%)" stroke-opacity="1" stroke-miterlimit="10" d="M 572.953125 360.5 L 641.554688 360.5 " transform="matrix(1, 0, 0, 1, -77, -248)"/>
<path fill="none" stroke-width="5" stroke-linecap="round" stroke-linejoin="round" stroke="rgb(30.979919%, 56.079102%, 0%)" stroke-opacity="1" stroke-miterlimit="10" d="M 640.214844 338.230469 L 708.8125 338.230469 " transform="matrix(1, 0, 0, 1, -77, -248)"/>
<path fill="none" stroke-width="5" stroke-linecap="round" stroke-linejoin="round" stroke="rgb(30.979919%, 56.079102%, 0%)" stroke-opacity="1" stroke-miterlimit="10" d="M 648.214844 349.230469 L 716.8125 349.230469 " transform="matrix(1, 0, 0, 1, -77, -248)"/>
<path fill="none" stroke-width="5" stroke-linecap="round" stroke-linejoin="round" stroke="rgb(30.979919%, 56.079102%, 0%)" stroke-opacity="1" stroke-miterlimit="10" d="M 777.425781 358.5 L 846.023438 358.5 " transform="matrix(1, 0, 0, 1, -77, -248)"/>
<path fill="none" stroke-width="5" stroke-linecap="round" stroke-linejoin="round" stroke="rgb(30.979919%, 56.079102%, 0%)" stroke-opacity="1" stroke-miterlimit="10" d="M 110.089844 339 L 178.691406 339 " transform="matrix(1, 0, 0, 1, -77, -248)"/>
<path fill="none" stroke-width="5" stroke-linecap="round" stroke-linejoin="round" stroke="rgb(30.979919%, 56.079102%, 0%)" stroke-opacity="1" stroke-miterlimit="10" d="M 122.089844 350 L 190.691406 350 " transform="matrix(1, 0, 0, 1, -77, -248)"/>
<path fill="none" stroke-width="5" stroke-linecap="round" stroke-linejoin="round" stroke="rgb(30.979919%, 56.079102%, 0%)" stroke-opacity="1" stroke-miterlimit="10" d="M 127.089844 361 L 195.691406 361 " transform="matrix(1, 0, 0, 1, -77, -248)"/>
<path fill="none" stroke-width="5" stroke-linecap="round" stroke-linejoin="round" stroke="rgb(0%, 32.940674%, 57.647705%)" stroke-opacity="1" stroke-miterlimit="10" d="M 272.953125 250.5 L 867.867188 250.5 " transform="matrix(1, 0, 0, 1, -77, -248)"/>
<path fill="none" stroke-width="5" stroke-linecap="round" stroke-linejoin="round" stroke="rgb(58.039856%, 6.666565%, 0%)" stroke-opacity="1" stroke-miterlimit="10" d="M 198.054688 442.714844 L 628.054688 442.714844 " transform="matrix(1, 0, 0, 1, -77, -248)"/>
<path fill="none" stroke-width="5" stroke-linecap="round" stroke-linejoin="round" stroke="rgb(100%, 14.901733%, 0%)" stroke-opacity="1" stroke-miterlimit="10" d="M 348.949219 452.460938 L 417.546875 452.460938 " transform="matrix(1, 0, 0, 1, -77, -248)"/>
<path fill="none" stroke-width="5" stroke-linecap="round" stroke-linejoin="round" stroke="rgb(100%, 14.901733%, 0%)" stroke-opacity="1" stroke-miterlimit="10" d="M 352.949219 463.460938 L 421.546875 463.460938 " transform="matrix(1, 0, 0, 1, -77, -248)"/>
<path fill="none" stroke-width="5" stroke-linecap="round" stroke-linejoin="round" stroke="rgb(100%, 14.901733%, 0%)" stroke-opacity="1" stroke-miterlimit="10" d="M 353.949219 474.460938 L 422.546875 474.460938 " transform="matrix(1, 0, 0, 1, -77, -248)"/>
<path fill="none" stroke-width="5" stroke-linecap="round" stroke-linejoin="round" stroke="rgb(100%, 14.901733%, 0%)" stroke-opacity="1" stroke-miterlimit="10" d="M 357.949219 485.460938 L 426.546875 485.460938 " transform="matrix(1, 0, 0, 1, -77, -248)"/>
</svg>
