<?xml version="1.0" encoding="UTF-8"?>
<svg xmlns="http://www.w3.org/2000/svg" xmlns:xlink="http://www.w3.org/1999/xlink" width="1440" height="144" viewBox="0 0 1440 144">
<path fill="none" stroke-width="0.75" stroke-linecap="round" stroke-linejoin="round" stroke="rgb(0%, 0%, 0%)" stroke-opacity="1" stroke-miterlimit="10" d="M 53.328125 115.140625 L 54 100.808594 L 54.671875 108.089844 L 55.328125 112.230469 L 56 89.640625 L 56.671875 111.089844 L 57.328125 109.101562 L 58 103.628906 L 58.671875 98.890625 L 59.328125 107.140625 L 60 103.019531 L 60.671875 75.160156 L 61.328125 98.96875 L 62 81.710938 L 62.671875 72.058594 L 63.328125 85.269531 L 64 81.261719 L 64.671875 59.738281 L 65.328125 46.851562 L 66 61.980469 L 66.671875 51.46875 L 67.328125 44.96875 L 68 56.378906 L 68.671875 38.140625 L 69.328125 38.589844 L 70 39.851562 L 70.671875 38.160156 L 71.328125 44.710938 L 72 31.671875 L 72.671875 43.910156 L 73.328125 34.601562 L 74 43 L 74.671875 51.941406 L 75.328125 52.46875 L 76 58.289062 L 76.671875 56.25 L 77.328125 80.75 L 78 82.089844 L 78.671875 76.691406 L 79.328125 88.171875 L 80 73.238281 L 80.671875 88.320312 L 81.328125 92.628906 L 82 94.269531 L 82.671875 89.410156 L 83.328125 125.21875 L 84 110.449219 L 84.671875 97.828125 L 85.328125 114.21875 L 86 105.269531 L 86.671875 86.03125 L 87.328125 111.738281 L 88 95.941406 L 88.671875 96.078125 L 89.328125 94.019531 L 90 95.691406 L 90.671875 77.851562 L 91.328125 91.410156 L 92 91.890625 L 92.671875 92.738281 L 93.328125 80.160156 L 94 82.179688 L 94.671875 85.398438 L 95.328125 77.921875 L 96 81.25 L 96.671875 60.890625 L 97.328125 76.78125 L 98 70.261719 L 98.671875 62.460938 L 99.328125 75.769531 L 100 57.359375 L 100.671875 57.238281 L 101.328125 63.71875 L 102 62.308594 L 102.671875 51.828125 L 103.328125 66.230469 L 104 63.929688 L 104.671875 48.570312 L 105.328125 72.121094 L 106 51.558594 L 106.671875 60.121094 L 107.328125 82.828125 L 108 72.578125 L 108.671875 84.320312 L 109.328125 61.078125 L 110 72.351562 L 110.671875 78.550781 L 111.328125 87.089844 L 112 61.660156 L 112.671875 63.859375 L 113.328125 60.300781 L 114 55.25 L 114.671875 67.789062 L 115.328125 56.878906 L 116 66.820312 L 116.671875 56.808594 L 117.328125 60.300781 L 118 43.949219 L 118.671875 72.96875 L 119.328125 62.648438 L 120 36.609375 L 120.671875 65.890625 L 121.328125 74.660156 L 122 45.109375 L 122.671875 51.011719 L 123.328125 62.820312 L 124 44.390625 L 124.671875 61.191406 L 125.328125 54.929688 L 126 47.179688 L 126.671875 44.101562 L 127.328125 49.058594 L 128 51.300781 L 128.671875 69.800781 L 129.328125 57.199219 L 130 66.820312 L 130.671875 68.320312 L 131.328125 72.03125 L 132 62.011719 L 132.671875 76.679688 L 133.328125 75.460938 L 134 85.019531 L 134.671875 86.398438 L 135.328125 82 L 136 87.070312 L 136.671875 96.328125 L 137.328125 85.921875 L 138 87.53125 L 138.671875 80.558594 L 139.328125 82.058594 L 140 89.371094 L 140.671875 77.71875 L 141.328125 72.328125 L 142 78.769531 L 142.671875 91.539062 L 143.328125 60.339844 L 144 79.078125 L 144.671875 64.929688 L 145.328125 62.960938 L 146 48.539062 L 146.671875 57.558594 L 147.328125 80.75 L 148 37.828125 L 148.671875 45.859375 L 149.328125 42.679688 L 150 33.011719 L 150.671875 39.820312 L 151.328125 42.25 L 152 16.019531 L 152.671875 10.199219 L 153.328125 24.601562 L 154 22.238281 L 154.671875 11.5 L 155.328125 20.488281 L 156 22.03125 L 156.671875 24.878906 L 157.328125 38.191406 L 158 28.160156 L 158.671875 36.261719 L 159.328125 35.800781 L 160 36.398438 L 160.671875 38.839844 L 161.328125 51.511719 L 162 59.640625 L 162.671875 52.050781 L 163.328125 67.261719 L 164 68.328125 L 164.671875 64.070312 L 165.328125 67.621094 L 166 72.910156 L 166.671875 88.710938 L 167.328125 89.109375 L 168 82.699219 L 168.671875 99.289062 L 169.328125 79.53125 L 170 88.058594 L 170.671875 85.640625 L 171.328125 92.21875 L 172 76.148438 L 172.671875 87.988281 L 173.328125 69.710938 L 174 77.648438 L 174.671875 69.828125 L 175.328125 83.28125 L 176 58.078125 L 176.671875 74.351562 L 177.328125 50.070312 L 178 59.929688 L 178.671875 52.898438 L 179.328125 58.308594 L 180 57.121094 L 180.671875 37.660156 L 181.328125 53.039062 L 182 44.53125 L 182.671875 61.210938 L 183.328125 44.941406 L 184 39.25 L 184.671875 45.351562 L 185.328125 60.960938 L 186 49.039062 L 186.671875 46.851562 L 187.328125 39.53125 L 188 35.570312 L 188.671875 53.21875 L 189.328125 53.691406 L 190 57.898438 L 190.671875 36.878906 L 191.328125 51.621094 L 192 53.628906 L 192.671875 36.609375 L 193.328125 52.570312 L 194 55.789062 L 194.671875 57.089844 L 195.328125 57.398438 L 196 51.460938 L 196.671875 46.011719 L 197.328125 58.570312 L 198 59.53125 L 198.671875 55.328125 L 199.328125 35.269531 L 200 51.210938 L 200.671875 65.390625 L 201.328125 54.660156 L 202 45.738281 L 202.671875 49.769531 L 203.328125 53.28125 L 204 41.859375 L 204.671875 59.96875 L 205.328125 62.101562 L 206 38.171875 L 206.671875 40.71875 L 207.328125 11.03125 L 208 49 L 208.671875 56.859375 L 209.328125 51.71875 L 210 42.199219 L 210.671875 57.101562 L 211.328125 49.820312 L 212 47.890625 L 212.671875 52.550781 L 213.328125 45.511719 L 214 58.460938 L 214.671875 50.050781 L 215.328125 58.710938 L 216 69.789062 L 216.671875 73.96875 L 217.328125 75.550781 L 218 61.078125 L 218.671875 71.550781 L 219.328125 63.921875 L 220 74.289062 L 220.671875 83.578125 L 221.328125 90.109375 L 222 95.859375 L 222.671875 77.539062 L 223.328125 81.46875 L 224 82.539062 L 224.671875 77.691406 L 225.328125 81.191406 L 226 91.769531 L 226.671875 81.96875 L 227.328125 68.839844 L 228 75.570312 L 228.671875 62.421875 L 229.328125 61.671875 L 230 54.691406 L 230.671875 48.289062 L 231.328125 59.761719 L 232 49.101562 L 232.671875 34.011719 L 233.328125 36.570312 L 234 36.390625 L 234.671875 29.691406 L 235.328125 30.910156 L 236 28.871094 L 236.671875 14.449219 L 237.328125 16 L 238 9.390625 L 238.671875 30.121094 L 239.328125 5.328125 L 240 35.011719 L 240.671875 37.101562 L 241.328125 26.851562 L 242 22.960938 L 242.671875 37.949219 L 243.328125 33.871094 L 244 34.71875 L 244.671875 39.789062 L 245.328125 42.011719 L 246 63.898438 L 246.671875 50.75 L 247.328125 82.589844 L 248 64.28125 L 248.671875 81.238281 L 249.328125 73.328125 L 250 85.558594 L 250.671875 61.691406 L 251.328125 96.851562 L 252 72.820312 L 252.671875 83.320312 L 253.328125 88.191406 L 254 88.890625 L 254.671875 90.980469 L 255.328125 99.371094 L 256 95.871094 L 256.671875 76.621094 L 257.328125 77.78125 L 258 81.371094 L 258.671875 95.859375 L 259.328125 73.960938 L 260 69.441406 L 260.671875 77.46875 L 261.328125 75.371094 L 262 78.480469 L 262.671875 74.660156 L 263.328125 63.640625 L 264 63.71875 L 264.671875 60.308594 L 265.328125 47.238281 L 266 43.71875 L 266.671875 49.019531 L 267.328125 55.539062 L 268 55.929688 L 268.671875 55.441406 L 269.328125 55.539062 L 270 66.929688 L 270.671875 50.601562 L 271.328125 57.460938 L 272 49.191406 L 272.671875 66.21875 L 273.328125 65.808594 L 274 60.808594 L 274.671875 61.898438 L 275.328125 64.308594 L 276 65.839844 L 276.671875 38.320312 L 277.328125 65.078125 L 278 69.761719 L 278.671875 72.050781 L 279.328125 70.589844 L 280 75.789062 L 280.671875 66.328125 L 281.328125 61.878906 L 282 68.089844 L 282.671875 68.019531 L 283.328125 71.21875 L 284 60.648438 L 284.671875 62.511719 L 285.328125 91.789062 L 286 64.238281 L 286.671875 75.921875 L 287.328125 61.808594 L 288 64.890625 L 288.671875 66.789062 L 289.328125 58.871094 L 290 45.789062 L 290.671875 45.339844 L 291.328125 66.378906 L 292 61.011719 L 292.671875 49.980469 L 293.328125 57.328125 L 294 76.859375 L 294.671875 59.238281 L 295.328125 64.53125 L 296 58.398438 L 296.671875 66.699219 L 297.328125 78.25 L 298 72.339844 L 298.671875 65.109375 L 299.328125 69.480469 L 300 72.960938 L 300.671875 91.289062 L 301.328125 80.648438 L 302 87.410156 L 302.671875 92.128906 L 303.328125 95.601562 L 304 93.28125 L 304.671875 104.859375 L 305.328125 112.050781 L 306 101.238281 L 306.671875 103.628906 L 307.328125 109.578125 L 308 98.21875 L 308.671875 89.679688 L 309.328125 92.300781 L 310 98.539062 L 310.671875 77.820312 L 311.328125 84.078125 L 312 81.300781 L 312.671875 81.671875 L 313.328125 86.25 L 314 73.058594 L 314.671875 65.339844 L 315.328125 59.898438 L 316 61.339844 L 316.671875 63.898438 L 317.328125 47.660156 L 318 42.628906 L 318.671875 46.039062 L 319.328125 39.769531 L 320 39.621094 L 320.671875 52.839844 L 321.328125 59.128906 L 322 44 L 322.671875 30.738281 L 323.328125 48.160156 L 324 58.871094 L 324.671875 35.710938 L 325.328125 47.679688 L 326 62.78125 L 326.671875 60.089844 L 327.328125 62.769531 L 328 64.699219 L 328.671875 76.058594 L 329.328125 92.851562 L 330 70.609375 L 330.671875 83.96875 L 331.328125 96.269531 L 332 85.671875 L 332.671875 92.378906 L 333.328125 93.910156 L 334 91.421875 L 334.671875 106.96875 L 335.328125 115.359375 L 336 126.078125 L 336.671875 115.738281 L 337.328125 95.210938 L 338 108.328125 L 338.671875 114.871094 L 339.328125 116.050781 L 340 120.96875 L 340.671875 112.25 L 341.328125 100.109375 L 342 102.378906 L 342.671875 104.339844 L 343.328125 105.449219 L 344 93.941406 L 344.671875 100.140625 L 345.328125 89.800781 L 346 80.339844 L 346.671875 88.261719 L 347.328125 107.238281 L 348 79.679688 L 348.671875 83.730469 L 349.328125 81.421875 L 350 59.898438 L 350.671875 72.460938 L 351.328125 73 L 352 88.289062 L 352.671875 75.441406 L 353.328125 78.058594 L 354 79.390625 L 354.671875 76 L 355.328125 77.089844 L 356 55.320312 L 356.671875 93.460938 L 357.328125 78.199219 L 358 82.261719 L 358.671875 71.199219 L 359.328125 100.628906 L 360 67.628906 L 360.671875 85.539062 L 361.328125 76.179688 L 362 80.898438 L 362.671875 95.660156 L 363.328125 86.941406 L 364 90.101562 L 364.671875 90.949219 L 365.328125 91.25 L 366 88.550781 L 366.671875 75.960938 L 367.328125 75.179688 L 368 90.089844 L 368.671875 80.308594 L 369.328125 85.941406 L 370 74.378906 L 370.671875 101.300781 L 371.328125 86.28125 L 372 93.519531 L 372.671875 77.078125 L 373.328125 71.28125 L 374 78.230469 L 374.671875 68.160156 L 375.328125 76.621094 L 376 74.339844 L 376.671875 73.039062 L 377.328125 71.828125 L 378 65.710938 L 378.671875 72.699219 L 379.328125 89.609375 L 380 87.410156 L 380.671875 92.488281 L 381.328125 101.390625 L 382 100.289062 L 382.671875 91.230469 L 383.328125 97.570312 L 384 90.75 L 384.671875 98.039062 L 385.328125 95.429688 L 386 111.101562 L 386.671875 116.828125 L 387.328125 116.160156 L 388 129.898438 L 388.671875 116.640625 L 389.328125 114.101562 L 390 119.601562 L 390.671875 130.480469 L 391.328125 112.921875 L 392 130.449219 L 392.671875 118.121094 L 393.328125 111.578125 L 394 108.949219 L 394.671875 103.050781 L 395.328125 87.929688 L 396 107.800781 L 396.671875 101.820312 L 397.328125 93.75 L 398 86.691406 L 398.671875 72.660156 L 399.328125 73.511719 L 400 73.449219 L 400.671875 63.371094 L 401.328125 61.171875 L 402 69.238281 L 402.671875 64.859375 L 403.328125 56.730469 L 404 59.519531 L 404.671875 38.050781 L 405.328125 57.238281 L 406 46.449219 L 406.671875 41.570312 L 407.328125 65.199219 L 408 62.339844 L 408.671875 64.351562 L 409.328125 60.160156 L 410 68.191406 L 410.671875 60.570312 L 411.328125 57.910156 L 412 77.660156 L 412.671875 77.011719 L 413.328125 87.71875 L 414 78.011719 L 414.671875 90.550781 L 415.328125 83.878906 L 416 97.800781 L 416.671875 112.941406 L 417.328125 119.808594 L 418 107.160156 L 418.671875 117.050781 L 419.328125 117.691406 L 420 112.410156 L 420.671875 119.75 L 421.328125 119.761719 L 422 117.898438 L 422.671875 108.96875 L 423.328125 107.808594 L 424 107.949219 L 424.671875 113.648438 L 425.328125 110.808594 L 426 104.398438 L 426.671875 92.289062 L 427.328125 100.238281 L 428 97.140625 L 428.671875 84.191406 L 429.328125 98.78125 L 430 101.789062 L 430.671875 73.691406 L 431.328125 80.761719 L 432 107.351562 L 432.671875 48.539062 L 433.328125 73.988281 L 434 68.109375 L 434.671875 94.878906 L 435.328125 89.628906 L 436 78.578125 L 436.671875 83.78125 L 437.328125 67.941406 L 438 83.789062 L 438.671875 75.789062 L 439.328125 91.578125 L 440 65.140625 L 440.671875 91.800781 L 441.328125 76.519531 L 442 94.980469 L 442.671875 86.160156 L 443.328125 95.03125 L 444 88.761719 L 444.671875 85.640625 L 445.328125 85.890625 L 446 83.96875 L 446.671875 78.75 L 447.328125 99.960938 L 448 87.871094 L 448.671875 97.710938 L 449.328125 83.460938 L 450 82.140625 L 450.671875 78.320312 L 451.328125 99.050781 L 452 81.398438 L 452.671875 87.261719 L 453.328125 67.96875 L 454 73.539062 L 454.671875 76.390625 L 455.328125 72.078125 L 456 72.230469 L 456.671875 79.828125 L 457.328125 76.429688 L 458 78.511719 L 458.671875 67.320312 L 459.328125 71.210938 L 460 62.871094 L 460.671875 74.839844 L 461.328125 71.96875 L 462 71.171875 L 462.671875 86.320312 L 463.328125 86.421875 L 464 77.378906 L 464.671875 93.679688 L 465.328125 89.871094 L 466 86.101562 L 466.671875 94.351562 L 467.328125 83.949219 L 468 88.308594 L 468.671875 104.539062 L 469.328125 108.679688 L 470 104.359375 L 470.671875 101.429688 L 471.328125 104.71875 L 472 108.488281 L 472.671875 105.578125 L 473.328125 106.480469 L 474 109.660156 L 474.671875 103.808594 L 475.328125 111.21875 L 476 102.878906 L 476.671875 102.269531 L 477.328125 108.980469 L 478 111.160156 L 478.671875 106.550781 L 479.328125 94.890625 L 480 84.871094 L 480.671875 81.058594 L 481.328125 82.050781 L 482 67.78125 L 482.671875 72.398438 L 483.328125 73.648438 L 484 66 L 484.671875 64.53125 L 485.328125 63.980469 L 486 53.359375 L 486.671875 38.980469 L 487.328125 56.910156 L 488 54.808594 L 488.671875 33.441406 L 489.328125 37.488281 L 490 29.75 L 490.671875 35.519531 L 491.328125 47 L 492 61.691406 L 492.671875 46.179688 L 493.328125 55.109375 L 494 59.171875 L 494.671875 60.480469 L 495.328125 48.019531 L 496 51.300781 L 496.671875 83.039062 L 497.328125 58.460938 L 498 83.941406 L 498.671875 78.539062 L 499.328125 88.449219 L 500 79.421875 L 500.671875 89.449219 L 501.328125 103.691406 L 502 124.351562 L 502.671875 79.308594 L 503.328125 93.050781 L 504 92.960938 L 504.671875 107.609375 L 505.328125 92.648438 L 506 105.089844 L 506.671875 82.28125 L 507.328125 90.539062 L 508 104.289062 L 508.671875 96.949219 L 509.328125 111.089844 L 510 83.191406 L 510.671875 92.699219 L 511.328125 100.710938 L 512 91.78125 L 512.671875 94.21875 L 513.328125 65.101562 L 514 79.511719 L 514.671875 58.570312 L 515.328125 81.949219 L 516 64.738281 L 516.671875 75.089844 L 517.328125 86.878906 L 518 51.128906 L 518.671875 60.808594 L 519.328125 65.738281 L 520 58.878906 L 520.671875 35 L 521.328125 54.390625 L 522 51.988281 L 522.671875 57.210938 L 523.328125 58.339844 L 524 59.320312 L 524.671875 58.308594 L 525.328125 60.109375 L 526 63.179688 L 526.671875 69.699219 L 527.328125 67.851562 L 528 85.289062 L 528.671875 66.929688 L 529.328125 67.878906 L 530 62.328125 L 530.671875 75.921875 L 531.328125 68.429688 L 532 67.550781 L 532.671875 47.878906 L 533.328125 73.21875 L 534 63.011719 L 534.671875 46.769531 L 535.328125 65.480469 L 536 56.679688 L 536.671875 50.890625 L 537.328125 53.460938 L 538 47.101562 L 538.671875 66.480469 L 539.328125 61.078125 L 540 40 L 540.671875 49.660156 L 541.328125 50.519531 L 542 30.539062 L 542.671875 49.238281 L 543.328125 47.308594 L 544 42.25 L 544.671875 51 L 545.328125 51.390625 L 546 62.730469 L 546.671875 55.039062 L 547.328125 64.898438 L 548 62.210938 L 548.671875 56.339844 L 549.328125 60.800781 L 550 91.960938 L 550.671875 63.148438 L 551.328125 70.109375 L 552 83.511719 L 552.671875 91.460938 L 553.328125 78.230469 L 554 91.410156 L 554.671875 98.570312 L 555.328125 92.128906 L 556 92.761719 L 556.671875 73.050781 L 557.328125 103.261719 L 558 77.171875 L 558.671875 93.511719 L 559.328125 71.550781 L 560 89.058594 L 560.671875 79.71875 L 561.328125 82.191406 L 562 81.550781 L 562.671875 75.519531 L 563.328125 75.429688 L 564 72.480469 L 564.671875 58.828125 L 565.328125 65.71875 L 566.671875 53.421875 L 567.328125 64.828125 L 568 26.488281 L 568.671875 28.019531 L 569.328125 20.941406 L 570 32.199219 L 570.671875 31.351562 L 571.328125 43.050781 L 572 20.28125 L 572.671875 30.871094 L 573.328125 16.96875 L 574 8.898438 L 574.671875 15.261719 L 575.328125 9.320312 L 576 18.578125 L 576.671875 26.421875 L 577.328125 33.691406 L 578 26.691406 L 578.671875 27.429688 L 579.328125 40.25 L 580 16.761719 L 580.671875 59.179688 L 581.328125 48.21875 L 582 78.738281 L 582.671875 62.261719 L 583.328125 73.269531 L 584 71.519531 L 584.671875 65.769531 L 585.328125 64.578125 L 586 82.640625 L 586.671875 84.570312 L 587.328125 91.109375 L 588 76.429688 L 588.671875 98.070312 L 589.328125 87.148438 L 590 82.761719 L 590.671875 84 L 591.328125 86.480469 L 592 76.828125 L 592.671875 76.210938 L 593.328125 90.710938 L 594 82.128906 L 594.671875 88.128906 L 595.328125 87.949219 L 596 73.808594 L 596.671875 64.53125 L 597.328125 69.640625 L 598 45.679688 L 598.671875 70.089844 L 599.328125 56.710938 L 600 57.890625 L 600.671875 42.421875 L 601.328125 25.949219 L 602 47.570312 L 602.671875 25.238281 L 603.328125 53.789062 L 604 49.460938 L 604.671875 51.171875 L 605.328125 39.410156 L 606 25.398438 L 606.671875 49.339844 L 607.328125 43.210938 L 608 48.101562 L 608.671875 36.871094 L 609.328125 41.148438 L 610 41.121094 L 610.671875 47.578125 L 611.328125 37.75 L 612 60.410156 L 612.671875 54.429688 L 613.328125 41.78125 L 614 56.441406 L 614.671875 54.03125 L 615.328125 62.011719 L 616 41.300781 L 616.671875 48.140625 L 617.328125 44.480469 L 618 43.699219 L 618.671875 53.191406 L 619.328125 53 L 620 43.28125 L 620.671875 50.589844 L 621.328125 56.921875 L 622 53.039062 L 622.671875 35.609375 L 623.328125 27.359375 L 624 48.789062 L 624.671875 58.519531 L 625.328125 49.761719 L 626 38.339844 L 626.671875 40.160156 L 627.328125 49.28125 L 628 52.839844 L 628.671875 24.921875 L 629.328125 42.25 L 630 57.050781 L 630.671875 54.328125 L 631.328125 36.109375 L 632 51.25 L 632.671875 52.578125 L 633.328125 54.019531 L 634 62.03125 L 634.671875 72.578125 L 635.328125 67.078125 L 636 81.898438 L 636.671875 60.699219 L 637.328125 82.460938 L 638 66.710938 L 638.671875 94 L 639.328125 84.441406 L 640 73.410156 L 640.671875 77.730469 L 641.328125 83.78125 L 642 86.28125 L 642.671875 66.28125 L 643.328125 71.5 L 644 78.171875 L 644.671875 77.761719 L 645.328125 74.890625 L 646 79.148438 L 646.671875 79.621094 L 647.328125 68.441406 L 648 65.929688 L 648.671875 57.269531 L 649.328125 64 L 650 53.058594 L 650.671875 47.738281 L 651.328125 42.011719 L 652 25.910156 L 652.671875 23.601562 L 653.328125 35.898438 L 654 34.558594 L 654.671875 33.339844 L 655.328125 39.351562 L 656 38.191406 L 656.671875 17.921875 L 657.328125 28.570312 L 658 37.320312 L 658.671875 24.550781 L 659.328125 26.609375 L 660 38.359375 L 660.671875 38.78125 L 661.328125 31.929688 L 662 22.628906 L 662.671875 45.710938 L 663.328125 40.238281 L 664 35.398438 L 664.671875 50.75 L 665.328125 46.75 L 666 41.851562 L 666.671875 64.878906 L 667.328125 61.378906 L 668 82.128906 L 668.671875 73.78125 L 669.328125 84.511719 L 670 90.171875 L 670.671875 94.671875 L 671.328125 83.671875 L 672 96.328125 L 672.671875 69.328125 L 673.328125 91.738281 L 674 79.988281 L 674.671875 80.121094 L 675.328125 88.648438 L 676 92.28125 L 676.671875 77.78125 L 677.328125 68.390625 L 678 69.390625 L 678.671875 70.570312 L 679.328125 77.71875 L 680 52.449219 L 680.671875 66.570312 L 681.328125 78.910156 L 682 73.441406 L 682.671875 72.21875 L 683.328125 54.691406 L 684 44.28125 L 684.671875 70.488281 L 685.328125 43.820312 L 686 50.308594 L 686.671875 40.289062 L 687.328125 52.46875 L 688 55.140625 L 688.671875 45.058594 L 689.328125 59.570312 L 690 44.808594 L 690.671875 34.929688 L 691.328125 62.910156 L 692 52.890625 L 692.671875 57.550781 L 693.328125 62.128906 L 694 74.46875 L 694.671875 39.300781 L 695.328125 69.878906 L 696 58.851562 L 696.671875 53.210938 L 697.328125 73.921875 L 698 66.199219 L 698.671875 76.679688 L 699.328125 62.230469 L 700 58.539062 L 700.671875 46.949219 L 701.328125 67.421875 L 702 65.449219 L 702.671875 54.898438 L 703.328125 54.871094 L 704 53.488281 L 704.671875 84.75 L 705.328125 54.648438 L 706 55.199219 L 706.671875 55.121094 L 707.328125 58.191406 L 708 35.429688 L 708.671875 70.601562 L 709.328125 62.070312 L 710 47.449219 L 710.671875 74.710938 L 711.328125 69.609375 L 712 69.789062 L 712.671875 50.089844 L 713.328125 74.730469 L 714 57.320312 L 714.671875 59.648438 L 715.328125 82.589844 L 716 70.429688 L 716.671875 74.941406 L 717.328125 75.019531 L 718 88.609375 L 718.671875 82.011719 L 719.328125 80.25 L 720 89.710938 L 720.671875 86.75 L 721.328125 105.980469 L 722 95.789062 L 722.671875 98.820312 L 723.328125 115.53125 L 724 105.230469 L 724.671875 102.269531 L 725.328125 99.761719 L 726 102.621094 L 726.671875 96.660156 L 727.328125 77.929688 L 728 106.761719 L 728.671875 96.988281 L 729.328125 79.96875 L 730 94.929688 L 730.671875 70.890625 L 731.328125 84.550781 L 732 76.289062 L 732.671875 81.578125 L 733.328125 60.039062 L 734 69.640625 L 734.671875 73.519531 L 735.328125 69.078125 L 736 69.660156 L 736.671875 43.511719 L 737.328125 40.328125 L 738 35.140625 L 738.671875 42.738281 L 739.328125 42.628906 L 740 30.511719 L 740.671875 44.230469 L 741.328125 44.371094 L 742 35.371094 L 742.671875 49.351562 L 743.328125 35.128906 L 744 62.480469 L 744.671875 54.269531 L 745.328125 43.550781 L 746 58.410156 L 746.671875 63.039062 L 747.328125 61.308594 L 748 71.359375 L 748.671875 85.210938 L 749.328125 77.480469 L 750 79.289062 L 750.671875 94.839844 L 751.328125 99.96875 L 752 84.769531 L 752.671875 101.390625 L 753.328125 91.039062 L 754 115.308594 L 754.671875 100.621094 L 755.328125 127.78125 L 756 115.210938 L 756.671875 109.96875 L 757.328125 97.789062 L 758 94.871094 L 758.671875 129.550781 L 759.328125 114.140625 L 760 117.070312 L 760.671875 117.230469 L 761.328125 118.5 L 762 94.25 L 762.671875 101.320312 L 763.328125 89.871094 L 764 89.960938 L 764.671875 76.871094 L 765.328125 86.820312 L 766 94.28125 L 766.671875 80.988281 L 767.328125 72.921875 L 768 73.679688 L 768.671875 68.078125 L 769.328125 69.011719 L 770 61.429688 L 770.671875 57.71875 L 771.328125 69.648438 L 772 63.859375 L 772.671875 74.800781 L 773.328125 73.738281 L 774 65.671875 L 774.671875 70.28125 L 775.328125 97.570312 L 776 55.261719 L 776.671875 71.160156 L 777.328125 76.371094 L 778 75.171875 L 778.671875 65.339844 L 779.328125 95.449219 L 780 89.160156 L 780.671875 92.078125 L 781.328125 82.339844 L 782 79.671875 L 782.671875 68.101562 L 783.328125 84.871094 L 784 83.25 L 784.671875 90.539062 L 785.328125 88.128906 L 786 86.480469 L 786.671875 76.621094 L 787.328125 77.691406 L 788 87.351562 L 788.671875 93.089844 L 789.328125 78.441406 L 790 74.601562 L 790.671875 73.378906 L 791.328125 75.101562 L 792 73.941406 L 792.671875 70.441406 L 793.328125 88.839844 L 794 63.558594 L 794.671875 85.269531 L 795.328125 91.589844 L 796 82.730469 L 796.671875 78.191406 L 797.328125 78.019531 L 798 76.851562 L 798.671875 89.019531 L 799.328125 80.089844 L 800 92.800781 L 800.671875 93.300781 L 801.328125 112.289062 L 802 113.089844 L 802.671875 98.78125 L 803.328125 97.839844 L 804 97.191406 L 804.671875 105.179688 L 805.328125 107.921875 L 806 121.738281 L 806.671875 118.480469 L 807.328125 116.429688 L 808 128.089844 L 808.671875 117.140625 L 809.328125 111.171875 L 810 121.921875 L 810.671875 120.710938 L 811.328125 117.871094 L 812 110.308594 L 812.671875 106.808594 L 813.328125 115.921875 L 814 105.808594 L 814.671875 101.148438 L 815.328125 88.851562 L 816 101.820312 L 816.671875 97.988281 L 817.328125 80.96875 L 818 68.390625 L 818.671875 74.539062 L 819.328125 69.539062 L 820 63.359375 L 820.671875 65.359375 L 821.328125 68.71875 L 822 52.640625 L 822.671875 55.480469 L 823.328125 48.660156 L 824 58.058594 L 824.671875 37.390625 L 825.328125 54.269531 L 826 44.929688 L 826.671875 67.320312 L 827.328125 48.621094 L 828 70.839844 L 828.671875 61.171875 L 829.328125 69.570312 L 830 69.871094 L 830.671875 68.53125 L 831.328125 84.699219 L 832 77.269531 L 832.671875 86.53125 L 833.328125 89.929688 L 834 90.171875 L 834.671875 98.378906 L 835.328125 118.109375 L 836 102.898438 L 836.671875 125.570312 L 837.328125 112.128906 L 838 128.769531 L 838.671875 131.039062 L 839.328125 128.839844 L 840 110.53125 L 840.671875 104.71875 L 841.328125 109.800781 L 842 109.03125 L 842.671875 130.960938 L 843.328125 112.539062 L 844 126.210938 L 844.671875 80.308594 L 845.328125 108.25 L 846 99.78125 L 846.671875 104.121094 L 847.328125 95.128906 L 848 87.339844 L 848.671875 78.800781 L 849.328125 90.628906 L 850 83.691406 L 850.671875 79.910156 L 851.328125 70.828125 L 852 68.890625 L 852.671875 87.449219 L 853.328125 73.320312 L 854 85.550781 L 854.671875 80.28125 L 855.328125 75.328125 L 856 73.078125 L 856.671875 67.589844 L 857.328125 81.320312 L 858 87.140625 L 858.671875 71.148438 L 859.328125 80.179688 L 860 77.601562 L 860.671875 72.140625 L 861.328125 87.171875 L 862 89.449219 L 862.671875 74.910156 L 863.328125 70.558594 L 864 78.410156 L 864.671875 81.308594 L 865.328125 80.171875 L 866 82.511719 L 866.671875 103.539062 L 867.328125 81.261719 L 868 66.859375 L 868.671875 79.859375 L 869.328125 93.871094 L 870 77.179688 L 870.671875 81.929688 L 871.328125 69.578125 L 872 80.128906 L 872.671875 88.851562 L 873.328125 64.910156 L 874 79.691406 L 874.671875 61.839844 L 875.328125 72.980469 L 876 71.671875 L 876.671875 78.308594 L 877.328125 66.488281 L 878 62.511719 L 878.671875 65.808594 L 879.328125 66.328125 L 880 88.058594 L 880.671875 80.988281 L 881.328125 72.871094 L 882 73.699219 L 882.671875 83.78125 L 883.328125 91.960938 L 884 90.121094 L 884.671875 96.710938 L 885.328125 82.820312 L 886 93.789062 L 886.671875 93.199219 L 887.328125 87.78125 L 888 102.21875 L 888.671875 118.328125 L 889.328125 121.089844 L 890 100.371094 L 890.671875 104.839844 L 891.328125 95.070312 L 892 120.75 L 892.671875 95.46875 L 893.328125 99.738281 L 894 122.828125 L 894.671875 106.609375 L 895.328125 119.53125 L 896 118.109375 L 896.671875 110.058594 L 897.328125 86.320312 L 898 93.488281 L 898.671875 92.261719 L 899.328125 83.261719 L 900 76.371094 L 900.671875 73.089844 L 901.328125 80.160156 L 902 80.109375 L 902.671875 56.828125 L 903.328125 42.761719 L 904 48.089844 L 904.671875 59.328125 L 905.328125 43.691406 L 906 49.539062 L 906.671875 29.160156 L 907.328125 29.691406 L 908 51.898438 L 908.671875 48.398438 L 909.328125 43.71875 L 910 41.550781 L 910.671875 43.890625 L 911.328125 40.238281 L 912 53.109375 L 912.671875 36.171875 L 913.328125 56.890625 L 914 53.089844 L 914.671875 69.179688 L 915.328125 53.660156 L 916 77.921875 L 916.671875 70.53125 L 917.328125 93.941406 L 918 81.800781 L 918.671875 88.691406 L 919.328125 90.261719 L 920 103.011719 L 920.671875 116.859375 L 921.328125 88.648438 L 922 115.390625 L 922.671875 108.261719 L 923.328125 83.648438 L 924 119.03125 L 924.671875 85.699219 L 925.328125 96.578125 L 926 105.429688 L 926.671875 108.640625 L 927.328125 111.019531 L 928 111.519531 L 928.671875 94.199219 L 929.328125 90.609375 L 930 78.980469 L 930.671875 83.761719 L 931.328125 82.601562 L 932 76.621094 L 932.671875 74.148438 L 933.328125 79.5 L 934 78.261719 L 934.671875 47.910156 L 935.328125 60.488281 L 936 66.339844 L 936.671875 46.601562 L 937.328125 63.53125 L 938 59.339844 L 938.671875 51.109375 L 939.328125 62.539062 L 940 71.078125 L 940.671875 54.070312 L 941.328125 70.25 L 942 45.148438 L 942.671875 64.410156 L 943.328125 49.730469 L 944 51.269531 L 944.671875 58.289062 L 945.328125 71 L 946 65.660156 L 946.671875 52.359375 L 947.328125 64.761719 L 948 73.378906 L 948.671875 70.578125 L 949.328125 60.53125 L 950 63.988281 L 950.671875 63.628906 L 951.328125 79.339844 L 952 61.410156 L 952.671875 76.578125 L 953.328125 72.300781 L 954 67.441406 L 954.671875 50.480469 L 955.328125 62.550781 L 956 60.058594 L 956.671875 62.710938 L 957.328125 58.988281 L 958 54.441406 L 958.671875 65.140625 L 959.328125 53.871094 L 960 57.050781 L 960.671875 58.378906 L 961.328125 52.019531 L 962 58.25 L 962.671875 53.210938 L 963.328125 48.550781 L 964 46.050781 L 964.671875 58.960938 L 965.328125 59.160156 L 966 70.808594 L 966.671875 39.730469 L 967.328125 54.890625 L 968 67.898438 L 968.671875 60.898438 L 969.328125 81.398438 L 970 78.328125 L 970.671875 67.859375 L 971.328125 99.28125 L 972 83.621094 L 972.671875 92.710938 L 973.328125 95.890625 L 974 84.460938 L 974.671875 89.71875 L 975.328125 84.351562 L 976 99.449219 L 976.671875 80.25 L 977.328125 88.398438 L 978 96.230469 L 978.671875 82.199219 L 979.328125 97.519531 L 980 70.761719 L 980.671875 84.96875 L 981.328125 63.339844 L 982 64.050781 L 982.671875 56.03125 L 983.328125 68.140625 L 984 66.769531 L 984.671875 51.039062 L 985.328125 46.820312 L 986 49.859375 L 986.671875 49.261719 L 987.328125 41.421875 L 988 27.03125 L 988.671875 25.96875 L 989.328125 40.980469 L 990 23.398438 L 990.671875 13.699219 L 991.328125 23.53125 L 992 31.871094 L 992.671875 16.628906 L 993.328125 40.921875 L 994 34.539062 L 994.671875 17.75 L 995.328125 17.179688 L 996 38.390625 L 996.671875 42.339844 L 997.328125 55.109375 L 998 56.820312 L 998.671875 40.980469 L 999.328125 38.808594 L 1000 56.070312 L 1000.671875 70.519531 L 1001.328125 56.328125 L 1002 71.570312 L 1002.671875 71.871094 L 1003.328125 69.589844 L 1004 78.078125 L 1004.671875 71.878906 L 1005.328125 78.25 L 1006 109.289062 L 1006.671875 97.820312 L 1007.328125 85.570312 L 1008 96.628906 L 1008.671875 76.429688 L 1009.328125 92.390625 L 1010 86.039062 L 1010.671875 81.058594 L 1011.328125 89.199219 L 1012 80.308594 L 1012.671875 85.171875 L 1013.328125 73.308594 L 1014 69.511719 L 1014.671875 55.640625 L 1015.328125 72.210938 L 1016 61.25 L 1016.671875 59.53125 L 1017.328125 59.839844 L 1018 47.988281 L 1018.671875 45.980469 L 1019.328125 38.550781 L 1020 42.921875 L 1020.671875 36.46875 L 1021.328125 39.238281 L 1022 37.550781 L 1022.671875 36.429688 L 1023.328125 28.839844 L 1024 39.039062 L 1024.671875 46.140625 L 1025.328125 37.871094 L 1026 34.078125 L 1026.671875 40.511719 L 1027.328125 35.578125 L 1028 48.480469 L 1028.671875 37.710938 L 1029.328125 63.5 L 1030 49.441406 L 1030.671875 48.089844 L 1031.328125 48.578125 L 1032 53.070312 L 1032.671875 45.828125 L 1033.328125 43.171875 L 1034 75.589844 L 1034.671875 53.75 L 1035.328125 43.308594 L 1036 48.910156 L 1036.671875 44.890625 L 1037.328125 39.148438 L 1038 56.410156 L 1038.671875 48.109375 L 1039.328125 41.910156 L 1040 28.101562 L 1040.671875 37.300781 L 1041.328125 49.03125 L 1042 39.21875 L 1042.671875 46.78125 L 1043.328125 30.398438 L 1044 32.71875 L 1044.671875 11.179688 L 1045.328125 40.730469 L 1046 47.550781 L 1046.671875 48.191406 L 1047.328125 27.261719 L 1048 50.671875 L 1048.671875 51.960938 L 1049.328125 39.308594 L 1050 49.179688 L 1050.671875 65.261719 L 1051.328125 54.308594 L 1052 68.28125 L 1052.671875 60.921875 L 1053.328125 66.5 L 1054 67.179688 L 1054.671875 70.488281 L 1055.328125 73.839844 L 1056 81.769531 L 1056.671875 81.339844 L 1057.328125 93.171875 L 1058 81.640625 L 1058.671875 87.558594 L 1059.328125 84.199219 L 1060 96.769531 L 1060.671875 60.390625 L 1061.328125 89.351562 L 1062 76.609375 L 1062.671875 70.308594 L 1063.328125 77.128906 L 1064 67.980469 L 1064.671875 63.039062 L 1065.328125 66.039062 L 1066 51.300781 L 1066.671875 55.308594 L 1067.328125 56.558594 L 1068 58.101562 L 1068.671875 63.109375 L 1069.328125 60.101562 L 1070 41.019531 L 1070.671875 26.210938 L 1071.328125 31.199219 L 1072 33.558594 L 1072.671875 38.578125 L 1073.328125 25.75 L 1074 33.320312 L 1074.671875 32.238281 L 1075.328125 34.199219 L 1076 10.199219 L 1076.671875 18.5 L 1077.328125 6.519531 L 1078 32.679688 L 1078.671875 21.351562 L 1079.328125 14.578125 L 1080 35.269531 L 1080.671875 26.78125 L 1081.328125 35.738281 L 1082 62.800781 L 1082.671875 50.019531 L 1083.328125 41 L 1084 46.238281 L 1084.671875 56.980469 L 1085.328125 52.941406 L 1086 56.519531 L 1086.671875 79.589844 L 1087.328125 71.480469 L 1088 68.898438 L 1088.671875 86.160156 L 1089.328125 74.359375 L 1090 81.789062 L 1090.671875 79.558594 L 1091.328125 101.179688 L 1092 91.398438 L 1092.671875 95.328125 L 1093.328125 88.378906 L 1094 86.570312 L 1094.671875 86.769531 L 1095.328125 85.679688 L 1096 98.570312 L 1096.671875 83.480469 L 1097.328125 71.511719 L 1098 79.808594 L 1098.671875 79.429688 L 1099.328125 78.851562 L 1100 85.429688 L 1100.671875 52.328125 L 1101.328125 47.808594 L 1102 58.480469 L 1102.671875 51.289062 L 1103.328125 52.28125 L 1104 53.230469 L 1104.671875 43.03125 L 1105.328125 43.25 L 1106 44.511719 L 1106.671875 56.589844 L 1107.328125 73.070312 L 1108 60.941406 L 1108.671875 41.539062 L 1109.328125 46.300781 L 1110 46.011719 L 1110.671875 39.820312 L 1111.328125 41.449219 L 1112 49.578125 L 1112.671875 54.230469 L 1113.328125 60.921875 L 1114 57.960938 L 1114.671875 47.890625 L 1115.328125 66.738281 L 1116 59.03125 L 1116.671875 76.160156 L 1117.328125 87.960938 L 1118 73.839844 L 1118.671875 69.421875 L 1119.328125 65.140625 L 1120 69.671875 L 1120.671875 78.011719 L 1121.328125 80.148438 L 1122 69.25 L 1122.671875 64.25 L 1123.328125 88.351562 L 1124 58.441406 L 1124.671875 72.238281 L 1125.328125 49.421875 L 1126 59.238281 L 1126.671875 61.359375 L 1127.328125 62.230469 L 1128 57.121094 L 1128.671875 68.261719 L 1129.328125 66.730469 L 1130 52.460938 L 1130.671875 53.789062 L 1131.328125 60.589844 L 1132 55.261719 L 1132.671875 67.710938 L 1133.328125 54.371094 L 1134 73.378906 L 1134.671875 85.929688 L 1135.328125 76.839844 L 1136 69.011719 L 1136.671875 65.96875 L 1137.328125 87.949219 L 1138 63.660156 L 1138.671875 82.558594 L 1139.328125 106.601562 L 1140 100.371094 L 1140.671875 105.128906 L 1141.328125 90.789062 L 1142 100.730469 L 1142.671875 94.621094 L 1143.328125 98.320312 L 1144 108.25 L 1144.671875 87.980469 L 1145.328125 92.839844 L 1146 100.398438 L 1146.671875 104.738281 L 1147.328125 88.621094 L 1148 83.640625 L 1148.671875 91 L 1149.328125 93.691406 L 1150 82.121094 L 1150.671875 72.230469 L 1151.328125 69.039062 L 1152 61.148438 L 1152.671875 63.738281 L 1153.328125 71.808594 L 1154 52.308594 L 1154.671875 63.320312 L 1155.328125 69.25 L 1156 46.28125 L 1156.671875 38.25 L 1157.328125 36.621094 L 1158 43.589844 L 1158.671875 50.289062 L 1159.328125 23.320312 L 1160 52.609375 L 1160.671875 52.921875 L 1161.328125 38.140625 L 1162 55.390625 L 1162.671875 54.378906 L 1163.328125 66.710938 L 1164 65.390625 L 1164.671875 59.339844 L 1165.328125 64.46875 L 1166 67.191406 L 1166.671875 76.148438 L 1167.328125 85.019531 L 1168 87.308594 L 1168.671875 95.089844 L 1169.328125 96.671875 L 1170 88.429688 L 1170.671875 91.179688 L 1171.328125 92.148438 L 1172 118.851562 L 1172.671875 84.371094 L 1173.328125 118.039062 L 1174 88.96875 L 1174.671875 118.070312 L 1175.328125 114.359375 L 1176 114.128906 L 1176.671875 108.839844 L 1177.328125 106.140625 L 1178 103.371094 L 1178.671875 99.699219 L 1179.328125 106.359375 L 1180 106.800781 L 1180.671875 120.03125 L 1181.328125 112.429688 L 1182 95.53125 L 1182.671875 85.289062 L 1183.328125 94.671875 L 1184 85.289062 L 1184.671875 100.71875 L 1185.328125 89.558594 L 1186 73.738281 L 1186.671875 83.730469 L 1187.328125 89.640625 L 1188 74.390625 L 1188.671875 76.710938 L 1189.328125 51.488281 L 1190 84.5 L 1190.671875 64.988281 L 1191.328125 82.988281 L 1192 76.730469 L 1192.671875 57.378906 L 1193.328125 83.878906 L 1194 84.5 L 1194.671875 84.5 L 1195.328125 81.019531 L 1196 91.480469 L 1196.671875 78.421875 L 1197.328125 76.671875 L 1198 99.851562 L 1198.671875 93.71875 L 1199.328125 96.238281 L 1200 86.511719 L 1200.671875 83.128906 L 1201.328125 73.390625 L 1202 95.871094 L 1202.671875 96.171875 L 1203.328125 95.199219 L 1204 92.050781 L 1204.671875 85.460938 L 1205.328125 103.980469 L 1206 90.730469 L 1206.671875 92.390625 L 1207.328125 71.640625 L 1208 66.398438 L 1208.671875 73.800781 L 1209.328125 72.679688 L 1210 91.640625 L 1210.671875 58.738281 L 1211.328125 72.46875 L 1212 64.921875 L 1212.671875 85.839844 L 1213.328125 73.859375 L 1214 80.5 L 1214.671875 72.339844 L 1215.328125 56.179688 L 1216 67.191406 L 1216.671875 96.679688 L 1217.328125 82 L 1218 83.628906 L 1218.671875 100.890625 L 1219.328125 103.140625 L 1220 95.621094 L 1220.671875 96.441406 L 1221.328125 93.96875 L 1222 107.441406 L 1222.671875 99.28125 L 1223.328125 121.511719 L 1224 113.460938 L 1224.671875 124.171875 L 1225.328125 131.25 L 1226 134.371094 L 1226.671875 122.019531 L 1227.328125 109.921875 L 1228 118.710938 L 1228.671875 105.230469 L 1229.328125 121.609375 L 1230 121.199219 L 1230.671875 110.511719 L 1231.328125 117.519531 L 1232 111.171875 L 1232.671875 98.078125 L 1233.328125 101.941406 L 1234 84.191406 L 1234.671875 104.28125 L 1235.328125 90.449219 L 1236 97.929688 L 1236.671875 91.019531 L 1237.328125 59.210938 L 1238 75.648438 L 1238.671875 72.101562 L 1239.328125 73.789062 L 1240 68.75 L 1240.671875 65.550781 L 1241.328125 60.199219 L 1242 45.628906 L 1242.671875 70.261719 L 1243.328125 52.578125 L 1244 51.300781 L 1244.671875 55.941406 L 1245.328125 45.859375 L 1246 51.621094 L 1246.671875 59.738281 L 1247.328125 67.410156 L 1248 54.078125 L 1248.671875 64.558594 L 1249.328125 88.101562 L 1250 98.011719 L 1250.671875 79.410156 L 1251.328125 64.421875 L 1252 93.410156 L 1252.671875 81.96875 L 1253.328125 110.621094 L 1254 86.429688 L 1254.671875 106.910156 L 1255.328125 106.308594 L 1256 116.460938 L 1256.671875 126.050781 L 1257.328125 130.03125 L 1258 133.589844 L 1258.671875 106.140625 L 1259.328125 138.671875 L 1260 120.660156 L 1260.671875 120.769531 L 1261.328125 111.898438 L 1262 115.359375 L 1262.671875 116.628906 L 1263.328125 111.449219 L 1264 115.109375 L 1264.671875 104.519531 L 1265.328125 94.238281 L 1266 107.328125 L 1266.671875 101.890625 L 1267.328125 91.289062 L 1268 88.398438 L 1268.671875 87.121094 L 1269.328125 86.699219 L 1270 103.179688 L 1270.671875 80.121094 L 1271.328125 84.441406 L 1272 81.21875 L 1272.671875 82.988281 L 1273.328125 88.339844 L 1274 69.929688 L 1274.671875 79.871094 L 1275.328125 80.980469 L 1276 74.800781 L 1276.671875 60.808594 L 1277.328125 82.949219 L 1278 73.859375 L 1278.671875 76.570312 L 1279.328125 75.699219 L 1280 83.828125 L 1280.671875 83.738281 L 1281.328125 96.359375 L 1282 88.28125 L 1282.671875 89.078125 L 1283.328125 88.308594 L 1284 81.25 L 1284.671875 97.789062 L 1285.328125 91.199219 L 1286 93.980469 L 1286.671875 99.140625 L 1287.328125 88.171875 L 1288 71.070312 L 1288.671875 85.199219 L 1289.328125 89.691406 L 1290 86.851562 L 1290.671875 59.921875 L 1291.328125 61.109375 L 1292 79.800781 L 1292.671875 78.421875 L 1293.328125 79.53125 L 1294 72.929688 L 1294.671875 79.941406 L 1295.328125 79.089844 L 1296 61.089844 L 1296.671875 59.929688 L 1297.328125 74.839844 L 1298 55.871094 L 1298.671875 67.429688 L 1299.328125 77.261719 L 1300 80.910156 L 1300.671875 81.789062 L 1301.328125 78.890625 L 1302 92.949219 L 1302.671875 96.601562 L 1303.328125 93.289062 L 1304 80.238281 L 1304.671875 92.46875 L 1305.328125 110.21875 L 1306 101.710938 L 1306.671875 79.96875 L 1307.328125 105.851562 L 1308 96.070312 L 1308.671875 99.121094 L 1309.328125 101.070312 L 1310 100.648438 L 1310.671875 116.308594 L 1311.328125 119.921875 L 1312 107.25 L 1312.671875 112.519531 L 1313.328125 94 L 1314 121.738281 L 1314.671875 107.570312 L 1315.328125 105.109375 L 1316 100.570312 L 1316.671875 96.179688 L 1317.328125 98.199219 L 1318 90.890625 L 1318.671875 63.429688 L 1319.328125 77.339844 L 1320 69.230469 L 1320.671875 64.550781 L 1321.328125 68.761719 L 1322 58.058594 L 1322.671875 62.230469 L 1323.328125 53.300781 L 1324 62.03125 L 1324.671875 59.859375 L 1325.328125 37.261719 L 1326 40.769531 L 1326.671875 42.558594 L 1327.328125 36.589844 L 1328 37.039062 L 1328.671875 45.808594 L 1329.328125 36.648438 L 1330 63.921875 L 1330.671875 53.199219 L 1331.328125 53.339844 L 1332 69.078125 L 1332.671875 68.308594 L 1333.328125 53.828125 L 1334 51.109375 L 1334.671875 65.78125 L 1335.328125 76.289062 L 1336 70.109375 L 1336.671875 77.429688 L 1337.328125 95.121094 L 1338 77.289062 L 1338.671875 94.511719 L 1339.328125 79.46875 L 1340 90.5 L 1340.671875 104.679688 L 1341.328125 108.441406 L 1342 100.128906 L 1342.671875 116.839844 L 1343.328125 91.210938 L 1344 94.640625 L 1344.671875 114.859375 L 1345.328125 96.441406 L 1346 116.941406 L 1346.671875 99.808594 L 1347.328125 87.71875 L 1348 83.378906 L 1348.671875 89.089844 L 1349.328125 73.988281 L 1350 80.128906 L 1350.671875 82.351562 L 1351.328125 76.96875 L 1352 66.699219 L 1352.671875 71.378906 L 1353.328125 89.941406 L 1354 63.921875 L 1354.671875 54.351562 L 1355.328125 64.269531 L 1356 59.949219 L 1356.671875 52.511719 L 1357.328125 63.179688 L 1358 56.769531 L 1358.671875 59.328125 L 1359.328125 48.800781 L 1360 62.269531 L 1360.671875 54.089844 L 1361.328125 43.050781 L 1362 64.128906 L 1362.671875 71.570312 L 1363.328125 65.078125 L 1364 67.960938 L 1364.671875 60.261719 L 1365.328125 63.03125 L 1366 66.011719 L 1366.671875 69.699219 L 1367.328125 73.878906 L 1368 59.601562 L 1368.671875 74.378906 L 1369.328125 75.699219 L 1370 77.738281 L 1370.671875 86.679688 L 1371.328125 70.570312 L 1372 70.808594 L 1372.671875 69.179688 L 1373.328125 71.960938 L 1374 96.738281 L 1374.671875 47.25 L 1375.328125 58.609375 L 1376 53.308594 L 1376.671875 49.828125 L 1377.328125 59.660156 L 1378 42.078125 L 1378.671875 74.28125 L 1379.328125 47.429688 L 1380 53.949219 L 1380.671875 50.25 L 1381.328125 65.71875 L 1382 66.429688 L 1382.671875 53.191406 L 1383.328125 59.871094 L 1384 60.648438 L 1384.671875 48.011719 L 1385.328125 58.339844 L 1386 56.238281 L 1386.671875 52.289062 " transform="matrix(1, 0, 0, -1, 0, 144)"/>
</svg>
