<?xml version="1.0" encoding="UTF-8"?>
<svg xmlns="http://www.w3.org/2000/svg" xmlns:xlink="http://www.w3.org/1999/xlink" width="850" height="168" viewBox="0 0 850 168">
<path fill="none" stroke-width="11" stroke-linecap="butt" stroke-linejoin="round" stroke="rgb(0%, 36.077881%, 36.470032%)" stroke-opacity="1" stroke-miterlimit="10" d="M 245.964844 288.179688 L 539.628906 288.179688 " transform="matrix(1, 0, 0, 1, -113, -270)"/>
<path fill="none" stroke-width="11" stroke-linecap="butt" stroke-linejoin="round" stroke="rgb(0%, 36.077881%, 36.470032%)" stroke-opacity="1" stroke-miterlimit="10" d="M 539.300781 288.179688 L 832.964844 288.179688 " transform="matrix(1, 0, 0, 1, -113, -270)"/>
<path fill="none" stroke-width="11" stroke-linecap="butt" stroke-linejoin="round" stroke="rgb(0%, 36.077881%, 36.470032%)" stroke-opacity="1" stroke-miterlimit="10" d="M 245.964844 304.179688 L 539.628906 304.179688 " transform="matrix(1, 0, 0, 1, -113, -270)"/>
<path fill="none" stroke-width="11" stroke-linecap="butt" stroke-linejoin="round" stroke="rgb(0%, 36.077881%, 36.470032%)" stroke-opacity="1" stroke-miterlimit="10" d="M 539.300781 304.179688 L 832.964844 304.179688 " transform="matrix(1, 0, 0, 1, -113, -270)"/>
<path fill="none" stroke-width="11" stroke-linecap="butt" stroke-linejoin="round" stroke="rgb(0%, 36.077881%, 36.470032%)" stroke-opacity="1" stroke-miterlimit="10" d="M 245.964844 320.179688 L 539.628906 320.179688 " transform="matrix(1, 0, 0, 1, -113, -270)"/>
<path fill="none" stroke-width="11" stroke-linecap="butt" stroke-linejoin="round" stroke="rgb(0%, 36.077881%, 36.470032%)" stroke-opacity="1" stroke-miterlimit="10" d="M 539.300781 320.179688 L 832.964844 320.179688 " transform="matrix(1, 0, 0, 1, -113, -270)"/>
<path fill="none" stroke-width="11" stroke-linecap="butt" stroke-linejoin="round" stroke="rgb(0%, 36.077881%, 36.470032%)" stroke-opacity="1" stroke-miterlimit="10" d="M 245.964844 336.179688 L 539.628906 336.179688 " transform="matrix(1, 0, 0, 1, -113, -270)"/>
<path fill="none" stroke-width="11" stroke-linecap="butt" stroke-linejoin="round" stroke="rgb(69.412231%, 0%, 10.980225%)" stroke-opacity="1" stroke-miterlimit="10" d="M 539.300781 336.179688 L 832.964844 336.179688 " transform="matrix(1, 0, 0, 1, -113, -270)"/>
<path fill="none" stroke-width="11" stroke-linecap="butt" stroke-linejoin="round" stroke="rgb(0%, 36.077881%, 36.470032%)" stroke-opacity="1" stroke-miterlimit="10" d="M 245.964844 352.179688 L 539.628906 352.179688 " transform="matrix(1, 0, 0, 1, -113, -270)"/>
<path fill="none" stroke-width="11" stroke-linecap="butt" stroke-linejoin="round" stroke="rgb(69.412231%, 0%, 10.980225%)" stroke-opacity="1" stroke-miterlimit="10" d="M 539.300781 352.179688 L 832.964844 352.179688 " transform="matrix(1, 0, 0, 1, -113, -270)"/>
<path fill="none" stroke-width="11" stroke-linecap="butt" stroke-linejoin="round" stroke="rgb(0%, 36.077881%, 36.470032%)" stroke-opacity="1" stroke-miterlimit="10" d="M 245.964844 368.179688 L 539.628906 368.179688 " transform="matrix(1, 0, 0, 1, -113, -270)"/>
<path fill="none" stroke-width="11" stroke-linecap="butt" stroke-linejoin="round" stroke="rgb(69.412231%, 0%, 10.980225%)" stroke-opacity="1" stroke-miterlimit="10" d="M 539.300781 368.179688 L 832.964844 368.179688 " transform="matrix(1, 0, 0, 1, -113, -270)"/>
<path fill="none" stroke-width="11" stroke-linecap="butt" stroke-linejoin="round" stroke="rgb(69.412231%, 0%, 10.980225%)" stroke-opacity="1" stroke-miterlimit="10" d="M 245.964844 384.179688 L 539.628906 384.179688 " transform="matrix(1, 0, 0, 1, -113, -270)"/>
<path fill="none" stroke-width="11" stroke-linecap="butt" stroke-linejoin="round" stroke="rgb(69.412231%, 0%, 10.980225%)" stroke-opacity="1" stroke-miterlimit="10" d="M 539.300781 384.179688 L 832.964844 384.179688 " transform="matrix(1, 0, 0, 1, -113, -270)"/>
<path fill="none" stroke-width="11" stroke-linecap="butt" stroke-linejoin="round" stroke="rgb(69.412231%, 0%, 10.980225%)" stroke-opacity="1" stroke-miterlimit="10" d="M 245.964844 400.179688 L 539.628906 400.179688 " transform="matrix(1, 0, 0, 1, -113, -270)"/>
<path fill="none" stroke-width="11" stroke-linecap="butt" stroke-linejoin="round" stroke="rgb(69.412231%, 0%, 10.980225%)" stroke-opacity="1" stroke-miterlimit="10" d="M 539.300781 400.179688 L 832.964844 400.179688 " transform="matrix(1, 0, 0, 1, -113, -270)"/>
<path fill="none" stroke-width="11" stroke-linecap="butt" stroke-linejoin="round" stroke="rgb(69.412231%, 0%, 10.980225%)" stroke-opacity="1" stroke-miterlimit="10" d="M 245.964844 416.179688 L 539.628906 416.179688 " transform="matrix(1, 0, 0, 1, -113, -270)"/>
<path fill="none" stroke-width="11" stroke-linecap="butt" stroke-linejoin="round" stroke="rgb(69.412231%, 0%, 10.980225%)" stroke-opacity="1" stroke-miterlimit="10" d="M 539.300781 416.179688 L 832.964844 416.179688 " transform="matrix(1, 0, 0, 1, -113, -270)"/>
<path fill="none" stroke-width="3" stroke-linecap="square" stroke-linejoin="round" stroke="rgb(39.99939%, 39.99939%, 39.99939%)" stroke-opacity="1" stroke-miterlimit="10" d="M 240.5 287.5 L 219.707031 287.5 " transform="matrix(1, 0, 0, 1, -113, -270)"/>
<path fill="none" stroke-width="3" stroke-linecap="square" stroke-linejoin="round" stroke="rgb(39.99939%, 39.99939%, 39.99939%)" stroke-opacity="1" stroke-miterlimit="10" d="M 240.5 304.179688 L 219.707031 304.179688 " transform="matrix(1, 0, 0, 1, -113, -270)"/>
<path fill="none" stroke-width="3" stroke-linecap="square" stroke-linejoin="round" stroke="rgb(39.99939%, 39.99939%, 39.99939%)" stroke-opacity="1" stroke-miterlimit="10" d="M 219.707031 287 L 219.707031 304.179688 " transform="matrix(1, 0, 0, 1, -113, -270)"/>
<path fill="none" stroke-width="3" stroke-linecap="square" stroke-linejoin="round" stroke="rgb(39.99939%, 39.99939%, 39.99939%)" stroke-opacity="1" stroke-miterlimit="10" d="M 219.707031 295 L 205.609375 295 " transform="matrix(1, 0, 0, 1, -113, -270)"/>
<path fill="none" stroke-width="3" stroke-linecap="square" stroke-linejoin="round" stroke="rgb(39.99939%, 39.99939%, 39.99939%)" stroke-opacity="1" stroke-miterlimit="10" d="M 240.5 320.179688 L 205.609375 320.179688 " transform="matrix(1, 0, 0, 1, -113, -270)"/>
<path fill="none" stroke-width="3" stroke-linecap="square" stroke-linejoin="round" stroke="rgb(39.99939%, 39.99939%, 39.99939%)" stroke-opacity="1" stroke-miterlimit="10" d="M 205.609375 295 L 205.609375 320.179688 " transform="matrix(1, 0, 0, 1, -113, -270)"/>
<path fill="none" stroke-width="3" stroke-linecap="square" stroke-linejoin="round" stroke="rgb(39.99939%, 39.99939%, 39.99939%)" stroke-opacity="1" stroke-miterlimit="10" d="M 240.5 368.855469 L 225.796875 368.855469 " transform="matrix(1, 0, 0, 1, -113, -270)"/>
<path fill="none" stroke-width="3" stroke-linecap="square" stroke-linejoin="round" stroke="rgb(39.99939%, 39.99939%, 39.99939%)" stroke-opacity="1" stroke-miterlimit="10" d="M 240.5 352.179688 L 225.796875 352.179688 " transform="matrix(1, 0, 0, 1, -113, -270)"/>
<path fill="none" stroke-width="3" stroke-linecap="square" stroke-linejoin="round" stroke="rgb(39.99939%, 39.99939%, 39.99939%)" stroke-opacity="1" stroke-miterlimit="10" d="M 225.796875 368.855469 L 225.796875 352.179688 " transform="matrix(1, 0, 0, 1, -113, -270)"/>
<path fill="none" stroke-width="3" stroke-linecap="square" stroke-linejoin="round" stroke="rgb(39.99939%, 39.99939%, 39.99939%)" stroke-opacity="1" stroke-miterlimit="10" d="M 225.796875 361.089844 L 215.832031 361.355469 " transform="matrix(1, 0, 0, 1, -113, -270)"/>
<path fill="none" stroke-width="3" stroke-linecap="square" stroke-linejoin="round" stroke="rgb(39.99939%, 39.99939%, 39.99939%)" stroke-opacity="1" stroke-miterlimit="10" d="M 240.5 336.179688 L 215.832031 336.179688 " transform="matrix(1, 0, 0, 1, -113, -270)"/>
<path fill="none" stroke-width="3" stroke-linecap="square" stroke-linejoin="round" stroke="rgb(39.99939%, 39.99939%, 39.99939%)" stroke-opacity="1" stroke-miterlimit="10" d="M 215.832031 361.355469 L 215.832031 336.179688 " transform="matrix(1, 0, 0, 1, -113, -270)"/>
<path fill="none" stroke-width="3" stroke-linecap="square" stroke-linejoin="round" stroke="rgb(39.99939%, 39.99939%, 39.99939%)" stroke-opacity="1" stroke-miterlimit="10" d="M 240.5 384.5 L 228.070312 384.5 " transform="matrix(1, 0, 0, 1, -113, -270)"/>
<path fill="none" stroke-width="3" stroke-linecap="square" stroke-linejoin="round" stroke="rgb(39.99939%, 39.99939%, 39.99939%)" stroke-opacity="1" stroke-miterlimit="10" d="M 240.5 401.179688 L 228.070312 401.179688 " transform="matrix(1, 0, 0, 1, -113, -270)"/>
<path fill="none" stroke-width="3" stroke-linecap="square" stroke-linejoin="round" stroke="rgb(39.99939%, 39.99939%, 39.99939%)" stroke-opacity="1" stroke-miterlimit="10" d="M 228.070312 384 L 228.070312 401.179688 " transform="matrix(1, 0, 0, 1, -113, -270)"/>
<path fill="none" stroke-width="3" stroke-linecap="square" stroke-linejoin="round" stroke="rgb(39.99939%, 39.99939%, 39.99939%)" stroke-opacity="1" stroke-miterlimit="10" d="M 228.070312 392 L 219.640625 392 " transform="matrix(1, 0, 0, 1, -113, -270)"/>
<path fill="none" stroke-width="3" stroke-linecap="square" stroke-linejoin="round" stroke="rgb(39.99939%, 39.99939%, 39.99939%)" stroke-opacity="1" stroke-miterlimit="10" d="M 240.5 417.179688 L 219.640625 417.179688 " transform="matrix(1, 0, 0, 1, -113, -270)"/>
<path fill="none" stroke-width="3" stroke-linecap="square" stroke-linejoin="round" stroke="rgb(39.99939%, 39.99939%, 39.99939%)" stroke-opacity="1" stroke-miterlimit="10" d="M 219.640625 392 L 219.640625 417.179688 " transform="matrix(1, 0, 0, 1, -113, -270)"/>
<path fill="none" stroke-width="3" stroke-linecap="square" stroke-linejoin="round" stroke="rgb(39.99939%, 39.99939%, 39.99939%)" stroke-opacity="1" stroke-miterlimit="10" d="M 219.640625 404 L 116 404 " transform="matrix(1, 0, 0, 1, -113, -270)"/>
<path fill="none" stroke-width="3" stroke-linecap="square" stroke-linejoin="round" stroke="rgb(39.99939%, 39.99939%, 39.99939%)" stroke-opacity="1" stroke-miterlimit="10" d="M 215.832031 347 L 178.5 346 " transform="matrix(1, 0, 0, 1, -113, -270)"/>
<path fill="none" stroke-width="3" stroke-linecap="square" stroke-linejoin="round" stroke="rgb(39.99939%, 39.99939%, 39.99939%)" stroke-opacity="1" stroke-miterlimit="10" d="M 116 404 L 115 327 " transform="matrix(1, 0, 0, 1, -113, -270)"/>
<path fill="none" stroke-width="3" stroke-linecap="square" stroke-linejoin="round" stroke="rgb(39.99939%, 39.99939%, 39.99939%)" stroke-opacity="1" stroke-miterlimit="10" d="M 178.5 327 L 115 327 " transform="matrix(1, 0, 0, 1, -113, -270)"/>
<path fill="none" stroke-width="3" stroke-linecap="square" stroke-linejoin="round" stroke="rgb(39.99939%, 39.99939%, 39.99939%)" stroke-opacity="1" stroke-miterlimit="10" d="M 203.167969 308 L 178.5 308 " transform="matrix(1, 0, 0, 1, -113, -270)"/>
<path fill="none" stroke-width="3" stroke-linecap="square" stroke-linejoin="round" stroke="rgb(39.99939%, 39.99939%, 39.99939%)" stroke-opacity="1" stroke-miterlimit="10" d="M 178.5 346 L 178.5 308 " transform="matrix(1, 0, 0, 1, -113, -270)"/>
<path fill="none" stroke-width="5" stroke-linecap="round" stroke-linejoin="round" stroke="rgb(0%, 0%, 0%)" stroke-opacity="1" stroke-miterlimit="10" d="M 538.300781 272.976562 L 538.300781 435 " transform="matrix(1, 0, 0, 1, -113, -270)"/>
<path fill="none" stroke-width="3" stroke-linecap="square" stroke-linejoin="round" stroke="rgb(39.99939%, 39.99939%, 39.99939%)" stroke-opacity="1" stroke-miterlimit="10" d="M 840.359375 368 L 854.507812 368 " transform="matrix(1, 0, 0, 1, -113, -270)"/>
<path fill="none" stroke-width="3" stroke-linecap="square" stroke-linejoin="round" stroke="rgb(39.99939%, 39.99939%, 39.99939%)" stroke-opacity="1" stroke-miterlimit="10" d="M 840.359375 351.320312 L 854.507812 351.320312 " transform="matrix(1, 0, 0, 1, -113, -270)"/>
<path fill="none" stroke-width="3" stroke-linecap="square" stroke-linejoin="round" stroke="rgb(39.99939%, 39.99939%, 39.99939%)" stroke-opacity="1" stroke-miterlimit="10" d="M 854.507812 368 L 854.507812 351.320312 " transform="matrix(1, 0, 0, 1, -113, -270)"/>
<path fill="none" stroke-width="3" stroke-linecap="square" stroke-linejoin="round" stroke="rgb(39.99939%, 39.99939%, 39.99939%)" stroke-opacity="1" stroke-miterlimit="10" d="M 854.507812 360.234375 L 864.101562 360.5 " transform="matrix(1, 0, 0, 1, -113, -270)"/>
<path fill="none" stroke-width="3" stroke-linecap="square" stroke-linejoin="round" stroke="rgb(39.99939%, 39.99939%, 39.99939%)" stroke-opacity="1" stroke-miterlimit="10" d="M 840.359375 335.320312 L 864.101562 335.320312 " transform="matrix(1, 0, 0, 1, -113, -270)"/>
<path fill="none" stroke-width="3" stroke-linecap="square" stroke-linejoin="round" stroke="rgb(39.99939%, 39.99939%, 39.99939%)" stroke-opacity="1" stroke-miterlimit="10" d="M 864.101562 360.5 L 864.101562 335.320312 " transform="matrix(1, 0, 0, 1, -113, -270)"/>
<path fill="none" stroke-width="3" stroke-linecap="square" stroke-linejoin="round" stroke="rgb(39.99939%, 39.99939%, 39.99939%)" stroke-opacity="1" stroke-miterlimit="10" d="M 840.359375 287.5 L 852.324219 287.5 " transform="matrix(1, 0, 0, 1, -113, -270)"/>
<path fill="none" stroke-width="3" stroke-linecap="square" stroke-linejoin="round" stroke="rgb(39.99939%, 39.99939%, 39.99939%)" stroke-opacity="1" stroke-miterlimit="10" d="M 840.359375 304.179688 L 852.324219 304.179688 " transform="matrix(1, 0, 0, 1, -113, -270)"/>
<path fill="none" stroke-width="3" stroke-linecap="square" stroke-linejoin="round" stroke="rgb(39.99939%, 39.99939%, 39.99939%)" stroke-opacity="1" stroke-miterlimit="10" d="M 852.324219 287 L 852.324219 304.179688 " transform="matrix(1, 0, 0, 1, -113, -270)"/>
<path fill="none" stroke-width="3" stroke-linecap="square" stroke-linejoin="round" stroke="rgb(39.99939%, 39.99939%, 39.99939%)" stroke-opacity="1" stroke-miterlimit="10" d="M 852.324219 295 L 860.433594 295 " transform="matrix(1, 0, 0, 1, -113, -270)"/>
<path fill="none" stroke-width="3" stroke-linecap="square" stroke-linejoin="round" stroke="rgb(39.99939%, 39.99939%, 39.99939%)" stroke-opacity="1" stroke-miterlimit="10" d="M 840.359375 320.179688 L 860.433594 320.179688 " transform="matrix(1, 0, 0, 1, -113, -270)"/>
<path fill="none" stroke-width="3" stroke-linecap="square" stroke-linejoin="round" stroke="rgb(39.99939%, 39.99939%, 39.99939%)" stroke-opacity="1" stroke-miterlimit="10" d="M 860.433594 295 L 860.433594 320.179688 " transform="matrix(1, 0, 0, 1, -113, -270)"/>
<path fill="none" stroke-width="3" stroke-linecap="square" stroke-linejoin="round" stroke="rgb(39.99939%, 39.99939%, 39.99939%)" stroke-opacity="1" stroke-miterlimit="10" d="M 860.433594 307.179688 L 960.191406 308.179688 " transform="matrix(1, 0, 0, 1, -113, -270)"/>
<path fill="none" stroke-width="3" stroke-linecap="square" stroke-linejoin="round" stroke="rgb(39.99939%, 39.99939%, 39.99939%)" stroke-opacity="1" stroke-miterlimit="10" d="M 864.101562 346.144531 L 900.035156 347 " transform="matrix(1, 0, 0, 1, -113, -270)"/>
<path fill="none" stroke-width="3" stroke-linecap="square" stroke-linejoin="round" stroke="rgb(39.99939%, 39.99939%, 39.99939%)" stroke-opacity="1" stroke-miterlimit="10" d="M 960.191406 308.179688 L 961.152344 377.179688 " transform="matrix(1, 0, 0, 1, -113, -270)"/>
<path fill="none" stroke-width="3" stroke-linecap="square" stroke-linejoin="round" stroke="rgb(39.99939%, 39.99939%, 39.99939%)" stroke-opacity="1" stroke-miterlimit="10" d="M 900.035156 376 L 961.152344 377.179688 " transform="matrix(1, 0, 0, 1, -113, -270)"/>
<path fill="none" stroke-width="3" stroke-linecap="square" stroke-linejoin="round" stroke="rgb(39.99939%, 39.99939%, 39.99939%)" stroke-opacity="1" stroke-miterlimit="10" d="M 840.359375 384.5 L 860.371094 384.5 " transform="matrix(1, 0, 0, 1, -113, -270)"/>
<path fill="none" stroke-width="3" stroke-linecap="square" stroke-linejoin="round" stroke="rgb(39.99939%, 39.99939%, 39.99939%)" stroke-opacity="1" stroke-miterlimit="10" d="M 840.359375 401.179688 L 860.371094 401.179688 " transform="matrix(1, 0, 0, 1, -113, -270)"/>
<path fill="none" stroke-width="3" stroke-linecap="square" stroke-linejoin="round" stroke="rgb(39.99939%, 39.99939%, 39.99939%)" stroke-opacity="1" stroke-miterlimit="10" d="M 860.371094 384 L 860.371094 401.179688 " transform="matrix(1, 0, 0, 1, -113, -270)"/>
<path fill="none" stroke-width="3" stroke-linecap="square" stroke-linejoin="round" stroke="rgb(39.99939%, 39.99939%, 39.99939%)" stroke-opacity="1" stroke-miterlimit="10" d="M 860.371094 392 L 873.9375 392 " transform="matrix(1, 0, 0, 1, -113, -270)"/>
<path fill="none" stroke-width="3" stroke-linecap="square" stroke-linejoin="round" stroke="rgb(39.99939%, 39.99939%, 39.99939%)" stroke-opacity="1" stroke-miterlimit="10" d="M 840.359375 417.179688 L 873.9375 417.179688 " transform="matrix(1, 0, 0, 1, -113, -270)"/>
<path fill="none" stroke-width="3" stroke-linecap="square" stroke-linejoin="round" stroke="rgb(39.99939%, 39.99939%, 39.99939%)" stroke-opacity="1" stroke-miterlimit="10" d="M 873.9375 392 L 873.9375 417.179688 " transform="matrix(1, 0, 0, 1, -113, -270)"/>
<path fill="none" stroke-width="3" stroke-linecap="square" stroke-linejoin="round" stroke="rgb(39.99939%, 39.99939%, 39.99939%)" stroke-opacity="1" stroke-miterlimit="10" d="M 876.289062 405 L 900.035156 405 " transform="matrix(1, 0, 0, 1, -113, -270)"/>
<path fill="none" stroke-width="3" stroke-linecap="square" stroke-linejoin="round" stroke="rgb(39.99939%, 39.99939%, 39.99939%)" stroke-opacity="1" stroke-miterlimit="10" d="M 900.035156 347 L 900.035156 405 " transform="matrix(1, 0, 0, 1, -113, -270)"/>
</svg>
