<?xml version="1.0" encoding="UTF-8"?>
<svg xmlns="http://www.w3.org/2000/svg" xmlns:xlink="http://www.w3.org/1999/xlink" width="574" height="247" viewBox="0 0 574 247">
<path fill="none" stroke-width="12" stroke-linecap="round" stroke-linejoin="round" stroke="rgb(39.99939%, 39.99939%, 39.99939%)" stroke-opacity="1" stroke-miterlimit="10" d="M 183.800781 422.820312 C 137.386719 430.484375 134.910156 449.933594 127.484375 479.402344 C 120.058594 508.871094 121.914062 558.378906 160.902344 569.578125 C 199.890625 580.777344 240.734375 567.222656 254.347656 544.234375 C 267.960938 521.25 268.582031 472.917969 260.535156 454.648438 C 252.492188 436.375 230.210938 415.160156 183.800781 422.820312 Z M 183.800781 422.820312 " transform="matrix(1, 0, 0, 1, -118, -415)"/>
<path fill="none" stroke-width="6" stroke-linecap="round" stroke-linejoin="round" stroke="rgb(100%, 100%, 100%)" stroke-opacity="1" stroke-miterlimit="10" d="M 183.800781 422.820312 C 137.386719 430.484375 134.910156 449.933594 127.484375 479.402344 C 120.058594 508.871094 121.914062 558.378906 160.902344 569.578125 C 199.890625 580.777344 240.734375 567.222656 254.347656 544.234375 C 267.960938 521.25 268.582031 472.917969 260.535156 454.648438 C 252.492188 436.375 230.210938 415.160156 183.800781 422.820312 Z M 183.800781 422.820312 " transform="matrix(1, 0, 0, 1, -118, -415)"/>
<path fill="none" stroke-width="6" stroke-linecap="round" stroke-linejoin="round" stroke="rgb(0%, 56.863403%, 57.647705%)" stroke-opacity="1" stroke-miterlimit="10" d="M 173.097656 528.640625 C 173.097656 528.640625 180.355469 519.890625 190.660156 515.632812 C 200.96875 511.375 209.480469 513.609375 209.480469 513.609375 " transform="matrix(1, 0, 0, 1, -118, -415)"/>
<path fill="none" stroke-width="6" stroke-linecap="round" stroke-linejoin="round" stroke="rgb(0%, 56.863403%, 57.647705%)" stroke-opacity="1" stroke-miterlimit="10" d="M 195.21875 529.929688 C 195.21875 529.929688 204.273438 531.488281 214.484375 526.695312 C 224.699219 521.90625 231.273438 513.023438 231.273438 513.023438 " transform="matrix(1, 0, 0, 1, -118, -415)"/>
<path fill="none" stroke-width="6" stroke-linecap="round" stroke-linejoin="round" stroke="rgb(0%, 56.863403%, 57.647705%)" stroke-opacity="1" stroke-miterlimit="10" d="M 163.515625 503.746094 C 163.515625 503.746094 166.984375 503.070312 174.503906 499.246094 C 182.023438 495.421875 180.800781 493.230469 190.054688 490.246094 C 199.308594 487.261719 207.167969 488.714844 207.167969 488.714844 " transform="matrix(1, 0, 0, 1, -118, -415)"/>
<path fill="none" stroke-width="6" stroke-linecap="round" stroke-linejoin="round" stroke="rgb(0%, 56.863403%, 57.647705%)" stroke-opacity="1" stroke-miterlimit="10" d="M 190.054688 505.035156 C 190.054688 505.035156 198.203125 506.585938 207.167969 503.246094 C 216.128906 499.90625 214.28125 497.53125 221.6875 493.246094 C 229.097656 488.964844 233.316406 488.128906 233.316406 488.128906 " transform="matrix(1, 0, 0, 1, -118, -415)"/>
<path fill="none" stroke-width="6" stroke-linecap="round" stroke-linejoin="round" stroke="rgb(0%, 56.863403%, 57.647705%)" stroke-opacity="1" stroke-miterlimit="10" d="M 186.746094 465.679688 C 186.746094 465.679688 190.425781 461.878906 198.964844 463.933594 C 207.507812 465.988281 206.226562 469.949219 216.894531 472.933594 C 227.5625 475.917969 236.625 474.46875 236.625 474.46875 " transform="matrix(1, 0, 0, 1, -118, -415)"/>
<path fill="none" stroke-width="6" stroke-linecap="round" stroke-linejoin="round" stroke="rgb(0%, 56.863403%, 57.647705%)" stroke-opacity="1" stroke-miterlimit="10" d="M 142.730469 473.253906 C 142.730469 473.253906 152.617188 472.121094 162.457031 474.042969 C 172.296875 475.964844 168.917969 478.613281 177.460938 480.042969 C 186 481.472656 192.605469 479.085938 192.605469 479.085938 " transform="matrix(1, 0, 0, 1, -118, -415)"/>
<path fill="none" stroke-width="6" stroke-linecap="round" stroke-linejoin="round" stroke="rgb(0%, 56.863403%, 57.647705%)" stroke-opacity="1" stroke-miterlimit="10" d="M 166.664062 450.015625 C 166.664062 450.015625 178.84375 449.585938 192.238281 448.230469 C 205.628906 446.871094 202.300781 445.546875 213.941406 445.230469 C 225.578125 444.910156 233.316406 447.109375 233.316406 447.109375 " transform="matrix(1, 0, 0, 1, -118, -415)"/>
<path fill="none" stroke-width="6" stroke-linecap="round" stroke-linejoin="round" stroke="rgb(0%, 56.863403%, 57.647705%)" stroke-opacity="1" stroke-miterlimit="10" d="M 150.019531 540.15625 C 150.019531 540.15625 155.515625 536.355469 168.28125 538.410156 C 181.042969 540.464844 179.128906 544.425781 195.074219 547.410156 C 211.019531 550.394531 224.558594 548.945312 224.558594 548.945312 " transform="matrix(1, 0, 0, 1, -118, -415)"/>
<path fill="none" stroke-width="12" stroke-linecap="round" stroke-linejoin="round" stroke="rgb(39.99939%, 39.99939%, 39.99939%)" stroke-opacity="1" stroke-miterlimit="10" d="M 338.636719 504.339844 C 292.222656 512.003906 289.746094 531.453125 282.320312 560.921875 C 274.894531 590.390625 276.75 639.898438 315.738281 651.097656 C 354.726562 662.296875 395.570312 648.738281 409.183594 625.753906 C 422.796875 602.769531 423.417969 554.4375 415.371094 536.167969 C 407.328125 517.894531 385.046875 496.679688 338.636719 504.339844 Z M 338.636719 504.339844 " transform="matrix(1, 0, 0, 1, -118, -415)"/>
<path fill="none" stroke-width="6" stroke-linecap="round" stroke-linejoin="round" stroke="rgb(100%, 100%, 100%)" stroke-opacity="1" stroke-miterlimit="10" d="M 338.636719 504.339844 C 292.222656 512.003906 289.746094 531.453125 282.320312 560.921875 C 274.894531 590.390625 276.75 639.898438 315.738281 651.097656 C 354.726562 662.296875 395.570312 648.738281 409.183594 625.753906 C 422.796875 602.769531 423.417969 554.4375 415.371094 536.167969 C 407.328125 517.894531 385.046875 496.679688 338.636719 504.339844 Z M 338.636719 504.339844 " transform="matrix(1, 0, 0, 1, -118, -415)"/>
<path fill="none" stroke-width="6" stroke-linecap="round" stroke-linejoin="round" stroke="rgb(58.039856%, 6.666565%, 0%)" stroke-opacity="1" stroke-miterlimit="10" d="M 377.578125 556.085938 C 377.578125 556.085938 368.304688 562.65625 357.25 564.101562 C 346.191406 565.546875 338.546875 561.1875 338.546875 561.1875 " transform="matrix(1, 0, 0, 1, -118, -415)"/>
<path fill="none" stroke-width="6" stroke-linecap="round" stroke-linejoin="round" stroke="rgb(58.039856%, 6.666565%, 0%)" stroke-opacity="1" stroke-miterlimit="10" d="M 356.546875 549.113281 C 356.546875 549.113281 348.203125 545.265625 337.097656 547.25 C 325.992188 549.230469 317.34375 556.113281 317.34375 556.113281 " transform="matrix(1, 0, 0, 1, -118, -415)"/>
<path fill="none" stroke-width="6" stroke-linecap="round" stroke-linejoin="round" stroke="rgb(58.039856%, 6.666565%, 0%)" stroke-opacity="1" stroke-miterlimit="10" d="M 380.394531 582.613281 C 380.394531 582.613281 376.867188 582.363281 368.613281 584.113281 C 360.359375 585.859375 360.972656 588.292969 351.261719 588.78125 C 341.554688 589.269531 334.339844 585.832031 334.339844 585.832031 " transform="matrix(1, 0, 0, 1, -118, -415)"/>
<path fill="none" stroke-width="6" stroke-linecap="round" stroke-linejoin="round" stroke="rgb(58.039856%, 6.666565%, 0%)" stroke-opacity="1" stroke-miterlimit="10" d="M 355.089844 574.496094 C 355.089844 574.496094 347.621094 570.890625 338.101562 571.796875 C 328.578125 572.703125 329.75 575.476562 321.484375 577.695312 C 313.21875 579.914062 308.929688 579.632812 308.929688 579.632812 " transform="matrix(1, 0, 0, 1, -118, -415)"/>
<path fill="none" stroke-width="6" stroke-linecap="round" stroke-linejoin="round" stroke="rgb(58.039856%, 6.666565%, 0%)" stroke-opacity="1" stroke-miterlimit="10" d="M 348.101562 613.367188 C 348.101562 613.367188 343.5625 616.085938 335.84375 611.890625 C 328.128906 607.695312 330.390625 604.199219 320.855469 598.558594 C 311.324219 592.914062 302.199219 591.96875 302.199219 591.96875 " transform="matrix(1, 0, 0, 1, -118, -415)"/>
<path fill="none" stroke-width="6" stroke-linecap="round" stroke-linejoin="round" stroke="rgb(58.039856%, 6.666565%, 0%)" stroke-opacity="1" stroke-miterlimit="10" d="M 392.578125 617.441406 C 392.578125 617.441406 382.730469 615.980469 373.726562 611.574219 C 364.71875 607.171875 368.667969 605.488281 360.789062 601.898438 C 352.910156 598.304688 345.910156 598.902344 345.910156 598.902344 " transform="matrix(1, 0, 0, 1, -118, -415)"/>
<path fill="none" stroke-width="6" stroke-linecap="round" stroke-linejoin="round" stroke="rgb(58.039856%, 6.666565%, 0%)" stroke-opacity="1" stroke-miterlimit="10" d="M 363.445312 633.695312 C 363.445312 633.695312 351.570312 630.957031 338.28125 628.800781 C 324.992188 626.644531 327.863281 628.789062 316.539062 626.082031 C 305.21875 623.378906 298.3125 619.25 298.3125 619.25 " transform="matrix(1, 0, 0, 1, -118, -415)"/>
<path fill="none" stroke-width="6" stroke-linecap="round" stroke-linejoin="round" stroke="rgb(58.039856%, 6.666565%, 0%)" stroke-opacity="1" stroke-miterlimit="10" d="M 402.851562 550.933594 C 402.851562 550.933594 396.558594 553.183594 384.761719 547.894531 C 372.964844 542.605469 375.839844 539.273438 361.210938 532.265625 C 346.582031 525.257812 333.128906 523.152344 333.128906 523.152344 " transform="matrix(1, 0, 0, 1, -118, -415)"/>
<path fill="none" stroke-width="12" stroke-linecap="round" stroke-linejoin="round" stroke="rgb(39.99939%, 39.99939%, 39.99939%)" stroke-opacity="1" stroke-miterlimit="10" d="M 603.882812 457.25 C 557.46875 464.910156 554.996094 484.359375 547.570312 513.832031 C 540.144531 543.300781 542 592.808594 580.988281 604.007812 C 619.972656 615.207031 660.816406 601.648438 674.433594 578.664062 C 688.046875 555.675781 688.667969 507.347656 680.621094 489.078125 C 672.574219 470.804688 650.296875 449.585938 603.882812 457.25 Z M 603.882812 457.25 " transform="matrix(1, 0, 0, 1, -118, -415)"/>
<path fill="none" stroke-width="6" stroke-linecap="round" stroke-linejoin="round" stroke="rgb(100%, 100%, 100%)" stroke-opacity="1" stroke-miterlimit="10" d="M 603.882812 457.25 C 557.46875 464.910156 554.996094 484.359375 547.570312 513.832031 C 540.144531 543.300781 542 592.808594 580.988281 604.007812 C 619.972656 615.207031 660.816406 601.648438 674.433594 578.664062 C 688.046875 555.675781 688.667969 507.347656 680.621094 489.078125 C 672.574219 470.804688 650.296875 449.585938 603.882812 457.25 Z M 603.882812 457.25 " transform="matrix(1, 0, 0, 1, -118, -415)"/>
<path fill-rule="nonzero" fill="rgb(100%, 100%, 100%)" fill-opacity="1" d="M 438.121094 49.371094 L 462.125 57.167969 C 464.964844 58.09375 460.746094 78.910156 452.710938 103.640625 C 444.675781 128.371094 435.851562 147.695312 433.011719 146.773438 L 409.007812 138.972656 C 406.167969 138.050781 410.386719 117.230469 418.421875 92.5 C 426.457031 67.769531 435.28125 48.449219 438.121094 49.371094 Z M 438.121094 49.371094 "/>
<path fill="none" stroke-width="6" stroke-linecap="round" stroke-linejoin="round" stroke="rgb(58.039856%, 6.666565%, 0%)" stroke-opacity="1" stroke-miterlimit="10" d="M 512.957031 476.757812 C 512.957031 476.757812 509.429688 476.507812 501.175781 478.257812 C 492.921875 480.003906 493.535156 482.4375 483.824219 482.925781 C 474.117188 483.410156 466.902344 479.976562 466.902344 479.976562 " transform="matrix(1, 0, 0, 1, -118, -415)"/>
<path fill="none" stroke-width="6" stroke-linecap="round" stroke-linejoin="round" stroke="rgb(58.039856%, 6.666565%, 0%)" stroke-opacity="1" stroke-miterlimit="10" d="M 542.835938 518.71875 C 542.835938 518.71875 538.296875 521.4375 530.578125 517.242188 C 522.863281 513.046875 525.125 509.550781 515.589844 503.90625 C 506.058594 498.265625 496.933594 497.320312 496.933594 497.320312 " transform="matrix(1, 0, 0, 1, -118, -415)"/>
<path fill="none" stroke-width="6" stroke-linecap="round" stroke-linejoin="round" stroke="rgb(58.039856%, 6.666565%, 0%)" stroke-opacity="1" stroke-miterlimit="10" d="M 587.3125 522.792969 C 587.3125 522.792969 577.464844 521.328125 568.460938 516.925781 C 559.453125 512.523438 563.402344 510.839844 555.523438 507.246094 C 547.644531 503.65625 540.644531 504.253906 540.644531 504.253906 " transform="matrix(1, 0, 0, 1, -118, -415)"/>
<path fill="none" stroke-width="6" stroke-linecap="round" stroke-linejoin="round" stroke="rgb(58.039856%, 6.666565%, 0%)" stroke-opacity="1" stroke-miterlimit="10" d="M 558.179688 539.042969 C 558.179688 539.042969 546.304688 536.308594 533.015625 534.152344 C 519.726562 531.996094 522.597656 534.140625 511.273438 531.433594 C 499.953125 528.726562 493.046875 524.601562 493.046875 524.601562 " transform="matrix(1, 0, 0, 1, -118, -415)"/>
<path fill="none" stroke-width="6" stroke-linecap="round" stroke-linejoin="round" stroke="rgb(0%, 56.863403%, 57.647705%)" stroke-opacity="1" stroke-miterlimit="10" d="M 585.269531 503.566406 C 585.269531 503.566406 592.523438 494.820312 602.832031 490.5625 C 613.136719 486.304688 621.648438 488.535156 621.648438 488.535156 " transform="matrix(1, 0, 0, 1, -118, -415)"/>
<path fill="none" stroke-width="6" stroke-linecap="round" stroke-linejoin="round" stroke="rgb(0%, 56.863403%, 57.647705%)" stroke-opacity="1" stroke-miterlimit="10" d="M 558.179688 555.425781 C 558.179688 555.425781 567.230469 556.980469 577.445312 552.191406 C 587.660156 547.402344 594.234375 538.519531 594.234375 538.519531 " transform="matrix(1, 0, 0, 1, -118, -415)"/>
<path fill="none" stroke-width="6" stroke-linecap="round" stroke-linejoin="round" stroke="rgb(0%, 56.863403%, 57.647705%)" stroke-opacity="1" stroke-miterlimit="10" d="M 565.125 488.132812 C 565.125 488.132812 556.976562 489.683594 548.011719 486.34375 C 539.050781 483.003906 540.898438 480.625 533.492188 476.34375 C 526.082031 472.058594 521.863281 471.222656 521.863281 471.222656 " transform="matrix(1, 0, 0, 1, -118, -415)"/>
<path fill="none" stroke-width="6" stroke-linecap="round" stroke-linejoin="round" stroke="rgb(0%, 56.863403%, 57.647705%)" stroke-opacity="1" stroke-miterlimit="10" d="M 447.324219 541.402344 C 447.324219 541.402344 452.824219 537.597656 465.585938 539.652344 C 478.351562 541.707031 476.4375 545.667969 492.382812 548.652344 C 508.324219 551.636719 521.863281 550.1875 521.863281 550.1875 " transform="matrix(1, 0, 0, 1, -118, -415)"/>
</svg>
