<?xml version="1.0" encoding="UTF-8"?>
<svg xmlns="http://www.w3.org/2000/svg" xmlns:xlink="http://www.w3.org/1999/xlink" width="840" height="269" viewBox="0 0 840 269">
<path fill="none" stroke-width="9" stroke-linecap="round" stroke-linejoin="round" stroke="rgb(42.744446%, 31.37207%, 0%)" stroke-opacity="1" stroke-miterlimit="10" d="M 75.011719 345.871094 C 153.449219 297.605469 391.738281 272.71875 607.242188 290.285156 C 657.339844 294.371094 703.457031 300.578125 743.074219 308.566406 " transform="matrix(1, 0, 0, 1, -45, -207)"/>
<path fill="none" stroke-width="6" stroke-linecap="round" stroke-linejoin="round" stroke="rgb(0%, 36.077881%, 36.470032%)" stroke-opacity="1" stroke-miterlimit="10" d="M 223 359 C 231.660156 359.691406 239.3125 363.246094 248.980469 361.078125 C 258.644531 358.914062 272.832031 347.179688 281 346 C 289.167969 344.820312 292.332031 351.332031 298 354 " transform="matrix(1, 0, 0, 1, -45, -207)"/>
<path fill="none" stroke-width="6" stroke-linecap="round" stroke-linejoin="round" stroke="rgb(69.412231%, 0%, 10.980225%)" stroke-opacity="1" stroke-miterlimit="10" d="M 547.003906 362.308594 C 539.765625 357.503906 534.792969 350.6875 525.289062 347.894531 C 515.785156 345.105469 497.6875 348.488281 489.972656 345.5625 C 482.253906 342.632812 482.644531 335.402344 478.980469 330.320312 " transform="matrix(1, 0, 0, 1, -45, -207)"/>
<path fill-rule="nonzero" fill="rgb(100%, 100%, 100%)" fill-opacity="1" stroke-width="2" stroke-linecap="round" stroke-linejoin="round" stroke="rgb(0%, 0%, 0%)" stroke-opacity="1" stroke-miterlimit="10" d="M 517.707031 248.242188 L 551.109375 248.242188 L 576.15625 267.6875 L 576.15625 293.609375 L 551.109375 313.054688 L 517.707031 313.054688 L 492.65625 293.609375 L 492.65625 267.6875 Z M 517.707031 248.242188 " transform="matrix(1, 0, 0, 1, -45, -207)"/>
<path fill-rule="nonzero" fill="rgb(100%, 100%, 100%)" fill-opacity="1" stroke-width="2" stroke-linecap="round" stroke-linejoin="round" stroke="rgb(0%, 0%, 0%)" stroke-opacity="1" stroke-miterlimit="10" d="M 224.023438 260.699219 L 257.175781 256.625 L 284.40625 272.871094 L 287.566406 298.605469 L 265.074219 320.957031 L 231.921875 325.027344 L 204.691406 308.78125 L 201.53125 283.050781 Z M 224.023438 260.699219 " transform="matrix(1, 0, 0, 1, -45, -207)"/>
<path fill="none" stroke-width="8" stroke-linecap="round" stroke-linejoin="round" stroke="rgb(0%, 36.077881%, 36.470032%)" stroke-opacity="1" stroke-miterlimit="10" d="M 354.113281 403.90625 C 362.773438 404.597656 372.445312 407.136719 380.09375 405.984375 C 387.738281 404.835938 393.363281 399.996094 400 397 " transform="matrix(1, 0, 0, 1, -45, -207)"/>
<path fill="none" stroke-width="8" stroke-linecap="round" stroke-linejoin="round" stroke="rgb(69.412231%, 0%, 10.980225%)" stroke-opacity="1" stroke-miterlimit="10" d="M 400.191406 397 C 407.53125 393.972656 415.710938 388.101562 422.214844 387.921875 C 428.71875 387.738281 433.546875 393.253906 439.214844 395.921875 " transform="matrix(1, 0, 0, 1, -45, -207)"/>
<path fill="none" stroke-width="3" stroke-linecap="round" stroke-linejoin="round" stroke="rgb(64.706421%, 64.706421%, 64.706421%)" stroke-opacity="1" stroke-miterlimit="10" d="M 246 298 L 253.769531 335.433594 " transform="matrix(1, 0, 0, 1, -45, -207)"/>
<path fill-rule="nonzero" fill="rgb(64.706421%, 64.706421%, 64.706421%)" fill-opacity="1" stroke-width="3" stroke-linecap="butt" stroke-linejoin="miter" stroke="rgb(64.706421%, 64.706421%, 64.706421%)" stroke-opacity="1" stroke-miterlimit="10" d="M 256.042969 346.398438 L 257.882812 334.578125 L 249.65625 336.285156 Z M 256.042969 346.398438 " transform="matrix(1, 0, 0, 1, -45, -207)"/>
<path fill="none" stroke-width="3" stroke-linecap="round" stroke-linejoin="round" stroke="rgb(64.706421%, 64.706421%, 64.706421%)" stroke-opacity="1" stroke-miterlimit="10" d="M 529 293 L 518.742188 325.824219 " transform="matrix(1, 0, 0, 1, -45, -207)"/>
<path fill-rule="nonzero" fill="rgb(64.706421%, 64.706421%, 64.706421%)" fill-opacity="1" stroke-width="3" stroke-linecap="butt" stroke-linejoin="miter" stroke="rgb(64.706421%, 64.706421%, 64.706421%)" stroke-opacity="1" stroke-miterlimit="10" d="M 515.402344 336.515625 L 522.75 327.078125 L 514.734375 324.570312 Z M 515.402344 336.515625 " transform="matrix(1, 0, 0, 1, -45, -207)"/>
<path fill="none" stroke-width="3" stroke-linecap="round" stroke-linejoin="round" stroke="rgb(64.706421%, 64.706421%, 64.706421%)" stroke-opacity="1" stroke-miterlimit="10" d="M 271.386719 364 L 325.101562 390.058594 " transform="matrix(1, 0, 0, 1, -45, -207)"/>
<path fill-rule="nonzero" fill="rgb(64.706421%, 64.706421%, 64.706421%)" fill-opacity="1" stroke-width="3" stroke-linecap="butt" stroke-linejoin="miter" stroke="rgb(64.706421%, 64.706421%, 64.706421%)" stroke-opacity="1" stroke-miterlimit="10" d="M 335.179688 394.949219 L 326.933594 386.28125 L 323.269531 393.839844 Z M 335.179688 394.949219 " transform="matrix(1, 0, 0, 1, -45, -207)"/>
<path fill="none" stroke-width="3" stroke-linecap="round" stroke-linejoin="round" stroke="rgb(64.706421%, 64.706421%, 64.706421%)" stroke-opacity="1" stroke-miterlimit="10" d="M 500 357 L 461.667969 379.789062 " transform="matrix(1, 0, 0, 1, -45, -207)"/>
<path fill-rule="nonzero" fill="rgb(64.706421%, 64.706421%, 64.706421%)" fill-opacity="1" stroke-width="3" stroke-linecap="butt" stroke-linejoin="miter" stroke="rgb(64.706421%, 64.706421%, 64.706421%)" stroke-opacity="1" stroke-miterlimit="10" d="M 452.039062 385.515625 L 463.8125 383.402344 L 459.519531 376.179688 Z M 452.039062 385.515625 " transform="matrix(1, 0, 0, 1, -45, -207)"/>
<path fill-rule="nonzero" fill="rgb(100%, 100%, 100%)" fill-opacity="1" stroke-width="2" stroke-linecap="round" stroke-linejoin="round" stroke="rgb(0%, 0%, 0%)" stroke-opacity="1" stroke-miterlimit="10" d="M 664.394531 332.304688 L 697.289062 338.101562 L 718.582031 361.601562 L 714.078125 387.132812 L 686.03125 401.929688 L 653.140625 396.128906 L 631.847656 372.632812 L 636.347656 347.101562 Z M 664.394531 332.304688 " transform="matrix(1, 0, 0, 1, -45, -207)"/>
<path fill="none" stroke-width="6" stroke-linecap="round" stroke-linejoin="round" stroke="rgb(0%, 36.077881%, 36.470032%)" stroke-opacity="1" stroke-miterlimit="10" d="M 688 249.144531 C 694.40625 249.5 701.566406 250.800781 707.226562 250.210938 C 712.882812 249.621094 717.046875 247.132812 721.957031 245.59375 " transform="matrix(1, 0, 0, 1, -45, -207)"/>
<path fill="none" stroke-width="6" stroke-linecap="round" stroke-linejoin="round" stroke="rgb(69.412231%, 0%, 10.980225%)" stroke-opacity="1" stroke-miterlimit="10" d="M 722.097656 245.59375 C 727.53125 244.039062 733.582031 241.023438 738.394531 240.929688 C 743.207031 240.839844 746.78125 243.671875 750.976562 245.039062 " transform="matrix(1, 0, 0, 1, -45, -207)"/>
<path fill="none" stroke-width="5" stroke-linecap="round" stroke-linejoin="round" stroke="rgb(0%, 36.077881%, 36.470032%)" stroke-opacity="1" stroke-miterlimit="10" d="M 215.046875 290.851562 C 221.039062 291.542969 226.027344 294.597656 233.027344 292.929688 C 240.027344 291.265625 249.546875 282.03125 257.046875 280.851562 C 264.550781 279.671875 271.050781 284.183594 278.046875 285.851562 " transform="matrix(1, 0, 0, 1, -45, -207)"/>
<path fill="none" stroke-width="5" stroke-linecap="round" stroke-linejoin="round" stroke="rgb(69.412231%, 0%, 10.980225%)" stroke-opacity="1" stroke-miterlimit="10" d="M 562.417969 293.644531 C 556.847656 289.839844 552.710938 284.351562 545.703125 282.230469 C 538.699219 280.105469 526.835938 283.097656 520.386719 280.894531 C 513.9375 278.6875 511.460938 272.964844 507 269 " transform="matrix(1, 0, 0, 1, -45, -207)"/>
<path fill-rule="nonzero" fill="rgb(100%, 100%, 100%)" fill-opacity="1" stroke-width="2" stroke-linecap="round" stroke-linejoin="round" stroke="rgb(0%, 0%, 0%)" stroke-opacity="1" stroke-miterlimit="10" d="M 709.046875 212.699219 L 741.9375 218.5 L 763.230469 242 L 758.730469 267.53125 L 730.683594 282.328125 L 697.792969 276.527344 L 676.5 253.03125 L 681 227.5 Z M 709.046875 212.699219 " transform="matrix(1, 0, 0, 1, -45, -207)"/>
<path fill-rule="nonzero" fill="rgb(100%, 100%, 100%)" fill-opacity="1" d="M 625.226562 138.6875 L 658.117188 144.484375 L 679.410156 167.984375 L 674.910156 193.515625 L 646.863281 208.3125 L 613.972656 202.515625 L 592.679688 179.015625 L 597.179688 153.484375 Z M 625.226562 138.6875 "/>
<path fill-rule="nonzero" fill="rgb(100%, 100%, 100%)" fill-opacity="1" stroke-width="2" stroke-linecap="round" stroke-linejoin="round" stroke="rgb(0%, 0%, 0%)" stroke-opacity="1" stroke-miterlimit="10" d="M 705.699219 444.671875 L 672.546875 448.742188 L 645.316406 432.496094 L 642.15625 406.765625 L 664.648438 384.414062 L 697.800781 380.34375 L 725.035156 396.589844 L 728.195312 422.320312 Z M 705.699219 444.671875 " transform="matrix(1, 0, 0, 1, -45, -207)"/>
<path fill-rule="nonzero" fill="rgb(100%, 100%, 100%)" fill-opacity="1" d="M 669.441406 224.339844 L 625.871094 229.691406 L 590.828125 214.40625 L 587.667969 188.671875 L 617.972656 165.363281 L 661.542969 160.011719 L 696.589844 175.296875 L 699.75 201.03125 Z M 669.441406 224.339844 "/>
<path fill="none" stroke-width="8" stroke-linecap="round" stroke-linejoin="round" stroke="rgb(0%, 36.077881%, 36.470032%)" stroke-opacity="1" stroke-miterlimit="10" d="M 639.226562 396.707031 C 647.632812 398.890625 656.71875 403.070312 664.449219 403.265625 C 672.179688 403.460938 678.558594 399.671875 685.613281 397.875 " transform="matrix(1, 0, 0, 1, -45, -207)"/>
<path fill="none" stroke-width="8" stroke-linecap="round" stroke-linejoin="round" stroke="rgb(69.412231%, 0%, 10.980225%)" stroke-opacity="1" stroke-miterlimit="10" d="M 685.804688 397.90625 C 693.558594 396.203125 702.632812 391.835938 709.066406 392.789062 C 715.503906 393.742188 719.304688 400.011719 724.421875 403.621094 " transform="matrix(1, 0, 0, 1, -45, -207)"/>
<path fill="none" stroke-width="3" stroke-linecap="round" stroke-linejoin="round" stroke="rgb(64.706421%, 64.706421%, 64.706421%)" stroke-opacity="1" stroke-miterlimit="10" d="M 420 413.238281 C 456.328125 418.492188 494.257812 430.371094 529 429 C 558.347656 427.839844 585.433594 417.222656 613.125 409.132812 " transform="matrix(1, 0, 0, 1, -45, -207)"/>
<path fill-rule="nonzero" fill="rgb(64.706421%, 64.706421%, 64.706421%)" fill-opacity="1" stroke-width="3" stroke-linecap="butt" stroke-linejoin="miter" stroke="rgb(64.706421%, 64.706421%, 64.706421%)" stroke-opacity="1" stroke-miterlimit="10" d="M 623.933594 406.222656 L 612.027344 405.078125 L 614.210938 413.1875 Z M 623.933594 406.222656 " transform="matrix(1, 0, 0, 1, -45, -207)"/>
<path fill-rule="nonzero" fill="rgb(100%, 100%, 100%)" fill-opacity="1" d="M 655.804688 77.046875 L 665.898438 79.941406 C 667.09375 80.285156 665.714844 88.742188 662.824219 98.824219 C 659.933594 108.90625 656.617188 116.8125 655.425781 116.46875 L 645.332031 113.574219 C 644.136719 113.234375 645.515625 104.773438 648.40625 94.691406 C 651.296875 84.609375 654.613281 76.703125 655.804688 77.046875 Z M 655.804688 77.046875 "/>
<path fill="none" stroke-width="3" stroke-linecap="round" stroke-linejoin="round" stroke="rgb(64.706421%, 64.706421%, 64.706421%)" stroke-opacity="1" stroke-miterlimit="10" d="M 693 330.320312 L 703.617188 293.285156 " transform="matrix(1, 0, 0, 1, -45, -207)"/>
<path fill-rule="nonzero" fill="rgb(64.706421%, 64.706421%, 64.706421%)" fill-opacity="1" stroke-width="3" stroke-linecap="butt" stroke-linejoin="miter" stroke="rgb(64.706421%, 64.706421%, 64.706421%)" stroke-opacity="1" stroke-miterlimit="10" d="M 706.703125 282.519531 L 699.582031 292.125 L 707.65625 294.441406 Z M 706.703125 282.519531 " transform="matrix(1, 0, 0, 1, -45, -207)"/>
<path fill="none" stroke-width="6" stroke-linecap="round" stroke-linejoin="round" stroke="rgb(0%, 36.077881%, 36.470032%)" stroke-opacity="1" stroke-miterlimit="10" d="M 685.988281 244.167969 C 692.460938 245.671875 699.535156 248.242188 705.410156 248.679688 C 711.28125 249.113281 715.960938 247.414062 721.234375 246.78125 " transform="matrix(1, 0, 0, 1, -45, -207)"/>
<path fill="none" stroke-width="6" stroke-linecap="round" stroke-linejoin="round" stroke="rgb(69.412231%, 0%, 10.980225%)" stroke-opacity="1" stroke-miterlimit="10" d="M 721.378906 246.808594 C 727.1875 246.253906 733.886719 244.371094 738.808594 245.144531 C 743.734375 245.917969 746.886719 249.351562 750.925781 251.453125 " transform="matrix(1, 0, 0, 1, -45, -207)"/>
<path fill-rule="nonzero" fill="rgb(100%, 100%, 100%)" fill-opacity="1" stroke-width="2" stroke-linecap="round" stroke-linejoin="round" stroke="rgb(0%, 0%, 0%)" stroke-opacity="1" stroke-miterlimit="10" d="M 403.882812 436.648438 L 415.523438 438.699219 L 422.996094 447.363281 L 421.320312 456.859375 L 411.335938 462.445312 L 399.699219 460.390625 L 392.226562 451.730469 L 393.898438 442.234375 Z M 403.882812 436.648438 " transform="matrix(1, 0, 0, 1, -45, -207)"/>
<path fill-rule="nonzero" fill="rgb(100%, 100%, 100%)" fill-opacity="1" stroke-width="2" stroke-linecap="round" stroke-linejoin="round" stroke="rgb(0%, 0%, 0%)" stroke-opacity="1" stroke-miterlimit="10" d="M 355.964844 428.671875 L 364.175781 420.171875 L 375.535156 418.820312 L 382.472656 425.519531 L 381.515625 436.917969 L 373.308594 445.421875 L 361.949219 446.773438 L 355.011719 440.074219 Z M 355.964844 428.671875 " transform="matrix(1, 0, 0, 1, -45, -207)"/>
</svg>
