<?xml version="1.0" encoding="UTF-8" standalone="no"?>
<!-- Created with Inkscape (http://www.inkscape.org/) -->

<svg
   version="1.1"
   id="svg9"
   xml:space="preserve"
   width="296.84885"
   height="174.95067"
   viewBox="0 0 296.84884 174.95067"
   sodipodi:docname="rsif.2020.0756.svg"
   inkscape:version="1.1.1 (c3084ef, 2021-09-22)"
   xmlns:inkscape="http://www.inkscape.org/namespaces/inkscape"
   xmlns:sodipodi="http://sodipodi.sourceforge.net/DTD/sodipodi-0.dtd"
   xmlns="http://www.w3.org/2000/svg"
   xmlns:svg="http://www.w3.org/2000/svg"><sodipodi:namedview
     id="namedview8551"
     pagecolor="#ffffff"
     bordercolor="#666666"
     borderopacity="1.0"
     inkscape:pageshadow="2"
     inkscape:pageopacity="0.0"
     inkscape:pagecheckerboard="0"
     showgrid="false"
     inkscape:zoom="1"
     inkscape:cx="306"
     inkscape:cy="171.5"
     inkscape:window-width="1221"
     inkscape:window-height="925"
     inkscape:window-x="0"
     inkscape:window-y="23"
     inkscape:window-maximized="0"
     inkscape:current-layer="svg9" /><defs
     id="defs13"><clipPath
       clipPathUnits="userSpaceOnUse"
       id="clipPath717"><path
         d="m 365.73,799.22 h 88.627 V 740.513 H 365.73 Z"
         id="path715" /></clipPath><clipPath
       clipPathUnits="userSpaceOnUse"
       id="clipPath729"><path
         d="m 365.73,720.637 h 88.684 V 661.931 H 365.73 Z"
         id="path727" /></clipPath><clipPath
       clipPathUnits="userSpaceOnUse"
       id="clipPath1977"><path
         d="M 0,0 H 595.28 V 841.89 H 0 Z"
         id="path1975" /></clipPath></defs><g
     id="g15"
     transform="matrix(1.3333333,0,0,-1.3333333,-91.984476,1054.7256)"><g
       id="g735"
       transform="translate(84.634,780.366)"><path
         d="m 0,0 c -0.883,0 -1.769,-0.338 -2.442,-1.012 -1.349,-1.346 -1.349,-3.53 0,-4.878 1.348,-1.347 3.537,-1.347 4.885,0 1.348,1.348 1.348,3.532 0,4.878 C 1.768,-0.338 0.884,0 0,0 Z m -4.132,-7.606 c -1.306,0 -2.368,-0.507 -2.743,-0.942 -0.648,-0.749 -0.647,-1.64 -0.627,-1.954 v -12.715 c 10e-4,-0.637 0.505,-1.145 1.143,-1.145 0.637,0 1.145,0.518 1.145,1.145 v 10.521 h 1.044 v -10.986 h 0.009 v -14.963 c 0,-1.001 0.821,-1.821 1.823,-1.821 1.003,0 1.822,0.82 1.822,1.821 v 14.963 h 1.022 v -14.963 c 0,-1.001 0.821,-1.821 1.823,-1.821 1.002,0 1.822,0.82 1.822,1.821 v 14.973 h 0.01 v 10.986 h 1.044 v -10.522 c 0,-0.637 0.504,-1.141 1.142,-1.141 0.638,0 1.146,0.514 1.146,1.141 v 12.706 c 0.03,0.314 0.021,1.215 -0.627,1.954 -0.374,0.425 -1.44,0.942 -2.746,0.942 h -8.252"
         style="fill:#5e5e5e;fill-opacity:1;fill-rule:nonzero;stroke:none"
         id="path737" /></g><g
       id="g739"
       transform="translate(84.634,716.278)"><path
         d="m 0,0 c -0.883,0 -1.769,-0.338 -2.442,-1.012 -1.349,-1.347 -1.349,-3.53 0,-4.878 1.348,-1.347 3.537,-1.347 4.885,0 1.348,1.348 1.348,3.531 0,4.878 C 1.768,-0.338 0.884,0 0,0 Z m -4.132,-7.606 c -1.306,0 -2.368,-0.507 -2.743,-0.942 -0.648,-0.749 -0.647,-1.64 -0.627,-1.954 v -12.715 c 10e-4,-0.637 0.505,-1.145 1.143,-1.145 0.637,0 1.145,0.518 1.145,1.145 v 10.521 h 1.044 v -10.986 h 0.009 v -14.963 c 0,-1.001 0.821,-1.821 1.823,-1.821 1.003,0 1.822,0.82 1.822,1.821 v 14.963 h 1.022 v -14.963 c 0,-1.001 0.821,-1.821 1.823,-1.821 1.002,0 1.822,0.82 1.822,1.821 v 14.973 h 0.01 v 10.986 h 1.044 v -10.521 c 0,-0.637 0.504,-1.142 1.142,-1.142 0.638,0 1.146,0.514 1.146,1.142 v 12.705 c 0.03,0.314 0.021,1.215 -0.627,1.954 -0.374,0.424 -1.44,0.942 -2.746,0.942 h -8.252"
         style="fill:#5e5e5e;fill-opacity:1;fill-rule:nonzero;stroke:none"
         id="path741" /></g><text
       transform="scale(1.0004204,-0.9995798)"
       style="font-variant:normal;font-weight:normal;font-size:14.7519px;font-family:Times;-inkscape-font-specification:Times-Roman;writing-mode:lr-tb;fill:#ffffff;fill-opacity:1;fill-rule:nonzero;stroke:none;stroke-width:0.99958"
       id="text747"
       x="83.029793"
       y="-760.45276"><tspan
         x="83.029793"
         y="-760.45276"
         id="tspan743"
         style="stroke-width:0.99958">i</tspan><tspan
         x="83.029793"
         y="-697.5108"
         id="tspan745"
         style="stroke-width:0.99958">j</tspan></text><g
       id="g749"
       transform="translate(98.031,760.133)"><path
         d="M 0,0 H 189.364"
         style="fill:none;stroke:#929292;stroke-width:0.983;stroke-linecap:butt;stroke-linejoin:miter;stroke-miterlimit:4;stroke-dasharray:none;stroke-opacity:1"
         id="path751" /></g><g
       id="g753"
       transform="translate(286.903,757.774)"><path
         d="M 0,0 4.722,2.359 0,4.719 V 0"
         style="fill:#929292;fill-opacity:1;fill-rule:nonzero;stroke:none"
         id="path755" /></g><g
       id="g757"
       transform="translate(98.031,696.045)"><path
         d="M 0,0 H 189.364"
         style="fill:none;stroke:#929292;stroke-width:0.983;stroke-linecap:butt;stroke-linejoin:miter;stroke-miterlimit:4;stroke-dasharray:none;stroke-opacity:1"
         id="path759" /></g><g
       id="g761"
       transform="translate(286.903,693.686)"><path
         d="M 0,0 4.722,2.359 0,4.719 V 0"
         style="fill:#929292;fill-opacity:1;fill-rule:nonzero;stroke:none"
         id="path763" /></g><g
       id="g765"
       transform="translate(120.663,763.224)"><path
         d="m 0,0 c 1.708,-1.707 1.708,-4.475 0,-6.182 -1.708,-1.707 -4.478,-1.707 -6.187,0 -1.708,1.707 -1.708,4.475 0,6.182 1.709,1.707 4.479,1.707 6.187,0"
         style="fill:#ff9300;fill-opacity:1;fill-rule:nonzero;stroke:none"
         id="path767" /></g><g
       id="g769"
       transform="translate(226.602,699.136)"><path
         d="m 0,0 c 1.709,-1.707 1.709,-4.474 0,-6.181 -1.708,-1.707 -4.478,-1.707 -6.186,0 -1.709,1.707 -1.709,4.474 0,6.181 1.708,1.707 4.478,1.707 6.186,0"
         style="fill:#ff9300;fill-opacity:1;fill-rule:nonzero;stroke:none"
         id="path771" /></g><g
       id="g773"
       transform="translate(195.755,763.224)"><path
         d="m 0,0 c 1.708,-1.707 1.708,-4.475 0,-6.182 -1.708,-1.707 -4.479,-1.707 -6.186,0 -1.709,1.707 -1.709,4.475 0,6.182 1.707,1.707 4.478,1.707 6.186,0"
         style="fill:#017b76;fill-opacity:1;fill-rule:nonzero;stroke:none"
         id="path775" /></g><g
       id="g777"
       transform="translate(122.567,744.797)"><path
         d="M 0,0 H 65.232"
         style="fill:none;stroke:#5e5e5e;stroke-width:0.983;stroke-linecap:butt;stroke-linejoin:miter;stroke-miterlimit:4;stroke-dasharray:none;stroke-opacity:1"
         id="path779" /></g><g
       id="g781"
       transform="translate(187.307,742.438)"><path
         d="M 0,0 4.722,2.36 0,4.719 V 0"
         style="fill:#5e5e5e;fill-opacity:1;fill-rule:nonzero;stroke:none"
         id="path783" /></g><g
       id="g785"
       transform="translate(123.059,747.156)"><path
         d="M 0,0 -4.723,-2.359 0,-4.719 V 0"
         style="fill:#5e5e5e;fill-opacity:1;fill-rule:nonzero;stroke:none"
         id="path787" /></g><g
       id="g789"
       transform="translate(199.485,728.089)"><path
         d="M 0,0 H 19.933"
         style="fill:none;stroke:#5e5e5e;stroke-width:0.983;stroke-linecap:butt;stroke-linejoin:miter;stroke-miterlimit:4;stroke-dasharray:none;stroke-opacity:1"
         id="path791" /></g><g
       id="g793"
       transform="translate(218.926,725.73)"><path
         d="M 0,0 4.723,2.359 0,4.718 V 0"
         style="fill:#5e5e5e;fill-opacity:1;fill-rule:nonzero;stroke:none"
         id="path795" /></g><g
       id="g797"
       transform="translate(199.976,730.448)"><path
         d="M 0,0 -4.722,-2.359 0,-4.718 V 0"
         style="fill:#5e5e5e;fill-opacity:1;fill-rule:nonzero;stroke:none"
         id="path799" /></g><g
       id="g801"
       transform="translate(228.948,706.727)"><path
         d="M 0,0 H 47.219"
         style="fill:none;stroke:#5e5e5e;stroke-width:0.983;stroke-linecap:butt;stroke-linejoin:miter;stroke-miterlimit:4;stroke-dasharray:none;stroke-opacity:1"
         id="path803" /></g><g
       id="g805"
       transform="translate(275.675,704.367)"><path
         d="M 0,0 4.723,2.359 0,4.718 V 0"
         style="fill:#5e5e5e;fill-opacity:1;fill-rule:nonzero;stroke:none"
         id="path807" /></g><g
       id="g809"
       transform="translate(229.44,709.086)"><path
         d="M 0,0 -4.723,-2.359 0,-4.718 V 0"
         style="fill:#5e5e5e;fill-opacity:1;fill-rule:nonzero;stroke:none"
         id="path811" /></g><g
       id="g813"
       transform="translate(119.699,778.89)"><path
         d="M 0,0 H 99.105"
         style="fill:none;stroke:#5e5e5e;stroke-width:0.983;stroke-linecap:butt;stroke-linejoin:miter;stroke-miterlimit:4;stroke-dasharray:none;stroke-opacity:1"
         id="path815" /></g><g
       id="g817"
       transform="translate(218.311,776.531)"><path
         d="M 0,0 4.722,2.359 0,4.719 V 0"
         style="fill:#5e5e5e;fill-opacity:1;fill-rule:nonzero;stroke:none"
         id="path819" /></g><g
       id="g821"
       transform="translate(120.19,781.25)"><path
         d="M 0,0 -4.722,-2.359 0,-4.719 V 0"
         style="fill:#5e5e5e;fill-opacity:1;fill-rule:nonzero;stroke:none"
         id="path823" /></g><g
       id="g825"
       transform="translate(200.179,678.365)"><path
         d="M 0,0 H 75.987"
         style="fill:none;stroke:#5e5e5e;stroke-width:0.983;stroke-linecap:butt;stroke-linejoin:miter;stroke-miterlimit:4;stroke-dasharray:none;stroke-opacity:1"
         id="path827" /></g><g
       id="g829"
       transform="translate(275.674,676.005)"><path
         d="M 0,0 4.722,2.36 0,4.719 V 0"
         style="fill:#5e5e5e;fill-opacity:1;fill-rule:nonzero;stroke:none"
         id="path831" /></g><g
       id="g833"
       transform="translate(200.671,680.724)"><path
         d="M 0,0 -4.723,-2.359 0,-4.719 V 0"
         style="fill:#5e5e5e;fill-opacity:1;fill-rule:nonzero;stroke:none"
         id="path835" /></g><g
       id="g837"
       transform="translate(284.668,699.136)"><path
         d="m 0,0 c 1.708,-1.707 1.708,-4.474 0,-6.181 -1.709,-1.707 -4.479,-1.707 -6.187,0 -1.708,1.707 -1.708,4.474 0,6.181 1.708,1.707 4.478,1.707 6.187,0"
         style="fill:#017b76;fill-opacity:1;fill-rule:nonzero;stroke:none"
         id="path839" /></g><g
       id="g841"
       transform="translate(84.513,734.771)"><path
         d="M 0,0 V -6.876 -7.613"
         style="fill:none;stroke:#5e5e5e;stroke-width:1.475;stroke-linecap:butt;stroke-linejoin:miter;stroke-miterlimit:4;stroke-dasharray:1.4752, 1.4752;stroke-dashoffset:0;stroke-opacity:1"
         id="path843" /></g><g
       id="g845"
       transform="translate(81.266,727.895)"><path
         d="M 0,0 3.247,-6.488 6.494,0 H 0"
         style="fill:#5e5e5e;fill-opacity:1;fill-rule:nonzero;stroke:none"
         id="path847" /></g><text
       transform="scale(1.0004166,-0.99958359)"
       style="font-style:italic;font-variant:normal;font-size:9.00375px;font-family:Times;-inkscape-font-specification:Times-Italic;writing-mode:lr-tb;fill:#000000;fill-opacity:1;fill-rule:nonzero;stroke:none;stroke-width:0.999584"
       id="text851"
       x="164.24017"
       y="-785.37274"><tspan
         x="164.24017"
         y="-785.37274"
         id="tspan849"
         style="stroke-width:0.999584">G</tspan></text><text
       transform="scale(1.0004192,-0.99958098)"
       style="font-style:italic;font-variant:normal;font-size:5.2492px;font-family:Times;-inkscape-font-specification:Times-Italic;writing-mode:lr-tb;fill:#000000;fill-opacity:1;fill-rule:nonzero;stroke:none;stroke-width:0.999581"
       id="text855"
       x="170.74002"
       y="-782.3764"><tspan
         x="170.74002 172.19931"
         y="-782.3764"
         id="tspan853"
         style="stroke-width:0.999581">ij</tspan></text><text
       transform="scale(1.0004166,-0.99958359)"
       style="font-style:italic;font-variant:normal;font-size:9.00375px;font-family:Times;-inkscape-font-specification:Times-Italic;writing-mode:lr-tb;fill:#000000;fill-opacity:1;fill-rule:nonzero;stroke:none;stroke-width:0.999584"
       id="text859"
       x="237.26836"
       y="-684.0177"><tspan
         x="237.26836"
         y="-684.0177"
         id="tspan857"
         style="stroke-width:0.999584">S</tspan></text><text
       transform="scale(1.0004192,-0.99958098)"
       style="font-style:italic;font-variant:normal;font-size:5.2492px;font-family:Times;-inkscape-font-specification:Times-Italic;writing-mode:lr-tb;fill:#000000;fill-opacity:1;fill-rule:nonzero;stroke:none;stroke-width:0.999581"
       id="text863"
       x="241.76985"
       y="-681.02124"><tspan
         x="241.76985 243.22913"
         y="-681.02124"
         id="tspan861"
         style="stroke-width:0.999581">ij</tspan></text><text
       transform="scale(1.0004166,-0.99958359)"
       style="font-style:italic;font-variant:normal;font-size:9.00375px;font-family:Times;-inkscape-font-specification:Times-Italic;writing-mode:lr-tb;fill:#000000;fill-opacity:1;fill-rule:nonzero;stroke:none;stroke-width:0.999584"
       id="text867"
       x="153.05135"
       y="-750.15076"><tspan
         x="153.05135"
         y="-750.15076"
         id="tspan865"
         style="stroke-width:0.999584">I</tspan></text><text
       transform="scale(1.0004192,-0.99958098)"
       style="font-style:italic;font-variant:normal;font-size:5.2492px;font-family:Times;-inkscape-font-specification:Times-Italic;writing-mode:lr-tb;fill:#000000;fill-opacity:1;fill-rule:nonzero;stroke:none;stroke-width:0.999581"
       id="text871"
       x="156.04918"
       y="-747.1543"><tspan
         x="156.04918"
         y="-747.1543"
         id="tspan869"
         style="stroke-width:0.999581">i</tspan></text><text
       transform="scale(1.0004166,-0.99958359)"
       style="font-style:italic;font-variant:normal;font-size:9.00375px;font-family:Times;-inkscape-font-specification:Times-Italic;writing-mode:lr-tb;fill:#000000;fill-opacity:1;fill-rule:nonzero;stroke:none;stroke-width:0.999584"
       id="text875"
       x="204.83107"
       y="-733.90472"><tspan
         x="204.83107"
         y="-733.90472"
         id="tspan873"
         style="stroke-width:0.999584">P</tspan></text><text
       transform="scale(1.0004192,-0.99958098)"
       style="font-style:italic;font-variant:normal;font-size:5.2492px;font-family:Times;-inkscape-font-specification:Times-Italic;writing-mode:lr-tb;fill:#000000;fill-opacity:1;fill-rule:nonzero;stroke:none;stroke-width:0.999581"
       id="text879"
       x="210.33223"
       y="-730.90839"><tspan
         x="210.33223 211.7915"
         y="-730.90839"
         id="tspan877"
         style="stroke-width:0.999581">ij</tspan></text><text
       transform="scale(1.0004166,-0.99958359)"
       style="font-style:italic;font-variant:normal;font-size:9.00375px;font-family:Times;-inkscape-font-specification:Times-Italic;writing-mode:lr-tb;fill:#000000;fill-opacity:1;fill-rule:nonzero;stroke:none;stroke-width:0.999584"
       id="text883"
       x="250.32692"
       y="-713.12512"><tspan
         x="250.32692"
         y="-713.12512"
         id="tspan881"
         style="stroke-width:0.999584">I</tspan></text><text
       transform="scale(1.0004192,-0.99958098)"
       style="font-style:italic;font-variant:normal;font-size:5.2492px;font-family:Times;-inkscape-font-specification:Times-Italic;writing-mode:lr-tb;fill:#000000;fill-opacity:1;fill-rule:nonzero;stroke:none;stroke-width:0.999581"
       id="text887"
       x="253.32401"
       y="-710.12878"><tspan
         x="253.32401"
         y="-710.12878"
         id="tspan885"
         style="stroke-width:0.999581">j</tspan></text><text
       transform="scale(1.0004166,-0.99958358)"
       style="font-variant:normal;font-weight:normal;font-size:9.00375px;font-family:Times;-inkscape-font-specification:Times-Roman;writing-mode:lr-tb;fill:#000000;fill-opacity:1;fill-rule:nonzero;stroke:none;stroke-width:0.999584"
       id="text929"
       x="467.8631"
       y="-776.98492"><tspan
         x="467.8631"
         y="-776.98492"
         id="tspan925"
         style="stroke-width:0.999584" /><tspan
         x="132.57697 135.08 139.58185 142.58012 146.57777 150.57544 153.07849 155.58154 160.08342"
         y="-662.0755"
         id="tspan927"
         style="stroke-width:0.999584">infection</tspan></text><g
       id="g931"
       transform="translate(120.693,667.399)"><path
         d="m 0,0 c 1.624,-1.617 1.624,-4.239 0,-5.857 -1.624,-1.617 -4.257,-1.617 -5.881,0 -1.624,1.618 -1.624,4.24 0,5.857 1.624,1.618 4.257,1.618 5.881,0"
         style="fill:#ff9300;fill-opacity:1;fill-rule:nonzero;stroke:none"
         id="path933" /></g><text
       transform="scale(1.0004166,-0.99958359)"
       style="font-variant:normal;font-weight:normal;font-size:9.00375px;font-family:Times;-inkscape-font-specification:Times-Roman;writing-mode:lr-tb;fill:#000000;fill-opacity:1;fill-rule:nonzero;stroke:none;stroke-width:0.999584"
       id="text937"
       x="203.92645"
       y="-662.07568"><tspan
         x="203.92645 207.42891 211.93079 218.9357 223.43758 225.94061 230.44249 237.4474 239.69835 244.20021 248.70209 252.20454 256.20221 258.70526"
         y="-662.07568"
         id="tspan935"
         style="stroke-width:0.999584">symptom onset </tspan></text><g
       id="g939"
       transform="translate(193.853,667.34)"><path
         d="m 0,0 c 1.591,-1.584 1.591,-4.154 0,-5.739 -1.592,-1.584 -4.172,-1.584 -5.763,0 -1.591,1.585 -1.591,4.155 0,5.739 1.591,1.585 4.171,1.585 5.763,0"
         style="fill:#017b76;fill-opacity:1;fill-rule:nonzero;stroke:none"
         id="path941" /></g><text
       transform="scale(1.0004166,-0.99958358)"
       style="font-variant:normal;font-weight:normal;font-size:9.00375px;font-family:Times;-inkscape-font-specification:Times-Roman;writing-mode:lr-tb;fill:#000000;fill-opacity:1;fill-rule:nonzero;stroke:none;stroke-width:0.999584"
       id="text1145"
       x="69.333"
       y="-615.84827"><tspan
         x="69.333"
         y="-615.84827"
         id="tspan1141"
         style="stroke-width:0.999584" /><tspan
         x="68.783775 71.286819 75.788689 78.786942 82.784607 86.782272 89.285309 93.282974"
         y="-667.85028"
         id="tspan1143"
         style="stroke-width:0.999584">infectee</tspan></text><text
       transform="scale(1.0004166,-0.99958359)"
       style="font-variant:normal;font-weight:normal;font-size:9.00375px;font-family:Times;-inkscape-font-specification:Times-Roman;writing-mode:lr-tb;fill:#000000;fill-opacity:1;fill-rule:nonzero;stroke:none;stroke-width:0.999584"
       id="text1213"
       x="70.611984"
       y="-782.52588"><tspan
         x="70.611984 73.115028 77.616898 80.61515 84.612816 88.610481 91.113525 95.615395"
         y="-782.52588"
         id="tspan1211"
         style="stroke-width:0.999584">infector</tspan></text></g></svg>
