<?xml version="1.0" encoding="UTF-8" standalone="no"?>
<svg
   xmlns:ooo="http://xml.openoffice.org/svg/export"
   xmlns:dc="http://purl.org/dc/elements/1.1/"
   xmlns:cc="http://creativecommons.org/ns#"
   xmlns:rdf="http://www.w3.org/1999/02/22-rdf-syntax-ns#"
   xmlns:svg="http://www.w3.org/2000/svg"
   xmlns="http://www.w3.org/2000/svg"
   xmlns:sodipodi="http://sodipodi.sourceforge.net/DTD/sodipodi-0.dtd"
   xmlns:inkscape="http://www.inkscape.org/namespaces/inkscape"
   version="1.2"
   width="145.13mm"
   height="19.6mm"
   viewBox="0 0 14513.001 1960.0001"
   preserveAspectRatio="xMidYMid"
   xml:space="preserve"
   id="svg2"
   inkscape:version="0.91 r13725"
   sodipodi:docname="shotgun.svg"
   style="fill-rule:evenodd;stroke-width:28.22200012;stroke-linejoin:round"><metadata
     id="metadata233"><rdf:RDF><cc:Work
         rdf:about=""><dc:format>image/svg+xml</dc:format><dc:type
           rdf:resource="http://purl.org/dc/dcmitype/StillImage" /><dc:title></dc:title></cc:Work></rdf:RDF></metadata><sodipodi:namedview
     pagecolor="#ffffff"
     bordercolor="#666666"
     borderopacity="1"
     objecttolerance="10"
     gridtolerance="10"
     guidetolerance="10"
     inkscape:pageopacity="0"
     inkscape:pageshadow="2"
     inkscape:window-width="2307"
     inkscape:window-height="1314"
     id="namedview231"
     showgrid="false"
     inkscape:zoom="2.55"
     inkscape:cx="245.50592"
     inkscape:cy="57.408752"
     inkscape:window-x="20"
     inkscape:window-y="68"
     inkscape:window-maximized="0"
     inkscape:current-layer="svg2"
     fit-margin-top="0"
     fit-margin-left="0"
     fit-margin-right="0"
     fit-margin-bottom="0" /><defs
     class="ClipPathGroup"
     id="defs4"><clipPath
       id="presentation_clip_path"
       clipPathUnits="userSpaceOnUse"><rect
         x="0"
         y="0"
         width="21590"
         height="27940"
         id="rect7" /></clipPath></defs><defs
     class="TextShapeIndex"
     id="defs9"><g
       ooo:slide="id1"
       ooo:id-list="id3 id4 id5 id6 id7 id8 id9 id10 id11 id12 id13 id14 id15 id16 id17 id18 id19 id20 id21 id22 id23 id24 id25 id26 id27"
       id="g11" /></defs><defs
     class="EmbeddedBulletChars"
     id="defs13"><g
       id="bullet-char-template(57356)"
       transform="scale(4.8828125e-4,-4.8828125e-4)"><path
         d="M 580,1141 1163,571 580,0 -4,571 580,1141 Z"
         id="path16"
         inkscape:connector-curvature="0" /></g><g
       id="bullet-char-template(57354)"
       transform="scale(4.8828125e-4,-4.8828125e-4)"><path
         d="m 8,1128 1129,0 L 1137,0 8,0 8,1128 Z"
         id="path19"
         inkscape:connector-curvature="0" /></g><g
       id="bullet-char-template(10146)"
       transform="scale(4.8828125e-4,-4.8828125e-4)"><path
         d="M 174,0 602,739 174,1481 1456,739 174,0 Z m 1184,739 -1049,607 350,-607 699,0 z"
         id="path22"
         inkscape:connector-curvature="0" /></g><g
       id="bullet-char-template(10132)"
       transform="scale(4.8828125e-4,-4.8828125e-4)"><path
         d="M 2015,739 1276,0 717,0 l 543,543 -1086,0 0,393 1086,0 -543,545 557,0 741,-742 z"
         id="path25"
         inkscape:connector-curvature="0" /></g><g
       id="bullet-char-template(10007)"
       transform="scale(4.8828125e-4,-4.8828125e-4)"><path
         d="m 0,-2 c -7,16 -16,29 -25,39 l 381,530 c -94,256 -141,385 -141,387 0,25 13,38 40,38 9,0 21,-2 34,-5 21,4 42,12 65,25 l 27,-13 111,-251 280,301 64,-25 24,25 c 21,-10 41,-24 62,-43 C 886,937 835,863 770,784 769,783 710,716 594,584 L 774,223 c 0,-27 -21,-55 -63,-84 l 16,-20 C 717,90 699,76 672,76 641,76 570,178 457,381 L 164,-76 c -22,-34 -53,-51 -92,-51 -42,0 -63,17 -64,51 -7,9 -10,24 -10,44 0,9 1,19 2,30 z"
         id="path28"
         inkscape:connector-curvature="0" /></g><g
       id="bullet-char-template(10004)"
       transform="scale(4.8828125e-4,-4.8828125e-4)"><path
         d="M 285,-33 C 182,-33 111,30 74,156 52,228 41,333 41,471 c 0,78 14,145 41,201 34,71 87,106 158,106 53,0 88,-31 106,-94 l 23,-176 c 8,-64 28,-97 59,-98 l 735,706 c 11,11 33,17 66,17 42,0 63,-15 63,-46 l 0,-122 c 0,-36 -10,-64 -30,-84 L 442,47 C 390,-6 338,-33 285,-33 Z"
         id="path31"
         inkscape:connector-curvature="0" /></g><g
       id="bullet-char-template(9679)"
       transform="scale(4.8828125e-4,-4.8828125e-4)"><path
         d="M 813,0 C 632,0 489,54 383,161 276,268 223,411 223,592 c 0,181 53,324 160,431 106,107 249,161 430,161 179,0 323,-54 432,-161 108,-107 162,-251 162,-431 0,-180 -54,-324 -162,-431 C 1136,54 992,0 813,0 Z"
         id="path34"
         inkscape:connector-curvature="0" /></g><g
       id="bullet-char-template(8226)"
       transform="scale(4.8828125e-4,-4.8828125e-4)"><path
         d="m 346,457 c -73,0 -137,26 -191,78 -54,51 -81,114 -81,188 0,73 27,136 81,188 54,52 118,78 191,78 73,0 134,-26 185,-79 51,-51 77,-114 77,-187 0,-75 -25,-137 -76,-188 -50,-52 -112,-78 -186,-78 z"
         id="path37"
         inkscape:connector-curvature="0" /></g><g
       id="bullet-char-template(8211)"
       transform="scale(4.8828125e-4,-4.8828125e-4)"><path
         d="m -4,459 1139,0 0,147 -1139,0 0,-147 z"
         id="path40"
         inkscape:connector-curvature="0" /></g></defs><defs
     class="TextEmbeddedBitmaps"
     id="defs42" /><g
     id="g44"
     transform="translate(-2194,-4594)"><g
       id="id2"
       class="Master_Slide"><g
         id="bg-id2"
         class="Background" /><g
         id="bo-id2"
         class="BackgroundObjects" /></g></g><g
     class="SlideGroup"
     id="g49"
     transform="translate(-2194,-4594)"><g
       id="g51"><g
         id="id1"
         class="Slide"
         clip-path="url(#presentation_clip_path)"><g
           class="Page"
           id="g54"><g
             class="com.sun.star.drawing.LineShape"
             id="g56"><g
               id="id3"><rect
                 class="BoundingBox"
                 x="2194"
                 y="4594"
                 width="14513"
                 height="213"
                 id="rect59"
                 style="fill:none;stroke:none" /><path
                 d="m 2300,4700 14300,0"
                 id="path61"
                 inkscape:connector-curvature="0"
                 style="fill:none;stroke:#000000;stroke-width:212;stroke-linejoin:round" /></g></g><g
             class="com.sun.star.drawing.LineShape"
             id="g63"><g
               id="id4"><rect
                 class="BoundingBox"
                 x="2647"
                 y="5047"
                 width="1507"
                 height="107"
                 id="rect66"
                 style="fill:none;stroke:none" /><path
                 d="m 2700,5100 1400,0"
                 id="path68"
                 inkscape:connector-curvature="0"
                 style="fill:none;stroke:#9999ff;stroke-width:106;stroke-linejoin:round" /></g></g><g
             class="com.sun.star.drawing.LineShape"
             id="g70"><g
               id="id5"><rect
                 class="BoundingBox"
                 x="2847"
                 y="5247"
                 width="1507"
                 height="107"
                 id="rect73"
                 style="fill:none;stroke:none" /><path
                 d="m 2900,5300 1400,0"
                 id="path75"
                 inkscape:connector-curvature="0"
                 style="fill:none;stroke:#9999ff;stroke-width:106;stroke-linejoin:round" /></g></g><g
             class="com.sun.star.drawing.LineShape"
             id="g77"><g
               id="id6"><rect
                 class="BoundingBox"
                 x="3247"
                 y="5447"
                 width="1507"
                 height="107"
                 id="rect80"
                 style="fill:none;stroke:none" /><path
                 d="m 3300,5500 1400,0"
                 id="path82"
                 inkscape:connector-curvature="0"
                 style="fill:none;stroke:#9999ff;stroke-width:106;stroke-linejoin:round" /></g></g><g
             class="com.sun.star.drawing.LineShape"
             id="g84"><g
               id="id7"><rect
                 class="BoundingBox"
                 x="4047"
                 y="5647"
                 width="1507"
                 height="107"
                 id="rect87"
                 style="fill:none;stroke:none" /><path
                 d="m 4100,5700 1400,0"
                 id="path89"
                 inkscape:connector-curvature="0"
                 style="fill:none;stroke:#9999ff;stroke-width:106;stroke-linejoin:round" /></g></g><g
             class="com.sun.star.drawing.LineShape"
             id="g91"><g
               id="id8"><rect
                 class="BoundingBox"
                 x="5147"
                 y="5047"
                 width="1507"
                 height="107"
                 id="rect94"
                 style="fill:none;stroke:none" /><path
                 d="m 5200,5100 1400,0"
                 id="path96"
                 inkscape:connector-curvature="0"
                 style="fill:none;stroke:#9999ff;stroke-width:106;stroke-linejoin:round" /></g></g><g
             class="com.sun.star.drawing.LineShape"
             id="g98"><g
               id="id9"><rect
                 class="BoundingBox"
                 x="5947"
                 y="5247"
                 width="1507"
                 height="107"
                 id="rect101"
                 style="fill:none;stroke:none" /><path
                 d="m 6000,5300 1400,0"
                 id="path103"
                 inkscape:connector-curvature="0"
                 style="fill:none;stroke:#9999ff;stroke-width:106;stroke-linejoin:round" /></g></g><g
             class="com.sun.star.drawing.LineShape"
             id="g105"><g
               id="id10"><rect
                 class="BoundingBox"
                 x="6147"
                 y="5447"
                 width="1507"
                 height="107"
                 id="rect108"
                 style="fill:none;stroke:none" /><path
                 d="m 6200,5500 1400,0"
                 id="path110"
                 inkscape:connector-curvature="0"
                 style="fill:none;stroke:#9999ff;stroke-width:106;stroke-linejoin:round" /></g></g><g
             class="com.sun.star.drawing.LineShape"
             id="g112"><g
               id="id11"><rect
                 class="BoundingBox"
                 x="6547"
                 y="5647"
                 width="1507"
                 height="107"
                 id="rect115"
                 style="fill:none;stroke:none" /><path
                 d="m 6600,5700 1400,0"
                 id="path117"
                 inkscape:connector-curvature="0"
                 style="fill:none;stroke:#9999ff;stroke-width:106;stroke-linejoin:round" /></g></g><g
             class="com.sun.star.drawing.LineShape"
             id="g119"><g
               id="id12"><rect
                 class="BoundingBox"
                 x="7447"
                 y="5847"
                 width="1507"
                 height="107"
                 id="rect122"
                 style="fill:none;stroke:none" /><path
                 d="m 7500,5900 1400,0"
                 id="path124"
                 inkscape:connector-curvature="0"
                 style="fill:none;stroke:#9999ff;stroke-width:106;stroke-linejoin:round" /></g></g><g
             class="com.sun.star.drawing.LineShape"
             id="g126"><g
               id="id13"><rect
                 class="BoundingBox"
                 x="8647"
                 y="5047"
                 width="1507"
                 height="107"
                 id="rect129"
                 style="fill:none;stroke:none" /><path
                 d="m 8700,5100 1400,0"
                 id="path131"
                 inkscape:connector-curvature="0"
                 style="fill:none;stroke:#9999ff;stroke-width:106;stroke-linejoin:round" /></g></g><g
             class="com.sun.star.drawing.LineShape"
             id="g133"><g
               id="id14"><rect
                 class="BoundingBox"
                 x="8847"
                 y="5247"
                 width="1507"
                 height="107"
                 id="rect136"
                 style="fill:none;stroke:none" /><path
                 d="m 8900,5300 1400,0"
                 id="path138"
                 inkscape:connector-curvature="0"
                 style="fill:none;stroke:#9999ff;stroke-width:106;stroke-linejoin:round" /></g></g><g
             class="com.sun.star.drawing.LineShape"
             id="g140"><g
               id="id15"><rect
                 class="BoundingBox"
                 x="9747"
                 y="5447"
                 width="1507"
                 height="107"
                 id="rect143"
                 style="fill:none;stroke:none" /><path
                 d="m 9800,5500 1400,0"
                 id="path145"
                 inkscape:connector-curvature="0"
                 style="fill:none;stroke:#9999ff;stroke-width:106;stroke-linejoin:round" /></g></g><g
             class="com.sun.star.drawing.LineShape"
             id="g147"><g
               id="id16"><rect
                 class="BoundingBox"
                 x="9947"
                 y="5647"
                 width="1507"
                 height="107"
                 id="rect150"
                 style="fill:none;stroke:none" /><path
                 d="m 10000,5700 1400,0"
                 id="path152"
                 inkscape:connector-curvature="0"
                 style="fill:none;stroke:#9999ff;stroke-width:106;stroke-linejoin:round" /></g></g><g
             class="com.sun.star.drawing.LineShape"
             id="g154"><g
               id="id17"><rect
                 class="BoundingBox"
                 x="10547"
                 y="5847"
                 width="1507"
                 height="107"
                 id="rect157"
                 style="fill:none;stroke:none" /><path
                 d="m 10600,5900 1400,0"
                 id="path159"
                 inkscape:connector-curvature="0"
                 style="fill:none;stroke:#9999ff;stroke-width:106;stroke-linejoin:round" /></g></g><g
             class="com.sun.star.drawing.LineShape"
             id="g161"><g
               id="id18"><rect
                 class="BoundingBox"
                 x="10647"
                 y="6047"
                 width="1507"
                 height="107"
                 id="rect164"
                 style="fill:none;stroke:none" /><path
                 d="m 10700,6100 1400,0"
                 id="path166"
                 inkscape:connector-curvature="0"
                 style="fill:none;stroke:#9999ff;stroke-width:106;stroke-linejoin:round" /></g></g><g
             class="com.sun.star.drawing.LineShape"
             id="g168"><g
               id="id19"><rect
                 class="BoundingBox"
                 x="10947"
                 y="6247"
                 width="1507"
                 height="107"
                 id="rect171"
                 style="fill:none;stroke:none" /><path
                 d="m 11000,6300 1400,0"
                 id="path173"
                 inkscape:connector-curvature="0"
                 style="fill:none;stroke:#9999ff;stroke-width:106;stroke-linejoin:round" /></g></g><g
             class="com.sun.star.drawing.LineShape"
             id="g175"><g
               id="id20"><rect
                 class="BoundingBox"
                 x="11247"
                 y="6447"
                 width="1507"
                 height="107"
                 id="rect178"
                 style="fill:none;stroke:none" /><path
                 d="m 11300,6500 1400,0"
                 id="path180"
                 inkscape:connector-curvature="0"
                 style="fill:none;stroke:#9999ff;stroke-width:106;stroke-linejoin:round" /></g></g><g
             class="com.sun.star.drawing.LineShape"
             id="g182"><g
               id="id21"><rect
                 class="BoundingBox"
                 x="12347"
                 y="5047"
                 width="1507"
                 height="107"
                 id="rect185"
                 style="fill:none;stroke:none" /><path
                 d="m 12400,5100 1400,0"
                 id="path187"
                 inkscape:connector-curvature="0"
                 style="fill:none;stroke:#9999ff;stroke-width:106;stroke-linejoin:round" /></g></g><g
             class="com.sun.star.drawing.LineShape"
             id="g189"><g
               id="id22"><rect
                 class="BoundingBox"
                 x="12747"
                 y="5247"
                 width="1507"
                 height="107"
                 id="rect192"
                 style="fill:none;stroke:none" /><path
                 d="m 12800,5300 1400,0"
                 id="path194"
                 inkscape:connector-curvature="0"
                 style="fill:none;stroke:#9999ff;stroke-width:106;stroke-linejoin:round" /></g></g><g
             class="com.sun.star.drawing.LineShape"
             id="g196"><g
               id="id23"><rect
                 class="BoundingBox"
                 x="13047"
                 y="5447"
                 width="1507"
                 height="107"
                 id="rect199"
                 style="fill:none;stroke:none" /><path
                 d="m 13100,5500 1400,0"
                 id="path201"
                 inkscape:connector-curvature="0"
                 style="fill:none;stroke:#9999ff;stroke-width:106;stroke-linejoin:round" /></g></g><g
             class="com.sun.star.drawing.LineShape"
             id="g203"><g
               id="id24"><rect
                 class="BoundingBox"
                 x="13047"
                 y="5647"
                 width="1507"
                 height="107"
                 id="rect206"
                 style="fill:none;stroke:none" /><path
                 d="m 13100,5700 1400,0"
                 id="path208"
                 inkscape:connector-curvature="0"
                 style="fill:none;stroke:#9999ff;stroke-width:106;stroke-linejoin:round" /></g></g><g
             class="com.sun.star.drawing.LineShape"
             id="g210"><g
               id="id25"><rect
                 class="BoundingBox"
                 x="13447"
                 y="5847"
                 width="1507"
                 height="107"
                 id="rect213"
                 style="fill:none;stroke:none" /><path
                 d="m 13500,5900 1400,0"
                 id="path215"
                 inkscape:connector-curvature="0"
                 style="fill:none;stroke:#9999ff;stroke-width:106;stroke-linejoin:round" /></g></g><g
             class="com.sun.star.drawing.LineShape"
             id="g217"><g
               id="id26"><rect
                 class="BoundingBox"
                 x="14847"
                 y="5047"
                 width="1507"
                 height="107"
                 id="rect220"
                 style="fill:none;stroke:none" /><path
                 d="m 14900,5100 1400,0"
                 id="path222"
                 inkscape:connector-curvature="0"
                 style="fill:none;stroke:#9999ff;stroke-width:106;stroke-linejoin:round" /></g></g><g
             class="com.sun.star.drawing.LineShape"
             id="g224"><g
               id="id27"><rect
                 class="BoundingBox"
                 x="14947"
                 y="5247"
                 width="1507"
                 height="107"
                 id="rect227"
                 style="fill:none;stroke:none" /><path
                 d="m 15000,5300 1400,0"
                 id="path229"
                 inkscape:connector-curvature="0"
                 style="fill:none;stroke:#9999ff;stroke-width:106;stroke-linejoin:round" /></g></g></g></g></g></g></svg>