<?xml version="1.0" encoding="utf-8"?>
<!-- Generator: Adobe Illustrator 21.0.0, SVG Export Plug-In . SVG Version: 6.00 Build 0)  -->
<svg version="1.1" id="Слой_1" xmlns="http://www.w3.org/2000/svg" xmlns:xlink="http://www.w3.org/1999/xlink" x="0px" y="0px"
	 viewBox="0 0 577 664.4" style="enable-background:new 0 0 577 664.4;" xml:space="preserve">
<g>
	<polygon points="293,518.4 292.2,516.1 279.8,523.2 281.4,525.1 	"/>
	<polygon points="299.3,536 298.5,533.7 291.9,537.5 293.5,539.4 	"/>
	<polygon points="302.5,544.8 301.6,542.5 298,544.6 299.6,546.5 	"/>
	<polygon points="296.2,527.2 295.3,524.9 285.9,530.4 287.5,532.2 	"/>
	<polygon points="206.2,599.7 204.2,598.5 181.4,638 183.4,639.2 	"/>
	<polygon points="114.4,533.6 116.4,532.4 98.1,500.5 107.3,500.5 123.4,528.4 125.4,527.2 108.6,498.1 62.2,498.1 62.2,500.5 
		95.3,500.5 	"/>
	<path d="M359.8,484.2h-2.4v37.2l-8-4.6v-32.6h-2.4v31.5l-43.5,31.1l-29.5,51l-54.1-6.1l-32.4,56.1h-1.3h-53.6h-1.3L104,600.2l0,0
		l-0.7-1.3l-0.3-0.4l0,0l-0.3-0.6h-0.7h-2H46.4H45l-27.5-47.6l0,0l-0.6-1.1L34,519.7l-2.1-1.2l-16.4,28.4l0,0l-1,1.7l0,0l0,0
		l-0.3,0.6l0.3,0.6l0,0L42.3,598l0,0l0.7,1.3l0.2,0.4l0,0l0.3,0.6h0.7h2h53.6h1.3l27.5,47.6l0,0l0.7,1.3l0.3,0.4l0,0l0.3,0.6h0.7h2
		h53.6h2h0.7l0.3-0.6l0,0l0.2-0.4l0.7-1.3l0,0l24-41.5l60.4-6v0h55.6h2h2.1l-1-1.8l0,0l-28.1-48.7l54.9-24.1l25.7,14.8l1.2-2.1
		l-27.2-15.7V484.2z M330.3,597.9h-53.4l26.7-46.3L330.3,597.9z"/>
	<rect x="418.9" y="533.4" transform="matrix(0.8661 -0.4998 0.4998 0.8661 -209.8514 285.7677)" width="19.3" height="2.4"/>
	<path d="M561.8,549.8l1-1.8h-2.1h-2h-55.3l-32.6-18.8l-1.2,2.1l32.6,18.8l27.6,47.9l0,0l1,1.7l0,0h0l1,1.8l1-1.8h0l0,0l1-1.7l0,0
		L561.8,549.8L561.8,549.8z M558.6,550.4l-26.7,46.3l-26.7-46.3H558.6z"/>
	<rect x="442" y="485.5" transform="matrix(0.8668 -0.4986 0.4986 0.8668 -186.6117 286.5636)" width="2.4" height="14.4"/>
	<rect x="433" y="490.6" transform="matrix(0.8648 -0.5021 0.5021 0.8648 -191.2662 285.3374)" width="2.4" height="14.3"/>
	<polygon points="460.6,499.7 467.9,487 465.8,485.8 458.5,498.5 	"/>
	<polygon points="474.8,491 467.5,503.7 469.5,504.9 476.9,492.2 	"/>
	<rect x="22.8" y="447.2" transform="matrix(0.8655 -0.501 0.501 0.8655 -229.2386 74.4462)" width="2.4" height="33.7"/>
	<polygon points="161.2,358.3 161.6,355.9 157.5,355.9 157.9,358.3 	"/>
	<polygon points="165,336.7 154.1,336.7 154.5,339.1 164.6,339.1 	"/>
	<polygon points="163.3,346.3 155.8,346.3 156.2,348.7 162.9,348.7 	"/>
	<polygon points="166.7,327.1 152.4,327.1 152.8,329.5 166.3,329.5 	"/>
	<rect x="256.3" y="278.6" transform="matrix(0.8662 -0.4997 0.4997 0.8662 -102.4905 176.9094)" width="45.6" height="2.4"/>
	<rect x="272" y="191.9" transform="matrix(0.4998 -0.8661 0.8661 0.4998 -43.506 340.7014)" width="2.4" height="32.2"/>
	<rect x="218.6" y="222.8" width="2.4" height="45.6"/>
	<rect x="228" y="102.2" transform="matrix(0.4997 -0.8662 0.8662 0.4997 6.4019 261.0401)" width="2.4" height="45.6"/>
	<rect x="168.7" y="136.4" width="2.4" height="45.6"/>
	<path d="M208.2,217.5v56.2l-31,17.9l1.2,2.1l31-17.9l49.3,28.5l0,0l0.6,0.3l0.6-0.3l0,0l0,0l1.7-1l0,0l47.5-27.4l48.7,28.1v35h2.4
		v-34.8l36.5-11.9l-0.7-2.3l-36.8,12l-48.9-28.2v-36.3H308v36.3l-48.7,28.1l-1.1-0.7l0,0l-47.6-27.5v-56.2l48.7-28.1l32.4,18.7
		l1.2-2.1l-32.4-18.7v-56.2l49.3-28.5l-1.2-2.1L259.3,129l-48.7-28.1V65.4h-2.4v35.5L159,129.3l-0.7,0.4v0.7v2V186v2v0.7l0.7,0.4
		L208.2,217.5z M160.8,132.4v-1.3l1.2-0.7l0,0l47.5-27.4l48.7,28.1v56.2l-48.7,28.1L161.9,188l0,0l-1.2-0.7V186V132.4z"/>
	<rect x="225.3" y="23.1" transform="matrix(0.8661 -0.4998 0.4998 0.8661 20.4365 124.9788)" width="36.5" height="2.4"/>
	<polygon points="414.1,376.3 414,376.3 413.4,377.2 412.4,376.8 412.4,376.9 377.1,365.4 376.3,367.7 413.4,379.7 414.3,380 
		414.8,379.3 414.8,379.3 448.3,333.2 504.6,333.2 533.1,382.5 535.1,381.3 506.7,332 535.1,282.7 533.1,281.5 504.6,330.8 
		448.3,330.8 428.9,304 426.9,305.4 446.2,332 	"/>
	<rect x="399.6" y="348" transform="matrix(0.588 -0.8088 0.8088 0.588 -108.4256 485.5187)" width="45.6" height="2.4"/>
	<rect x="367.2" y="304.9" transform="matrix(0.9511 -0.309 0.309 0.9511 -75.8016 133.5924)" width="33.3" height="2.4"/>
	<polygon points="117.9,482.9 109.6,478.1 108.2,480.1 117,485.2 	"/>
	<polygon points="114.1,491.8 103.9,485.9 102.5,487.9 113.1,494 	"/>
	<polygon points="129.6,456.4 126.8,454.8 125.4,456.7 128.6,458.6 	"/>
	<polygon points="113.9,472.3 120.9,476.3 121.8,474.1 115.3,470.4 	"/>
	<polygon points="125.7,465.2 121.1,462.6 119.7,464.5 124.7,467.4 	"/>
	<polygon points="263.8,513.1 267.4,513.1 267.4,490.8 267.5,490.8 281.9,513.1 285.8,513.1 285.8,484.5 282.2,484.5 282.2,506.9 
		282.1,506.9 267.7,484.5 263.8,484.5 	"/>
	<polygon points="263.9,451.9 263.9,480.5 267.7,480.5 267.7,467.1 281.8,467.1 281.8,480.5 285.6,480.5 285.6,451.9 281.8,451.9 
		281.8,463.7 267.7,463.7 267.7,451.9 	"/>
	<polygon points="410.7,556.7 410.6,556.7 396.3,534.4 392.4,534.4 392.4,563 396,563 396,540.7 396,540.7 410.4,563 414.3,563 
		414.3,534.4 410.7,534.4 	"/>
	<polygon points="410.4,578.8 396.3,578.8 396.3,567 392.5,567 392.5,595.7 396.3,595.7 396.3,582.2 410.4,582.2 410.4,595.7 
		414.2,595.7 414.2,567 410.4,567 	"/>
	<path d="M360.5,449.6c-3.1-1.8-7-1.8-7-1.8c-3.9,0-7,1.8-7,1.8c-3.1,1.8-4.9,5.2-4.9,5.2c-1.8,3.4-1.8,7.8-1.8,7.8
		c0,4.3,1.8,7.7,1.8,7.7c1.8,3.4,4.9,5.2,4.9,5.2c3.1,1.9,7,1.9,7,1.9c3.9,0,7-1.8,7-1.8c3.1-1.8,4.9-5.2,4.9-5.2
		c1.8-3.4,1.8-7.8,1.8-7.8c0-4.5-1.8-7.8-1.8-7.8C363.6,451.4,360.5,449.6,360.5,449.6z M362,468.8c-1.2,2.6-3.4,4-3.4,4
		c-2.2,1.4-5.1,1.4-5.1,1.4c-2.8,0-5-1.4-5-1.4c-2.2-1.4-3.5-4-3.5-4c-1.2-2.6-1.2-6.1-1.2-6.1c0-3.6,1.2-6.3,1.2-6.3
		c1.2-2.6,3.4-4,3.4-4c2.2-1.4,5.1-1.4,5.1-1.4c2.9,0,5.1,1.4,5.1,1.4c2.2,1.4,3.4,4,3.4,4c1.2,2.6,1.2,6.2,1.2,6.2
		C363.2,466.2,362,468.8,362,468.8z"/>
	<path d="M200.3,556.7c1.8-3.4,1.8-7.8,1.8-7.8c0-4.5-1.8-7.8-1.8-7.8c-1.8-3.4-4.9-5.2-4.9-5.2c-3.1-1.8-7-1.8-7-1.8
		c-3.9,0-7,1.8-7,1.8c-3.1,1.8-4.9,5.2-4.9,5.2c-1.8,3.4-1.8,7.8-1.8,7.8c0,4.3,1.8,7.7,1.8,7.7c1.8,3.4,4.9,5.2,4.9,5.2
		c3.1,1.9,7,1.9,7,1.9c3.9,0,7-1.8,7-1.8C198.5,560.1,200.3,556.7,200.3,556.7z M193.4,559.2c-2.2,1.4-5.1,1.4-5.1,1.4
		c-2.8,0-5-1.4-5-1.4c-2.2-1.4-3.5-4-3.5-4c-1.2-2.6-1.2-6.1-1.2-6.1c0-3.6,1.2-6.3,1.2-6.3c1.2-2.6,3.4-4,3.4-4
		c2.2-1.4,5.1-1.4,5.1-1.4c2.9,0,5.1,1.4,5.1,1.4c2.2,1.4,3.4,4,3.4,4c1.2,2.6,1.2,6.2,1.2,6.2c0,3.5-1.3,6.1-1.3,6.1
		C195.6,557.8,193.4,559.2,193.4,559.2z"/>
	<path d="M460.1,519.7c-2.3-1.1-6.1-1.9-6.1-1.9c-2.8-0.6-4.3-1.2-4.3-1.2c-1.5-0.5-2.2-1.4-2.2-1.4c-0.7-0.8-0.7-2.2-0.7-2.2
		c0-1.3,0.8-2.3,0.8-2.3c0.8-1,2.2-1.6,2.2-1.6c1.4-0.5,3.3-0.5,3.3-0.5c2.8,0,4.5,1.3,4.5,1.3c1.7,1.4,2.3,4.5,2.3,4.5h0.1l3.7-0.8
		c-0.4-2.6-1.7-4.4-1.7-4.4c-1.4-1.9-3.6-2.8-3.6-2.8c-2.3-1-5.2-1-5.2-1c-2.8,0-5,1-5,1c-2.2,1-3.5,2.7-3.5,2.7
		c-1.3,1.8-1.3,3.9-1.3,3.9c0,2,0.6,3.4,0.6,3.4c0.7,1.4,2.3,2.6,2.3,2.6c1.7,1.1,4.7,1.9,4.7,1.9c0.6,0.2,2.3,0.6,2.3,0.6
		c2.8,0.6,4.2,1.2,4.2,1.2c1.8,0.6,2.6,1.6,2.6,1.6c0.9,1,0.9,2.8,0.9,2.8c0,1.3-0.9,2.4-0.9,2.4c-1,1.1-2.5,1.7-2.5,1.7
		c-1.6,0.6-3.5,0.6-3.5,0.6c-3.6,0-5.6-1.8-5.6-1.8c-2-1.8-2.4-5.3-2.4-5.3l-3.8,0.9c0.7,4.6,3.8,7,3.8,7c3.1,2.4,8.2,2.4,8.2,2.4
		c3,0,5.4-1.1,5.4-1.1c2.4-1.1,3.7-3.1,3.7-3.1c1.4-2,1.4-4.4,1.4-4.4c0-2.4-1-4-1-4C462.3,520.8,460.1,519.7,460.1,519.7z"/>
	<path d="M489.1,457.3c-3.1-1.8-7-1.8-7-1.8c-3.9,0-7,1.8-7,1.8c-3.1,1.8-4.9,5.2-4.9,5.2c-1.8,3.4-1.8,7.8-1.8,7.8
		c0,4.3,1.8,7.7,1.8,7.7c1.8,3.4,4.9,5.2,4.9,5.2c3.1,1.9,7,1.9,7,1.9c3.9,0,7-1.8,7-1.8c3.1-1.8,4.9-5.2,4.9-5.2
		c1.8-3.4,1.8-7.8,1.8-7.8c0-4.5-1.8-7.8-1.8-7.8C492.2,459.1,489.1,457.3,489.1,457.3z M490.6,476.5c-1.3,2.6-3.5,4-3.5,4
		c-2.2,1.4-5.1,1.4-5.1,1.4c-2.8,0-5-1.4-5-1.4c-2.2-1.4-3.5-3.9-3.5-3.9c-1.2-2.6-1.2-6.2-1.2-6.2c0-3.6,1.2-6.2,1.2-6.2
		c1.2-2.6,3.4-4,3.4-4c2.2-1.4,5.1-1.4,5.1-1.4c2.9,0,5.1,1.4,5.1,1.4c2.2,1.4,3.4,4,3.4,4c1.2,2.6,1.2,6.2,1.2,6.2
		C491.8,473.9,490.6,476.5,490.6,476.5z"/>
	<path d="M431.5,483.3c3.1-1.8,4.9-5.2,4.9-5.2c1.8-3.4,1.8-7.8,1.8-7.8c0-4.5-1.8-7.8-1.8-7.8c-1.8-3.4-4.9-5.2-4.9-5.2
		c-3.1-1.8-7-1.8-7-1.8c-3.9,0-7,1.8-7,1.8c-3.1,1.8-4.9,5.2-4.9,5.2c-1.8,3.4-1.8,7.8-1.8,7.8c0,4.3,1.8,7.7,1.8,7.7
		c1.8,3.4,4.9,5.2,4.9,5.2c3.1,1.9,7,1.9,7,1.9C428.4,485.1,431.5,483.3,431.5,483.3z M419.4,480.5c-2.2-1.4-3.5-3.9-3.5-3.9
		c-1.2-2.6-1.2-6.2-1.2-6.2c0-3.6,1.2-6.2,1.2-6.2c1.2-2.6,3.4-4,3.4-4c2.2-1.4,5.1-1.4,5.1-1.4c2.9,0,5.1,1.4,5.1,1.4
		c2.2,1.4,3.4,4,3.4,4c1.2,2.6,1.2,6.2,1.2,6.2c0,3.5-1.2,6.1-1.2,6.1c-1.3,2.6-3.5,4-3.5,4c-2.2,1.4-5.1,1.4-5.1,1.4
		C421.6,481.9,419.4,480.5,419.4,480.5z"/>
	<path d="M111.8,395.1l17.8,54.7l0.3,0.9h0.9h2h54.8l21.7,49.5l-15.6,27l2.1,1.2l16.1-27.8h9.2l-18.4,31.8l2.1,1.2l19.1-33H257v-2.4
		h-31.3l-36-48.9l17-52.3l0,0l0.9-2.7l-0.7-0.5l0,0l-45-32.7l0,0l-1.6-1.1l0,0l0,0l-0.7-0.5l-0.7,0.5l0,0l-0.8,0.5l-0.8,0.6l0,0
		l-45,32.7l0,0l-0.7,0.5L111.8,395.1z M131.6,448.3l-0.3-1.1l0,0l-16.6-51l0,0l-0.4-1.1l0.9-0.6l0,0l44.3-32.2l44.3,32.2l0,0
		l0.4,0.3l0.4,0.3l-17.3,53.1h-54.7H131.6z"/>
	<path d="M152.6,315.9c3.1,1.9,7,1.9,7,1.9c3.9,0,7-1.8,7-1.8c3.1-1.8,4.9-5.2,4.9-5.2c1.8-3.4,1.8-7.8,1.8-7.8
		c0-4.5-1.8-7.8-1.8-7.8c-1.8-3.4-4.9-5.2-4.9-5.2c-3.1-1.8-7-1.8-7-1.8c-3.9,0-7,1.8-7,1.8c-3.1,1.8-4.9,5.2-4.9,5.2
		c-1.8,3.4-1.8,7.8-1.8,7.8c0,4.3,1.8,7.7,1.8,7.7C149.4,314.1,152.6,315.9,152.6,315.9z M151,296.8c1.2-2.6,3.4-4,3.4-4
		c2.2-1.4,5.1-1.4,5.1-1.4c2.9,0,5.1,1.4,5.1,1.4c2.2,1.4,3.4,4,3.4,4c1.2,2.6,1.2,6.2,1.2,6.2c0,3.5-1.3,6.1-1.3,6.1
		c-1.2,2.6-3.4,4-3.4,4c-2.2,1.4-5.1,1.4-5.1,1.4c-2.8,0-5-1.4-5-1.4c-2.2-1.4-3.5-3.9-3.5-3.9c-1.2-2.6-1.2-6.1-1.2-6.1
		C149.8,299.5,151,296.8,151,296.8z"/>
	<polygon points="33.4,513.1 37,513.1 37,490.8 37.1,490.8 51.5,513.1 55.4,513.1 55.4,484.5 51.8,484.5 51.8,506.9 51.7,506.9 
		37.3,484.5 33.4,484.5 	"/>
	<polygon points="298.2,202 298.2,230.6 301.8,230.6 301.8,208.3 301.9,208.3 316.3,230.6 320.2,230.6 320.2,202 316.6,202 
		316.6,224.3 316.5,224.3 302.2,202 	"/>
	<path d="M118.8,541.2c-1.8,3.4-1.8,7.8-1.8,7.8c0,4.3,1.8,7.7,1.8,7.7c1.8,3.4,4.9,5.2,4.9,5.2c3.1,1.9,7,1.9,7,1.9
		c3.9,0,7-1.8,7-1.8c3.1-1.8,4.9-5.2,4.9-5.2c1.8-3.3,1.8-7.8,1.8-7.8c0-4.5-1.8-7.8-1.8-7.8c-1.8-3.4-4.9-5.2-4.9-5.2
		c-3.1-1.8-7-1.8-7-1.8c-3.9,0-7,1.8-7,1.8C120.6,537.8,118.8,541.2,118.8,541.2z M125.7,538.8c2.2-1.4,5.1-1.4,5.1-1.4
		c2.9,0,5.1,1.4,5.1,1.4c2.2,1.4,3.4,4,3.4,4c1.2,2.6,1.2,6.2,1.2,6.2c0,3.5-1.3,6.1-1.3,6.1c-1.2,2.6-3.4,4-3.4,4
		c-2.2,1.4-5.1,1.4-5.1,1.4c-2.8,0-5-1.4-5-1.4c-2.2-1.4-3.5-4-3.5-4c-1.2-2.6-1.2-6.1-1.2-6.1c0-3.6,1.2-6.3,1.2-6.3
		C123.4,540.2,125.7,538.8,125.7,538.8z"/>
	<polygon points="406.5,276.9 406.6,276.9 421,299.2 424.8,299.2 424.8,270.6 421.3,270.6 421.3,292.9 421.2,292.9 406.8,270.6 
		402.9,270.6 402.9,299.2 406.5,299.2 	"/>
	<path d="M368.9,371.2c1.4-2,1.4-4.4,1.4-4.4c0-2.4-1-4-1-4c-1-1.6-3.3-2.7-3.3-2.7c-2.2-1.1-6.1-1.9-6.1-1.9
		c-2.8-0.6-4.3-1.2-4.3-1.2c-1.5-0.5-2.2-1.4-2.2-1.4c-0.7-0.8-0.7-2.2-0.7-2.2c0-1.3,0.8-2.3,0.8-2.3c0.8-1,2.2-1.6,2.2-1.6
		c1.4-0.6,3.3-0.6,3.3-0.6c2.8,0,4.5,1.4,4.5,1.4c1.7,1.4,2.3,4.5,2.3,4.5h0.1l3.7-0.8c-0.4-2.6-1.7-4.4-1.7-4.4
		c-1.4-1.9-3.6-2.8-3.6-2.8c-2.3-1-5.2-1-5.2-1c-2.8,0-5,1-5,1c-2.2,1-3.5,2.7-3.5,2.7c-1.3,1.8-1.3,3.9-1.3,3.9
		c0,2,0.6,3.4,0.6,3.4c0.7,1.4,2.3,2.6,2.3,2.6c1.7,1.1,4.7,1.9,4.7,1.9c0.6,0.2,2.3,0.6,2.3,0.6c2.8,0.6,4.2,1.2,4.2,1.2
		c1.8,0.6,2.6,1.6,2.6,1.6c0.9,1,0.9,2.8,0.9,2.8c0,1.4-0.9,2.4-0.9,2.4c-1,1.1-2.5,1.7-2.5,1.7c-1.6,0.6-3.5,0.6-3.5,0.6
		c-3.6,0-5.6-1.8-5.6-1.8c-2-1.8-2.4-5.3-2.4-5.3l-3.7,0.9c0.6,4.6,3.7,7,3.7,7c3.1,2.4,8.2,2.4,8.2,2.4c3,0,5.4-1.1,5.4-1.1
		C367.6,373.1,368.9,371.2,368.9,371.2z"/>
	<path d="M202.4,56.7c3.1,1.9,7,1.9,7,1.9c3.9,0,7-1.8,7-1.8c3.1-1.8,4.9-5.2,4.9-5.2c1.8-3.4,1.8-7.8,1.8-7.8
		c0-4.5-1.8-7.8-1.8-7.8c-1.8-3.4-4.9-5.2-4.9-5.2c-3.1-1.8-7-1.8-7-1.8c-3.9,0-7,1.8-7,1.8c-3.1,1.8-4.9,5.2-4.9,5.2
		c-1.8,3.4-1.8,7.8-1.8,7.8c0,4.3,1.8,7.7,1.8,7.7C199.3,54.9,202.4,56.7,202.4,56.7z M200.9,37.6c1.2-2.6,3.4-4,3.4-4
		c2.2-1.4,5.1-1.4,5.1-1.4c2.9,0,5.1,1.4,5.1,1.4c2.2,1.4,3.4,4,3.4,4c1.2,2.6,1.2,6.2,1.2,6.2c0,3.5-1.3,6.1-1.3,6.1
		c-1.2,2.6-3.4,4-3.4,4c-2.2,1.4-5.1,1.4-5.1,1.4c-2.8,0-5-1.4-5-1.4c-2.2-1.4-3.5-3.9-3.5-3.9c-1.2-2.6-1.2-6.1-1.2-6.1
		C199.7,40.3,200.9,37.6,200.9,37.6z"/>
</g>
</svg>
