<?xml version="1.0" encoding="UTF-8"?>
<svg xmlns="http://www.w3.org/2000/svg" xmlns:xlink="http://www.w3.org/1999/xlink" width="612pt" height="160pt" viewBox="0 0 612 160" version="1.1">
<g id="surface1">
<rect x="0" y="0" width="612" height="160" style="fill:rgb(100%,100%,100%);fill-opacity:1;stroke:none;"/>
<rect x="0" y="0" width="612" height="160" style="fill:rgb(100%,100%,100%);fill-opacity:1;stroke:none;"/>
<path style="fill-rule:nonzero;fill:rgb(100%,100%,100%);fill-opacity:1;stroke-width:3;stroke-linecap:round;stroke-linejoin:round;stroke:rgb(0%,0%,0%);stroke-opacity:1;stroke-miterlimit:10;" d="M 231 219 L 317 219 L 317 268 L 231 268 Z M 231 219 " transform="matrix(1,0,0,1,-229,-164)"/>
<path style="fill-rule:nonzero;fill:rgb(100%,100%,100%);fill-opacity:1;stroke-width:3;stroke-linecap:round;stroke-linejoin:round;stroke:rgb(0%,0%,0%);stroke-opacity:1;stroke-miterlimit:10;" d="M 403 219 L 489 219 L 489 268 L 403 268 Z M 403 219 " transform="matrix(1,0,0,1,-229,-164)"/>
<path style="fill-rule:nonzero;fill:rgb(100%,100%,100%);fill-opacity:1;stroke-width:3;stroke-linecap:round;stroke-linejoin:round;stroke:rgb(0%,0%,0%);stroke-opacity:1;stroke-miterlimit:10;" d="M 575 219 L 661 219 L 661 268 L 575 268 Z M 575 219 " transform="matrix(1,0,0,1,-229,-164)"/>
<path style="fill:none;stroke-width:3;stroke-linecap:round;stroke-linejoin:round;stroke:rgb(0%,0%,0%);stroke-opacity:1;stroke-miterlimit:10;" d="M 318.5 243.5 L 385.601562 243.5 " transform="matrix(1,0,0,1,-229,-164)"/>
<path style="fill-rule:nonzero;fill:rgb(0%,0%,0%);fill-opacity:1;stroke-width:3;stroke-linecap:butt;stroke-linejoin:miter;stroke:rgb(0%,0%,0%);stroke-opacity:1;stroke-miterlimit:10;" d="M 396.800781 243.5 L 385.601562 239.300781 L 385.601562 247.699219 Z M 396.800781 243.5 " transform="matrix(1,0,0,1,-229,-164)"/>
<path style="fill:none;stroke-width:3;stroke-linecap:round;stroke-linejoin:round;stroke:rgb(0%,0%,0%);stroke-opacity:1;stroke-miterlimit:10;" d="M 490.5 243.5 L 557.601562 243.5 " transform="matrix(1,0,0,1,-229,-164)"/>
<path style="fill-rule:nonzero;fill:rgb(0%,0%,0%);fill-opacity:1;stroke-width:3;stroke-linecap:butt;stroke-linejoin:miter;stroke:rgb(0%,0%,0%);stroke-opacity:1;stroke-miterlimit:10;" d="M 568.800781 243.5 L 557.601562 239.300781 L 557.601562 247.699219 Z M 568.800781 243.5 " transform="matrix(1,0,0,1,-229,-164)"/>
<path style="fill:none;stroke-width:3;stroke-linecap:round;stroke-linejoin:round;stroke:rgb(69.412231%,0%,10.980225%);stroke-opacity:1;stroke-miterlimit:10;" d="M 318.367188 223.625 C 361.242188 204.417969 404.460938 166.039062 447 166 C 484.753906 165.964844 521.992188 196.132812 559.398438 216.289062 " transform="matrix(1,0,0,1,-229,-164)"/>
<path style="fill-rule:nonzero;fill:rgb(69.412231%,0%,10.980225%);fill-opacity:1;stroke-width:3;stroke-linecap:butt;stroke-linejoin:miter;stroke:rgb(69.412231%,0%,10.980225%);stroke-opacity:1;stroke-miterlimit:10;" d="M 569.429688 221.292969 L 561.28125 212.535156 L 557.53125 220.050781 Z M 569.429688 221.292969 " transform="matrix(1,0,0,1,-229,-164)"/>
<path style="fill-rule:nonzero;fill:rgb(100%,100%,100%);fill-opacity:1;stroke-width:3;stroke-linecap:round;stroke-linejoin:round;stroke:rgb(0%,0%,0%);stroke-opacity:1;stroke-miterlimit:10;" d="M 753 219 L 839 219 L 839 268 L 753 268 Z M 753 219 " transform="matrix(1,0,0,1,-229,-164)"/>
<path style="fill:none;stroke-width:3;stroke-linecap:round;stroke-linejoin:round;stroke:rgb(0%,0%,0%);stroke-opacity:1;stroke-miterlimit:10;" d="M 662.5 243.5 L 735.601562 243.5 " transform="matrix(1,0,0,1,-229,-164)"/>
<path style="fill-rule:nonzero;fill:rgb(0%,0%,0%);fill-opacity:1;stroke-width:3;stroke-linecap:butt;stroke-linejoin:miter;stroke:rgb(0%,0%,0%);stroke-opacity:1;stroke-miterlimit:10;" d="M 746.800781 243.5 L 735.601562 239.300781 L 735.601562 247.699219 Z M 746.800781 243.5 " transform="matrix(1,0,0,1,-229,-164)"/>
<path style="fill:none;stroke-width:3;stroke-linecap:round;stroke-linejoin:round;stroke:rgb(69.412231%,0%,10.980225%);stroke-opacity:1;stroke-miterlimit:10;" d="M 318.433594 257.339844 C 387.613281 278.890625 453.820312 322.152344 526 322 C 593.332031 321.855469 665.898438 283.9375 736.367188 261.101562 " transform="matrix(1,0,0,1,-229,-164)"/>
<path style="fill-rule:nonzero;fill:rgb(69.412231%,0%,10.980225%);fill-opacity:1;stroke-width:3;stroke-linecap:butt;stroke-linejoin:miter;stroke:rgb(69.412231%,0%,10.980225%);stroke-opacity:1;stroke-miterlimit:10;" d="M 747.066406 257.804688 L 735.128906 257.089844 L 737.601562 265.117188 Z M 747.066406 257.804688 " transform="matrix(1,0,0,1,-229,-164)"/>
</g>
</svg>
