<?xml version="1.0" encoding="utf-8"?>
<!-- Generator: Adobe Illustrator 25.0.1, SVG Export Plug-In . SVG Version: 6.00 Build 0)  -->
<svg version="1.1" id="Layer_1" xmlns="http://www.w3.org/2000/svg" xmlns:xlink="http://www.w3.org/1999/xlink" x="0px" y="0px"
	 viewBox="0 0 360 360" style="enable-background:new 0 0 360 360;" xml:space="preserve">
<style type="text/css">
	
		.st0{clip-path:url(#SVGID_2_);fill:none;stroke:#7F7F7F;stroke-width:1.5;stroke-linecap:round;stroke-linejoin:round;stroke-miterlimit:10;}
	
		.st1{clip-path:url(#SVGID_4_);fill:none;stroke:#7F7F7F;stroke-width:1.5;stroke-linecap:round;stroke-linejoin:round;stroke-miterlimit:10;}
	
		.st2{clip-path:url(#SVGID_6_);fill:none;stroke:#7F7F7F;stroke-width:1.5;stroke-linecap:round;stroke-linejoin:round;stroke-miterlimit:10;}
	
		.st3{clip-path:url(#SVGID_8_);fill:none;stroke:#7F7F7F;stroke-width:1.5;stroke-linecap:round;stroke-linejoin:round;stroke-miterlimit:10;}
	.st4{font-family:'Cabin-Regular';}
	.st5{font-size:12px;}
</style>
<g>
	<defs>
		<rect id="SVGID_1_" x="11.95" y="6.96" width="140" height="186.35"/>
	</defs>
	<clipPath id="SVGID_2_">
		<use xlink:href="#SVGID_1_"  style="overflow:visible;"/>
	</clipPath>
	<line class="st0" x1="17.13" y1="167.92" x2="143.92" y2="167.92"/>
	<line class="st0" x1="143.92" y1="174.07" x2="145.71" y2="174.07"/>
	<line class="st0" x1="145.71" y1="178.18" x2="146.77" y2="178.18"/>
	<line class="st0" x1="145.71" y1="169.97" x2="146.77" y2="169.97"/>
	<line class="st0" x1="143.92" y1="161.75" x2="146.77" y2="161.75"/>
	<line class="st0" x1="17.13" y1="107.44" x2="84.14" y2="107.44"/>
	<line class="st0" x1="84.14" y1="141.73" x2="87.63" y2="141.73"/>
	<line class="st0" x1="87.63" y1="153.54" x2="146.77" y2="153.54"/>
	<line class="st0" x1="87.63" y1="129.91" x2="118.78" y2="129.91"/>
	<line class="st0" x1="118.78" y1="139.15" x2="143.13" y2="139.15"/>
	<line class="st0" x1="143.13" y1="145.32" x2="146.77" y2="145.32"/>
	<line class="st0" x1="143.13" y1="133" x2="146.13" y2="133"/>
	<line class="st0" x1="146.13" y1="137.1" x2="146.77" y2="137.1"/>
	<line class="st0" x1="146.13" y1="128.89" x2="146.77" y2="128.89"/>
	<line class="st0" x1="118.78" y1="120.67" x2="146.77" y2="120.67"/>
	<line class="st0" x1="84.14" y1="73.17" x2="129.29" y2="73.17"/>
	<line class="st0" x1="129.29" y1="92.93" x2="133.96" y2="92.93"/>
	<line class="st0" x1="133.96" y1="102.18" x2="140.74" y2="102.18"/>
	<line class="st0" x1="140.74" y1="108.34" x2="146.72" y2="108.34"/>
	<line class="st0" x1="146.72" y1="112.46" x2="146.77" y2="112.46"/>
	<line class="st0" x1="146.72" y1="104.23" x2="146.77" y2="104.23"/>
	<line class="st0" x1="140.74" y1="96.02" x2="146.77" y2="96.02"/>
	<line class="st0" x1="133.96" y1="83.69" x2="144.89" y2="83.69"/>
	<line class="st0" x1="144.89" y1="87.8" x2="146.77" y2="87.8"/>
	<line class="st0" x1="144.89" y1="79.59" x2="146.77" y2="79.59"/>
	<line class="st0" x1="129.29" y1="53.4" x2="132.93" y2="53.4"/>
	<line class="st0" x1="132.93" y1="67.26" x2="140.16" y2="67.26"/>
	<line class="st0" x1="140.16" y1="71.37" x2="146.77" y2="71.37"/>
	<line class="st0" x1="140.16" y1="63.15" x2="146.77" y2="63.15"/>
	<line class="st0" x1="132.93" y1="39.53" x2="141.69" y2="39.53"/>
	<line class="st0" x1="141.69" y1="50.83" x2="142.67" y2="50.83"/>
	<line class="st0" x1="142.67" y1="54.94" x2="146.77" y2="54.94"/>
	<line class="st0" x1="142.67" y1="46.71" x2="146.77" y2="46.71"/>
	<line class="st0" x1="141.69" y1="28.23" x2="145.09" y2="28.23"/>
	<line class="st0" x1="145.09" y1="34.39" x2="145.78" y2="34.39"/>
	<line class="st0" x1="145.78" y1="38.51" x2="146.77" y2="38.51"/>
	<line class="st0" x1="145.78" y1="30.28" x2="146.77" y2="30.28"/>
	<line class="st0" x1="145.09" y1="22.07" x2="146.77" y2="22.07"/>
	<line class="st0" x1="17.13" y1="167.92" x2="17.13" y2="107.44"/>
	<line class="st0" x1="84.14" y1="141.73" x2="84.14" y2="73.17"/>
	<line class="st0" x1="87.63" y1="153.54" x2="87.63" y2="129.91"/>
	<line class="st0" x1="118.78" y1="139.15" x2="118.78" y2="120.67"/>
	<line class="st0" x1="129.29" y1="92.93" x2="129.29" y2="53.4"/>
	<line class="st0" x1="132.93" y1="67.26" x2="132.93" y2="39.53"/>
	<line class="st0" x1="133.96" y1="102.18" x2="133.96" y2="83.69"/>
	<line class="st0" x1="140.16" y1="71.37" x2="140.16" y2="63.15"/>
	<line class="st0" x1="140.74" y1="108.34" x2="140.74" y2="96.02"/>
	<line class="st0" x1="141.69" y1="50.83" x2="141.69" y2="28.23"/>
	<line class="st0" x1="142.67" y1="54.94" x2="142.67" y2="46.71"/>
	<line class="st0" x1="143.13" y1="145.32" x2="143.13" y2="133"/>
	<line class="st0" x1="143.92" y1="174.07" x2="143.92" y2="161.75"/>
	<line class="st0" x1="144.89" y1="87.8" x2="144.89" y2="79.59"/>
	<line class="st0" x1="145.09" y1="34.39" x2="145.09" y2="22.07"/>
	<line class="st0" x1="145.71" y1="178.18" x2="145.71" y2="169.97"/>
	<line class="st0" x1="145.78" y1="38.51" x2="145.78" y2="30.28"/>
	<line class="st0" x1="146.13" y1="137.1" x2="146.13" y2="128.89"/>
	<line class="st0" x1="146.72" y1="112.46" x2="146.72" y2="104.23"/>
</g>
<g>
	<defs>
		<rect id="SVGID_3_" x="191.95" y="9.96" width="140" height="186.35"/>
	</defs>
	<clipPath id="SVGID_4_">
		<use xlink:href="#SVGID_3_"  style="overflow:visible;"/>
	</clipPath>
	<line class="st1" x1="197.13" y1="140.68" x2="323.92" y2="170.92"/>
	<line class="st1" x1="323.92" y1="170.92" x2="325.71" y2="177.07"/>
	<line class="st1" x1="325.71" y1="177.07" x2="326.77" y2="181.18"/>
	<line class="st1" x1="325.71" y1="177.07" x2="326.77" y2="172.97"/>
	<line class="st1" x1="323.92" y1="170.92" x2="326.77" y2="164.75"/>
	<line class="st1" x1="197.13" y1="140.68" x2="264.14" y2="110.44"/>
	<line class="st1" x1="264.14" y1="110.44" x2="267.63" y2="144.73"/>
	<line class="st1" x1="267.63" y1="144.73" x2="326.77" y2="156.54"/>
	<line class="st1" x1="267.63" y1="144.73" x2="298.78" y2="132.91"/>
	<line class="st1" x1="298.78" y1="132.91" x2="323.13" y2="142.15"/>
	<line class="st1" x1="323.13" y1="142.15" x2="326.77" y2="148.32"/>
	<line class="st1" x1="323.13" y1="142.15" x2="326.13" y2="136"/>
	<line class="st1" x1="326.13" y1="136" x2="326.77" y2="140.1"/>
	<line class="st1" x1="326.13" y1="136" x2="326.77" y2="131.89"/>
	<line class="st1" x1="298.78" y1="132.91" x2="326.77" y2="123.67"/>
	<line class="st1" x1="264.14" y1="110.44" x2="309.29" y2="76.17"/>
	<line class="st1" x1="309.29" y1="76.17" x2="313.96" y2="95.93"/>
	<line class="st1" x1="313.96" y1="95.93" x2="320.74" y2="105.18"/>
	<line class="st1" x1="320.74" y1="105.18" x2="326.72" y2="111.34"/>
	<line class="st1" x1="326.72" y1="111.34" x2="326.77" y2="115.46"/>
	<line class="st1" x1="326.72" y1="111.34" x2="326.77" y2="107.23"/>
	<line class="st1" x1="320.74" y1="105.18" x2="326.77" y2="99.02"/>
	<line class="st1" x1="313.96" y1="95.93" x2="324.89" y2="86.69"/>
	<line class="st1" x1="324.89" y1="86.69" x2="326.77" y2="90.8"/>
	<line class="st1" x1="324.89" y1="86.69" x2="326.77" y2="82.59"/>
	<line class="st1" x1="309.29" y1="76.17" x2="312.93" y2="56.4"/>
	<line class="st1" x1="312.93" y1="56.4" x2="320.16" y2="70.26"/>
	<line class="st1" x1="320.16" y1="70.26" x2="326.77" y2="74.37"/>
	<line class="st1" x1="320.16" y1="70.26" x2="326.77" y2="66.15"/>
	<line class="st1" x1="312.93" y1="56.4" x2="321.69" y2="42.53"/>
	<line class="st1" x1="321.69" y1="42.53" x2="322.67" y2="53.83"/>
	<line class="st1" x1="322.67" y1="53.83" x2="326.77" y2="57.94"/>
	<line class="st1" x1="322.67" y1="53.83" x2="326.77" y2="49.71"/>
	<line class="st1" x1="321.69" y1="42.53" x2="325.09" y2="31.23"/>
	<line class="st1" x1="325.09" y1="31.23" x2="325.78" y2="37.39"/>
	<line class="st1" x1="325.78" y1="37.39" x2="326.77" y2="41.51"/>
	<line class="st1" x1="325.78" y1="37.39" x2="326.77" y2="33.28"/>
	<line class="st1" x1="325.09" y1="31.23" x2="326.77" y2="25.07"/>
</g>
<g>
	<defs>
		<rect id="SVGID_5_" x="11.95" y="192.92" width="152.46" height="152.46"/>
	</defs>
	<clipPath id="SVGID_6_">
		<use xlink:href="#SVGID_5_"  style="overflow:visible;"/>
	</clipPath>
	<line class="st2" x1="88.19" y1="269.14" x2="140.68" y2="224.31"/>
	<line class="st2" x1="149.7" y1="237.81" x2="150.57" y2="237.36"/>
	<line class="st2" x1="154.77" y1="247.51" x2="155.31" y2="247.33"/>
	<line class="st2" x1="144.83" y1="227.99" x2="145.29" y2="227.66"/>
	<line class="st2" x1="128.76" y1="213.3" x2="129.67" y2="212.04"/>
	<line class="st2" x1="88.19" y1="269.14" x2="51.97" y2="264.68"/>
	<line class="st2" x1="83.19" y1="233" x2="82.93" y2="231.12"/>
	<line class="st2" x1="100.04" y1="232.64" x2="110" y2="202.02"/>
	<line class="st2" x1="66.86" y1="237.23" x2="57.44" y2="223.12"/>
	<line class="st2" x1="75.27" y1="215.33" x2="72.17" y2="202.43"/>
	<line class="st2" x1="88.19" y1="200.54" x2="88.19" y2="198.56"/>
	<line class="st2" x1="57.03" y1="208.02" x2="56.3" y2="206.56"/>
	<line class="st2" x1="66.48" y1="202.34" x2="66.38" y2="202.02"/>
	<line class="st2" x1="46.9" y1="212.32" x2="46.7" y2="212.04"/>
	<line class="st2" x1="43.41" y1="236.61" x2="31.08" y2="227.66"/>
	<line class="st2" x1="74.55" y1="302.98" x2="65.37" y2="325.8"/>
	<line class="st2" x1="32.72" y1="294.71" x2="30.42" y2="295.78"/>
	<line class="st2" x1="24.78" y1="274.14" x2="21.08" y2="274.43"/>
	<line class="st2" x1="21.71" y1="258.61" x2="18.5" y2="258.11"/>
	<line class="st2" x1="21.08" y1="247.35" x2="21.06" y2="247.33"/>
	<line class="st2" x1="17.64" y1="269.14" x2="17.6" y2="269.14"/>
	<line class="st2" x1="24.18" y1="289.94" x2="21.06" y2="290.95"/>
	<line class="st2" x1="43.21" y1="314.13" x2="39" y2="318.33"/>
	<line class="st2" x1="31.91" y1="310.03" x2="31.08" y2="310.63"/>
	<line class="st2" x1="47.3" y1="325.42" x2="46.7" y2="326.25"/>
	<line class="st2" x1="110.45" y1="326.02" x2="111.17" y2="327.86"/>
	<line class="st2" x1="78.33" y1="331.43" x2="77.7" y2="335.31"/>
	<line class="st2" x1="67.48" y1="332.86" x2="66.38" y2="336.27"/>
	<line class="st2" x1="88.19" y1="336.13" x2="88.19" y2="339.73"/>
	<line class="st2" x1="137.7" y1="308.19" x2="141.45" y2="311.13"/>
	<line class="st2" x1="118.98" y1="329.57" x2="119.21" y2="330.04"/>
	<line class="st2" x1="109.31" y1="334.15" x2="110" y2="336.27"/>
	<line class="st2" x1="128.36" y1="324.44" x2="129.67" y2="326.25"/>
	<line class="st2" x1="154.14" y1="284.98" x2="155.94" y2="285.41"/>
	<line class="st2" x1="150.26" y1="300.77" x2="150.61" y2="300.94"/>
	<line class="st2" x1="144.86" y1="310.32" x2="145.29" y2="310.63"/>
	<line class="st2" x1="154.82" y1="290.79" x2="155.31" y2="290.95"/>
	<line class="st2" x1="157.86" y1="269.14" x2="158.77" y2="269.14"/>
	<line class="st2" x1="88.19" y1="269.14" x2="88.19" y2="269.14"/>
	<polyline class="st2" points="83.19,233 81.69,233.24 80.21,233.54 78.73,233.91 77.26,234.34 75.83,234.82 74.42,235.36 
		73.02,235.96 71.66,236.62 70.31,237.33 69.01,238.11 67.74,238.94 66.49,239.81 65.29,240.74 64.13,241.72 63.01,242.73 
		61.94,243.8 60.9,244.92 59.92,246.08 58.98,247.28 58.1,248.51 57.27,249.78 56.49,251.08 55.77,252.41 55.1,253.78 54.49,255.17 
		53.93,256.58 53.44,258.01 53.01,259.47 52.64,260.94 52.33,262.43 52.08,263.93 51.89,265.43 51.76,266.94 51.71,268.46 
		51.71,269.97 51.78,271.5 51.9,273.01 52.1,274.52 52.35,276.01 52.68,277.49 53.04,278.97 53.48,280.42 53.99,281.85 
		54.54,283.26 55.17,284.65 55.84,286.01 56.56,287.34 57.35,288.65 58.19,289.9 59.08,291.14 60.02,292.33 61,293.48 62.04,294.59 
		63.12,295.66 64.24,296.67 65.41,297.64 66.62,298.57 67.86,299.44 69.13,300.26 70.45,301.02 71.79,301.74 73.16,302.4 
		74.55,302.98 	"/>
	<polyline class="st2" points="100.04,232.64 99.52,232.47 98.99,232.32 98.46,232.16 97.93,232.02 97.4,231.88 96.87,231.75 
		96.33,231.64 95.79,231.52 95.26,231.42 94.72,231.31 94.17,231.22 93.62,231.14 93.08,231.07 92.54,231 91.98,230.94 91.44,230.9 
		90.89,230.85 90.34,230.82 89.79,230.79 89.24,230.77 88.69,230.76 88.14,230.76 87.59,230.76 87.03,230.77 86.49,230.79 
		85.94,230.83 85.38,230.86 84.84,230.9 84.29,230.96 83.75,231.01 83.2,231.08 82.65,231.16 82.11,231.24 81.57,231.34 
		81.02,231.43 80.48,231.53 79.95,231.65 79.41,231.78 78.88,231.9 78.35,232.04 77.82,232.19 77.29,232.34 76.76,232.5 
		76.24,232.66 75.71,232.84 75.19,233.02 74.68,233.22 74.16,233.41 73.65,233.62 73.15,233.83 72.64,234.05 72.14,234.28 
		71.64,234.51 71.14,234.75 70.66,234.99 70.17,235.25 69.69,235.51 69.2,235.78 68.73,236.05 68.26,236.34 67.78,236.63 
		67.32,236.92 66.86,237.23 	"/>
	<polyline class="st2" points="75.27,215.33 74.66,215.48 74.06,215.63 73.46,215.79 72.87,215.96 72.27,216.14 71.67,216.32 
		71.08,216.5 70.49,216.7 69.91,216.91 69.32,217.12 68.74,217.32 68.16,217.54 67.58,217.77 67.01,218 66.43,218.25 65.87,218.5 
		65.29,218.75 64.74,219.01 64.17,219.27 63.62,219.55 63.06,219.83 62.51,220.11 61.96,220.4 61.42,220.7 60.88,221 60.33,221.31 
		59.8,221.63 59.27,221.95 58.74,222.28 58.21,222.62 57.69,222.95 57.18,223.3 56.67,223.64 56.16,224 55.65,224.37 55.15,224.74 
		54.66,225.11 54.16,225.49 53.68,225.87 53.19,226.26 52.72,226.65 52.24,227.06 51.78,227.46 51.3,227.88 50.84,228.29 
		50.39,228.71 49.94,229.13 49.49,229.57 49.05,230.01 48.62,230.45 48.18,230.9 47.75,231.35 47.34,231.8 46.92,232.26 
		46.5,232.73 46.1,233.19 45.7,233.68 45.31,234.15 44.91,234.64 44.53,235.12 44.15,235.62 43.78,236.11 43.41,236.61 	"/>
	<polyline class="st2" points="32.72,294.71 33.36,296.04 34.01,297.34 34.71,298.64 35.43,299.9 36.18,301.16 36.97,302.41 
		37.79,303.63 38.63,304.83 39.49,306.01 40.39,307.16 41.31,308.3 42.27,309.41 43.25,310.5 44.26,311.56 45.29,312.6 
		46.34,313.63 47.43,314.62 48.52,315.58 49.65,316.52 50.8,317.44 51.97,318.31 53.16,319.17 54.37,320 55.6,320.79 56.85,321.56 
		58.12,322.29 59.4,323.01 60.7,323.67 62.02,324.32 63.34,324.93 64.69,325.51 66.05,326.06 67.43,326.58 68.81,327.05 
		70.21,327.5 71.61,327.92 73.02,328.3 74.45,328.65 75.88,328.96 77.32,329.23 78.76,329.49 80.22,329.7 81.67,329.87 
		83.14,330.01 84.59,330.11 86.05,330.18 87.52,330.21 88.98,330.2 90.45,330.17 91.91,330.1 93.38,330 94.83,329.85 96.3,329.67 
		97.74,329.46 99.19,329.21 100.62,328.93 102.05,328.62 103.48,328.27 104.89,327.88 106.29,327.47 107.69,327.02 109.07,326.54 
		110.45,326.02 	"/>
	<polyline class="st2" points="78.33,331.43 79.38,331.58 80.43,331.73 81.47,331.84 82.54,331.94 83.6,332.04 84.65,332.11 
		85.71,332.15 86.77,332.19 87.83,332.2 88.89,332.2 89.95,332.18 91.01,332.14 92.07,332.08 93.14,332 94.2,331.91 95.25,331.81 
		96.3,331.68 97.36,331.53 98.41,331.37 99.44,331.18 100.49,330.99 101.53,330.77 102.56,330.54 103.6,330.28 104.62,330.02 
		105.64,329.73 106.66,329.43 107.67,329.12 108.68,328.77 109.67,328.43 110.68,328.06 111.66,327.67 112.64,327.26 113.62,326.85 
		114.59,326.41 115.54,325.96 116.5,325.49 117.45,325 118.38,324.51 119.3,323.99 120.23,323.46 121.14,322.9 122.04,322.35 
		122.93,321.77 123.8,321.17 124.68,320.57 125.53,319.95 126.39,319.32 127.23,318.66 128.05,318 128.87,317.32 129.67,316.63 
		130.47,315.92 131.25,315.21 132.01,314.47 132.78,313.73 133.51,312.97 134.25,312.21 134.97,311.43 135.67,310.63 136.36,309.82 
		137.04,309 137.7,308.19 	"/>
	<polyline class="st2" points="24.78,274.14 24.83,274.84 24.9,275.56 24.97,276.27 25.06,276.98 25.16,277.68 25.25,278.39 
		25.36,279.1 25.48,279.8 25.59,280.5 25.73,281.21 25.87,281.9 26.01,282.6 26.17,283.3 26.33,284 26.51,284.69 26.68,285.38 
		26.86,286.06 27.06,286.76 27.27,287.44 27.47,288.12 27.69,288.8 27.91,289.48 28.14,290.16 28.39,290.83 28.63,291.5 
		28.88,292.17 29.15,292.82 29.41,293.49 29.69,294.15 29.98,294.79 30.27,295.45 30.57,296.1 30.88,296.74 31.19,297.39 
		31.51,298.02 31.83,298.66 32.17,299.29 32.51,299.92 32.86,300.54 33.22,301.16 33.58,301.77 33.94,302.38 34.33,302.98 
		34.71,303.59 35.1,304.18 35.49,304.78 35.89,305.37 36.31,305.96 36.72,306.54 37.15,307.11 37.58,307.68 38.02,308.24 
		38.45,308.81 38.9,309.36 39.35,309.92 39.82,310.46 40.29,311 40.75,311.53 41.23,312.06 41.72,312.59 42.21,313.1 42.71,313.62 
		43.21,314.13 	"/>
	<polyline class="st2" points="67.48,332.86 67.81,332.96 68.12,333.06 68.44,333.16 68.76,333.26 69.08,333.35 69.4,333.44 
		69.72,333.54 70.04,333.63 70.37,333.72 70.69,333.81 71.01,333.89 71.34,333.97 71.66,334.07 71.98,334.15 72.31,334.23 
		72.63,334.3 72.95,334.38 73.29,334.46 73.61,334.53 73.93,334.6 74.25,334.67 74.59,334.74 74.91,334.8 75.25,334.87 
		75.57,334.93 75.89,335 76.23,335.06 76.55,335.12 76.88,335.17 77.22,335.23 77.54,335.28 77.88,335.34 78.2,335.38 78.53,335.44 
		78.87,335.49 79.19,335.53 79.53,335.57 79.86,335.61 80.19,335.66 80.52,335.69 80.85,335.73 81.19,335.76 81.52,335.8 
		81.86,335.83 82.18,335.87 82.51,335.89 82.85,335.92 83.18,335.95 83.52,335.97 83.85,335.99 84.19,336.02 84.52,336.03 
		84.84,336.05 85.18,336.06 85.51,336.09 85.85,336.1 86.18,336.11 86.51,336.11 86.85,336.12 87.18,336.13 87.52,336.13 
		87.85,336.13 88.19,336.13 	"/>
	<polyline class="st2" points="21.71,258.61 21.64,259.11 21.56,259.61 21.49,260.11 21.43,260.61 21.36,261.11 21.3,261.61 
		21.25,262.11 21.2,262.6 21.15,263.11 21.11,263.61 21.07,264.12 21.04,264.61 21,265.12 20.97,265.63 20.95,266.12 20.92,266.63 
		20.91,267.13 20.9,267.63 20.89,268.14 20.89,268.64 20.88,269.14 20.89,269.65 20.89,270.15 20.9,270.65 20.91,271.16 
		20.92,271.66 20.95,272.17 20.97,272.66 21,273.17 21.04,273.68 21.07,274.17 21.11,274.68 21.15,275.18 21.2,275.68 21.25,276.18 
		21.3,276.68 21.36,277.18 21.43,277.68 21.49,278.17 21.56,278.68 21.64,279.18 21.71,279.67 21.79,280.17 21.88,280.67 
		21.96,281.16 22.05,281.66 22.15,282.15 22.25,282.65 22.35,283.13 22.46,283.63 22.57,284.13 22.69,284.61 22.8,285.11 
		22.92,285.59 23.05,286.08 23.17,286.56 23.31,287.04 23.44,287.54 23.59,288.01 23.73,288.5 23.88,288.98 24.03,289.47 
		24.18,289.94 	"/>
	<polyline class="st2" points="118.98,329.57 119.8,329.14 120.62,328.7 121.44,328.25 122.25,327.79 123.04,327.32 123.84,326.84 
		124.62,326.34 125.41,325.83 126.18,325.32 126.95,324.79 127.71,324.26 128.46,323.71 129.2,323.16 129.94,322.59 130.67,322.01 
		131.39,321.43 132.11,320.83 132.81,320.21 133.5,319.6 134.19,318.97 134.88,318.33 135.54,317.69 136.2,317.04 136.86,316.37 
		137.49,315.71 138.13,315.02 138.75,314.33 139.37,313.64 139.97,312.93 140.57,312.22 141.16,311.5 141.74,310.77 142.3,310.03 
		142.86,309.28 143.4,308.53 143.93,307.77 144.46,307 144.97,306.22 145.47,305.44 145.97,304.66 146.46,303.86 146.92,303.05 
		147.38,302.25 147.83,301.43 148.27,300.61 148.69,299.78 149.11,298.95 149.51,298.12 149.9,297.26 150.28,296.42 150.65,295.57 
		151,294.7 151.35,293.84 151.68,292.97 152,292.1 152.31,291.22 152.6,290.34 152.89,289.45 153.17,288.57 153.42,287.68 
		153.68,286.78 153.91,285.88 154.14,284.98 	"/>
	<polyline class="st2" points="109.31,334.15 109.63,334.04 109.95,333.94 110.27,333.82 110.6,333.72 110.92,333.61 111.24,333.49 
		111.57,333.37 111.89,333.26 112.2,333.13 112.52,333.02 112.85,332.89 113.16,332.77 113.48,332.65 113.79,332.52 114.1,332.39 
		114.43,332.26 114.74,332.13 115.05,331.99 115.36,331.86 115.67,331.73 115.98,331.59 116.29,331.45 116.61,331.31 116.92,331.16 
		117.23,331.02 117.54,330.87 117.84,330.72 118.15,330.57 118.45,330.42 118.76,330.27 119.06,330.12 119.37,329.97 119.67,329.81 
		119.97,329.65 120.27,329.5 120.57,329.34 120.87,329.18 121.17,329 121.47,328.84 121.77,328.68 122.06,328.51 122.36,328.33 
		122.66,328.16 122.95,327.99 123.25,327.82 123.54,327.64 123.83,327.47 124.11,327.28 124.4,327.11 124.69,326.93 124.98,326.74 
		125.27,326.56 125.56,326.37 125.84,326.19 126.12,326 126.41,325.81 126.69,325.62 126.97,325.43 127.25,325.23 127.53,325.04 
		127.81,324.84 128.08,324.64 128.36,324.44 	"/>
	<polyline class="st2" points="88.19,200.54 87.68,200.54 87.16,200.54 86.65,200.55 86.13,200.57 85.63,200.59 85.11,200.61 
		84.6,200.63 84.08,200.66 83.57,200.69 83.05,200.73 82.55,200.77 82.04,200.82 81.52,200.86 81.01,200.91 80.51,200.97 80,201.03 
		79.49,201.1 78.98,201.15 78.46,201.23 77.96,201.3 77.45,201.38 76.95,201.46 76.45,201.55 75.94,201.64 75.43,201.73 
		74.92,201.83 74.43,201.93 73.92,202.04 73.42,202.15 72.92,202.26 72.42,202.38 71.92,202.49 71.43,202.62 70.92,202.74 
		70.43,202.87 69.94,203.01 69.45,203.15 68.95,203.29 68.45,203.44 67.97,203.59 67.47,203.74 66.99,203.9 66.5,204.06 
		66.01,204.22 65.52,204.38 65.04,204.56 64.57,204.73 64.08,204.91 63.6,205.1 63.12,205.28 62.64,205.47 62.17,205.66 
		61.69,205.86 61.22,206.06 60.75,206.26 60.29,206.47 59.81,206.68 59.35,206.9 58.88,207.12 58.42,207.34 57.96,207.55 
		57.5,207.79 57.03,208.02 	"/>
	<polyline class="st2" points="149.7,237.81 149.47,237.35 149.22,236.88 148.98,236.43 148.73,235.97 148.48,235.52 148.23,235.07 
		147.98,234.62 147.71,234.19 147.45,233.74 147.18,233.3 146.92,232.86 146.64,232.42 146.36,231.98 146.09,231.54 145.8,231.12 
		145.52,230.68 145.22,230.25 144.93,229.83 144.63,229.41 144.34,228.98 144.03,228.57 143.73,228.15 143.42,227.74 143.11,227.32 
		142.8,226.92 142.48,226.5 142.16,226.1 141.84,225.7 141.51,225.3 141.18,224.9 140.85,224.51 140.52,224.12 140.17,223.72 
		139.83,223.33 139.49,222.95 139.14,222.57 138.8,222.19 138.44,221.81 138.08,221.44 137.72,221.06 137.37,220.69 137,220.33 
		136.64,219.96 136.27,219.61 135.89,219.25 135.52,218.89 135.14,218.53 134.76,218.19 134.38,217.84 134,217.5 133.61,217.16 
		133.21,216.82 132.82,216.48 132.43,216.15 132.03,215.82 131.63,215.49 131.23,215.17 130.83,214.86 130.41,214.53 130.01,214.22 
		129.59,213.91 129.18,213.6 128.76,213.3 	"/>
	<polyline class="st2" points="31.91,310.03 32.11,310.31 32.32,310.6 32.53,310.87 32.73,311.15 32.95,311.43 33.16,311.69 
		33.37,311.97 33.59,312.25 33.81,312.51 34.01,312.79 34.23,313.05 34.45,313.33 34.68,313.59 34.9,313.86 35.12,314.13 
		35.35,314.39 35.57,314.66 35.8,314.91 36.03,315.17 36.26,315.43 36.49,315.69 36.72,315.95 36.95,316.2 37.2,316.45 
		37.43,316.71 37.67,316.96 37.91,317.22 38.14,317.47 38.39,317.71 38.63,317.97 38.88,318.21 39.12,318.45 39.37,318.7 
		39.62,318.95 39.86,319.19 40.12,319.42 40.37,319.66 40.62,319.9 40.88,320.13 41.13,320.38 41.38,320.61 41.64,320.84 
		41.9,321.07 42.16,321.3 42.42,321.53 42.68,321.76 42.94,321.98 43.21,322.21 43.47,322.43 43.74,322.65 44,322.88 44.28,323.1 
		44.54,323.32 44.82,323.52 45.09,323.74 45.36,323.96 45.64,324.17 45.9,324.38 46.18,324.6 46.46,324.81 46.74,325.01 
		47.02,325.22 47.3,325.42 	"/>
	<polyline class="st2" points="150.26,300.77 150.5,300.31 150.73,299.85 150.96,299.37 151.18,298.9 151.4,298.43 151.62,297.95 
		151.84,297.48 152.05,297.01 152.26,296.52 152.45,296.05 152.66,295.57 152.86,295.08 153.04,294.6 153.24,294.11 153.42,293.63 
		153.59,293.13 153.78,292.65 153.95,292.15 154.12,291.66 154.29,291.17 154.45,290.68 154.61,290.18 154.76,289.69 154.92,289.18 
		155.06,288.68 155.21,288.19 155.35,287.68 155.49,287.17 155.62,286.68 155.75,286.17 155.88,285.66 155.99,285.15 156.11,284.65 
		156.22,284.14 156.34,283.63 156.44,283.12 156.55,282.6 156.65,282.1 156.74,281.59 156.84,281.07 156.92,280.56 157,280.04 
		157.08,279.52 157.16,279.02 157.23,278.5 157.3,277.98 157.37,277.46 157.42,276.94 157.48,276.42 157.53,275.9 157.57,275.38 
		157.62,274.86 157.67,274.35 157.7,273.83 157.73,273.31 157.77,272.79 157.79,272.27 157.82,271.75 157.83,271.23 157.84,270.71 
		157.85,270.18 157.86,269.66 157.86,269.14 	"/>
	<polyline class="st2" points="154.77,247.51 154.67,247.17 154.55,246.85 154.44,246.52 154.33,246.18 154.22,245.86 
		154.09,245.52 153.97,245.2 153.86,244.87 153.73,244.54 153.61,244.22 153.49,243.89 153.36,243.56 153.24,243.24 153.1,242.92 
		152.97,242.59 152.83,242.27 152.71,241.95 152.57,241.62 152.43,241.3 152.29,240.99 152.14,240.67 152,240.34 151.86,240.03 
		151.71,239.71 151.56,239.4 151.41,239.09 151.26,238.76 151.11,238.45 150.96,238.14 150.8,237.83 150.65,237.52 150.49,237.21 
		150.33,236.9 150.17,236.58 150.01,236.27 149.83,235.96 149.67,235.66 149.51,235.35 149.34,235.05 149.17,234.74 148.99,234.44 
		148.82,234.14 148.65,233.84 148.46,233.54 148.29,233.24 148.1,232.94 147.93,232.64 147.75,232.34 147.56,232.04 147.38,231.75 
		147.19,231.45 147,231.16 146.81,230.86 146.62,230.58 146.42,230.29 146.22,230 146.03,229.7 145.83,229.42 145.64,229.13 
		145.44,228.85 145.23,228.56 145.04,228.28 144.83,227.99 	"/>
	<polyline class="st2" points="144.86,310.32 145.07,310.04 145.27,309.75 145.47,309.47 145.67,309.18 145.87,308.89 146.06,308.6 
		146.26,308.31 146.46,308.02 146.65,307.74 146.85,307.45 147.03,307.15 147.23,306.86 147.41,306.56 147.6,306.27 147.78,305.97 
		147.97,305.67 148.14,305.37 148.32,305.07 148.51,304.77 148.68,304.47 148.85,304.17 149.03,303.87 149.2,303.56 149.37,303.26 
		149.55,302.95 149.71,302.65 149.88,302.34 150.04,302.03 150.2,301.73 150.36,301.42 150.53,301.1 150.69,300.79 150.84,300.48 
		151,300.17 151.15,299.86 151.3,299.54 151.45,299.22 151.6,298.91 151.75,298.59 151.9,298.28 152.04,297.95 152.19,297.63 
		152.33,297.32 152.46,297 152.6,296.67 152.74,296.35 152.88,296.03 153.01,295.71 153.14,295.38 153.27,295.06 153.4,294.74 
		153.53,294.41 153.65,294.09 153.77,293.76 153.89,293.43 154.01,293.1 154.14,292.78 154.25,292.44 154.37,292.12 154.48,291.78 
		154.6,291.45 154.7,291.13 154.82,290.79 	"/>
	<polyline class="st2" points="66.48,202.34 66.15,202.46 65.81,202.56 65.49,202.68 65.15,202.79 64.82,202.91 64.5,203.02 
		64.16,203.14 63.84,203.26 63.51,203.38 63.18,203.51 62.85,203.63 62.52,203.76 62.2,203.89 61.88,204.01 61.56,204.15 
		61.22,204.29 60.9,204.42 60.58,204.56 60.26,204.69 59.94,204.83 59.62,204.98 59.3,205.12 58.98,205.27 58.66,205.41 
		58.35,205.56 58.03,205.71 57.72,205.86 57.39,206.01 57.08,206.17 56.77,206.32 56.46,206.48 56.15,206.64 55.84,206.8 
		55.52,206.97 55.21,207.13 54.9,207.29 54.59,207.46 54.29,207.62 53.98,207.8 53.68,207.97 53.37,208.14 53.07,208.32 
		52.77,208.49 52.47,208.67 52.16,208.85 51.86,209.03 51.56,209.2 51.27,209.39 50.97,209.57 50.67,209.77 50.37,209.95 
		50.08,210.14 49.78,210.33 49.49,210.52 49.2,210.71 48.92,210.91 48.62,211.11 48.33,211.3 48.04,211.51 47.76,211.71 
		47.47,211.91 47.19,212.11 46.9,212.32 	"/>
	<polyline class="st2" points="21.08,247.35 20.98,247.68 20.87,248.01 20.76,248.35 20.66,248.68 20.57,249.02 20.46,249.36 
		20.37,249.7 20.27,250.03 20.17,250.38 20.08,250.71 19.99,251.05 19.9,251.39 19.82,251.73 19.72,252.07 19.64,252.42 
		19.56,252.75 19.48,253.1 19.4,253.45 19.32,253.79 19.25,254.13 19.17,254.47 19.1,254.82 19.03,255.17 18.96,255.51 
		18.89,255.86 18.82,256.2 18.77,256.55 18.71,256.9 18.64,257.24 18.58,257.59 18.52,257.93 18.48,258.28 18.42,258.63 
		18.36,258.97 18.32,259.33 18.27,259.67 18.22,260.02 18.18,260.37 18.13,260.72 18.1,261.07 18.05,261.42 18.02,261.77 
		17.98,262.12 17.95,262.47 17.91,262.82 17.89,263.17 17.86,263.52 17.83,263.87 17.8,264.22 17.77,264.58 17.76,264.92 
		17.74,265.28 17.72,265.63 17.71,265.98 17.68,266.33 17.67,266.69 17.66,267.03 17.65,267.38 17.65,267.74 17.64,268.08 
		17.64,268.44 17.64,268.79 17.64,269.14 	"/>
</g>
<g>
	<defs>
		<rect id="SVGID_7_" x="188.96" y="187.66" width="151.68" height="151.68"/>
	</defs>
	<clipPath id="SVGID_8_">
		<use xlink:href="#SVGID_7_"  style="overflow:visible;"/>
	</clipPath>
	<line class="st3" x1="333.13" y1="195.14" x2="333.66" y2="193.98"/>
	<line class="st3" x1="333.66" y1="193.98" x2="333.81" y2="193.27"/>
	<line class="st3" x1="333.66" y1="193.98" x2="334.11" y2="193.34"/>
	<line class="st3" x1="333.13" y1="195.14" x2="335.03" y2="193.76"/>
	<line class="st3" x1="333.13" y1="195.14" x2="250.53" y2="312.5"/>
	<line class="st3" x1="250.53" y1="312.5" x2="253.76" y2="312.87"/>
	<line class="st3" x1="253.76" y1="312.87" x2="303.24" y2="294.63"/>
	<line class="st3" x1="253.76" y1="312.87" x2="281.58" y2="319.42"/>
	<line class="st3" x1="281.58" y1="319.42" x2="304.16" y2="322"/>
	<line class="st3" x1="304.16" y1="322" x2="307.53" y2="321.63"/>
	<line class="st3" x1="304.16" y1="322" x2="306.85" y2="322.64"/>
	<line class="st3" x1="306.85" y1="322.64" x2="307.43" y2="322.7"/>
	<line class="st3" x1="306.85" y1="322.64" x2="307.37" y2="322.83"/>
	<line class="st3" x1="281.58" y1="319.42" x2="300.17" y2="332.87"/>
	<line class="st3" x1="250.53" y1="312.5" x2="210.21" y2="321.98"/>
	<line class="st3" x1="210.21" y1="321.98" x2="209.52" y2="325.13"/>
	<line class="st3" x1="209.52" y1="325.13" x2="210.52" y2="329.68"/>
	<line class="st3" x1="210.52" y1="329.68" x2="212.25" y2="333.54"/>
	<line class="st3" x1="212.25" y1="333.54" x2="212.27" y2="333.57"/>
	<line class="st3" x1="212.25" y1="333.54" x2="212.26" y2="333.57"/>
	<line class="st3" x1="210.52" y1="329.68" x2="209.63" y2="333.72"/>
	<line class="st3" x1="209.52" y1="325.13" x2="203.49" y2="331.13"/>
	<line class="st3" x1="203.49" y1="331.13" x2="202.69" y2="332.27"/>
	<line class="st3" x1="203.49" y1="331.13" x2="202.24" y2="332.03"/>
	<line class="st3" x1="210.21" y1="321.98" x2="207.16" y2="320.86"/>
	<line class="st3" x1="207.16" y1="320.86" x2="200.71" y2="322.38"/>
	<line class="st3" x1="200.71" y1="322.38" x2="195.18" y2="324.41"/>
	<line class="st3" x1="200.71" y1="322.38" x2="194.58" y2="323.08"/>
	<line class="st3" x1="207.16" y1="320.86" x2="201.35" y2="316.66"/>
	<line class="st3" x1="201.35" y1="316.66" x2="200.48" y2="316.45"/>
	<line class="st3" x1="200.48" y1="316.45" x2="196.67" y2="316.01"/>
	<line class="st3" x1="200.48" y1="316.45" x2="197.05" y2="315.19"/>
	<line class="st3" x1="201.35" y1="316.66" x2="199.89" y2="314.59"/>
	<line class="st3" x1="199.89" y1="314.59" x2="199.51" y2="314.21"/>
	<line class="st3" x1="199.51" y1="314.21" x2="198.86" y2="313.74"/>
	<line class="st3" x1="199.51" y1="314.21" x2="199.09" y2="313.62"/>
	<line class="st3" x1="199.89" y1="314.59" x2="199.65" y2="313.47"/>
</g>
<text transform="matrix(1 0 0 1 17.7716 30.7522)" class="st4 st5">Rectangular</text>
<text transform="matrix(1 0 0 1 191.9501 30.7525)" class="st4 st5">Slanted</text>
<text transform="matrix(1 0 0 1 16.1741 201.1021)" class="st4 st5">Radial</text>
<text transform="matrix(1 0 0 1 188.9565 201.2222)" class="st4 st5">Unrooted</text>
</svg>
