<?xml version="1.0" encoding="utf-8"?>
<!-- Generator: Adobe Illustrator 25.0.1, SVG Export Plug-In . SVG Version: 6.00 Build 0)  -->
<svg version="1.1" id="Layer_1" xmlns="http://www.w3.org/2000/svg" xmlns:xlink="http://www.w3.org/1999/xlink" x="0px" y="0px"
	 viewBox="0 0 540 481" style="enable-background:new 0 0 540 481;" xml:space="preserve">
<style type="text/css">
	.st0{fill:none;stroke:#000000;stroke-width:2;stroke-miterlimit:10;}
	.st1{font-family:'ArialMT';}
	.st2{font-size:14px;}
</style>
<g>
	<g transform="translate(6,6)">
		<path class="st0" d="M386,89.7l-14.2,19.5c11,8,21,17.2,29.8,27.6"/>
		<path class="st0" d="M150.9,84.9l2.4,3.3c8.4-6.1,17.3-11.6,26.6-16.3"/>
		<path class="st0" d="M42.6,323.1L74,312.8c-3.3-10.3-5.9-20.8-7.6-31.5"/>
		<path class="st0" d="M493.4,176.6l-33.7,10.9c-3.2-9.9-7.2-19.6-12-28.9"/>
		<path class="st0" d="M270.2,430.9v-30.3c7.9,0,15.9-0.6,23.7-1.9"/>
		<path class="st0" d="M401.6,136.9l-8.1,6.9c-12.4-14.6-27.4-26.8-44.1-36.2"/>
		<path class="st0" d="M188.1,177.5l3.1,2.7c-30.9,35.5-34.4,87.3-8.4,126.6"/>
		<path class="st0" d="M296.4,83.7l-0.8,5.2c18.9,3,37.1,9.3,53.8,18.7"/>
		<path class="st0" d="M335.8,270.4l-43.2-14c-1.6,4.8-4.7,9-8.8,12"/>
		<path class="st0" d="M349.4,107.6l-11.5,20.6c-24.7-13.8-53.1-19.8-81.2-17"/>
		<path class="st0" d="M117.2,137.9L149,161c6.9-9.5,15-18.2,23.9-25.9"/>
		<path class="st0" d="M46.5,249.1h17.5c0,10.8,0.8,21.6,2.5,32.3"/>
		<path class="st0" d="M208.1,440.3L215,419c-8.9-2.9-17.6-6.5-25.9-10.7"/>
		<path class="st0" d="M66.5,281.4l45.5-7.2c2,12.4,5.4,24.6,10.2,36.3"/>
		<path class="st0" d="M132,349.5l8.6-6.2c-7.4-10.2-13.6-21.2-18.4-32.9"/>
		<path class="st0" d="M312.6,379.5l-10-30.7c-44.8,14.6-93.8-2.6-119.8-41.9"/>
		<path class="st0" d="M122.2,310.4l26.1-10.8c-6-14.4-9.3-29.7-9.9-45.3"/>
		<path class="st0" d="M338.1,40.3L322,89.9c-8.3-2.7-16.9-4.8-25.5-6.1"/>
		<path class="st0" d="M248,389.5l0.8-5c21.4,3.4,43.2,1.7,63.8-5"/>
		<path class="st0" d="M319.4,400.5l-2.4-7.3c-7.5,2.5-15.3,4.3-23.1,5.6"/>
		<path class="st0" d="M179.9,71.8l22.3,43.7c-10.5,5.4-20.3,11.9-29.3,19.6"/>
		<path class="st0" d="M199.8,32.3l9,27.6c-9.9,3.2-19.6,7.2-28.8,11.9"/>
		<path class="st0" d="M447.7,158.6l-23.5,12c-6.2-12.1-13.7-23.4-22.6-33.8"/>
		<path class="st0" d="M443.3,123.4l-11.9,8.6c6.1,8.4,11.6,17.4,16.3,26.7"/>
		<path class="st0" d="M378.7,398.4L365.3,380c6.9-5,13.3-10.5,19.3-16.5"/>
		<path class="st0" d="M189.1,408.3l16.6-32.5c13.3,6.8,27.6,11.4,42.3,13.7"/>
		<path class="st0" d="M256.7,111.3l2.9,29.4c-27.6,2.7-53.2,15.9-71.4,36.8"/>
		<path class="st0" d="M182.8,306.9l67.8-44.8c3.5,5.3,9,9,15.3,10.1c6.3,1.2,12.7-0.2,17.9-3.9"/>
		<path class="st0" d="M99.5,193.6l45.2,14.7c-4.8,14.8-7,30.4-6.4,46"/>
		<path class="st0" d="M270.2,35.3v46.4c8.8,0,17.5,0.7,26.2,2.1"/>
		<path class="st0" d="M138.4,254.3l23-0.9c-1.1-27.8,8.5-54.9,26.7-75.8"/>
		<path class="st0" d="M442.2,374l-41.1-29.9c-5,6.9-10.5,13.3-16.5,19.3"/>
		<path class="st0" d="M141.8,425.9l23.5-32.3c7.6,5.5,15.6,10.4,23.9,14.6"/>
		<path class="st0" d="M384.6,363.5L367.2,346c-15.3,15.3-34,26.8-54.6,33.4"/>
		<path class="st0" d="M293.9,398.7l-1.5-9.2c-14.7,2.3-29.7,2.3-44.5,0"/>
		<path class="st0" d="M172.9,135.1l7.4,8.7c21.5-18.4,48.2-29.7,76.4-32.5"/>
		<path class="st0" d="M302.2,249.1h-8.4c0,7.7-3.7,14.8-10,19.2"/>
		<text transform="matrix(0.5878 0.809 -0.809 0.5878 380.0097 406.2762)" class="st1 st2">t3</text>
	</g>
	<g transform="matrix(0.5878,-0.809,0.809,0.5878,558.6334,109.8093)">
		<text transform="matrix(1 0 0 1 -79.4 -139.4834)" class="st1 st2">t13</text>
	</g>
	<g transform="matrix(0.5878,0.809,-0.809,0.5878,222.0299,86.8409)">
		<text transform="matrix(1 0 0 1 -57.1289 58.623)" class="st1 st2">t16</text>
	</g>
	<g transform="matrix(0.9511,-0.309,0.309,0.9511,50.01,449.1094)">
		<text transform="matrix(1 0 0 1 13.5826 -111.0284)" class="st1 st2">t11</text>
	</g>
	<g transform="matrix(0.9511,-0.309,0.309,0.9511,716.4066,232.584)">
		<text transform="matrix(1 0 0 1 -183.8009 -111.0233)" class="st1 st2">t5</text>
	</g>
	<g transform="matrix(0,1,-1,0,407.6754,608.6668)">
		<text transform="matrix(1 0 0 1 -164.6263 135.0253)" class="st1 st2">t15</text>
	</g>
	<g transform="matrix(0.9511,0.309,-0.309,0.9511,142.5706,252.6076)">
		<text transform="matrix(1 0 0 1 -67.7599 -35.3626)" class="st1 st2">t2</text>
	</g>
	<g transform="matrix(0,-1,1,0,389.6754,37.3038)">
		<text transform="matrix(1 0 0 1 3.1705 -109.8505)" class="st1 st2">t7</text>
	</g>
	<g transform="matrix(0.809,0.5878,-0.5878,0.809,651.8002,518.0656)">
		<text transform="matrix(1 0 0 1 -238.6401 11.5874)" class="st1 st2">t8</text>
	</g>
	<g transform="matrix(0.5878,-0.809,0.809,0.5878,194.667,610.7661)">
		<text transform="matrix(1 0 0 1 94.9684 -139.4873)" class="st1 st2">t14</text>
	</g>
	<g transform="matrix(0.9511,0.309,-0.309,0.9511,502.3111,369.4944)">
		<text transform="matrix(1 0 0 1 -174.2781 -35.365)" class="st1 st2">t9</text>
	</g>
	<g transform="matrix(1,0,0,1,453.2272,336.2843)">
		<text transform="matrix(1 0 0 1 -137.8535 -77.612)" class="st1 st2">t12</text>
	</g>
	<g transform="matrix(0.809,0.5878,-0.5878,0.809,166.3426,165.36)">
		<text transform="matrix(1 0 0 1 -69.6851 11.5835)" class="st1 st2">t19</text>
	</g>
	<g transform="matrix(1,0,0,1,64.7705,336.2843)">
		<text transform="matrix(1 0 0 1 -28.4485 -77.612)" class="st1 st2">t4</text>
	</g>
	<g transform="matrix(0.309,-0.9511,0.9511,0.309,296.7095,629.9785)">
		<text transform="matrix(1 0 0 1 132.9992 -131.7228)" class="st1 st2">t6</text>
	</g>
	<g transform="matrix(0.809,-0.5878,0.5878,0.809,176.4239,495.6349)">
		<text transform="matrix(1 0 0 1 29.1379 -132.3534)" class="st1 st2">t10</text>
	</g>
	<g transform="matrix(0.309,-0.9511,0.9511,0.309,487.7644,41.9721)">
		<text transform="matrix(1 0 0 1 -41.3392 -131.7284)" class="st1 st2">t17</text>
	</g>
	<g transform="matrix(0.309,0.9511,-0.9511,0.309,478.9178,563.1205)">
		<text transform="matrix(1 0 0 1 -189.1621 101.1622)" class="st1 st2">t18</text>
	</g>
	<g transform="matrix(0.309,0.9511,-0.9511,0.309,302.2716,19.4592)">
		<text transform="matrix(1 0 0 1 -27.9984 101.1576)" class="st1 st2">t1</text>
	</g>
	<g transform="matrix(0.809,-0.5878,0.5878,0.809,642.6946,156.8694)">
		<text transform="matrix(1 0 0 1 -133.1151 -132.3573)" class="st1 st2">t20</text>
	</g>
</g>
</svg>
